<svg xmlns="http://www.w3.org/2000/svg" xmlns:xlink="http://www.w3.org/1999/xlink" width="133.492" height="78.946" viewBox="0 0 133.492 78.946">
  <defs>
    <linearGradient id="linear-gradient" x1="0.671" y1="-1.126" x2="0.5" y2="1" gradientUnits="objectBoundingBox">
      <stop offset="0" stop-color="#f10000"/>
      <stop offset="1" stop-color="#ffcd00"/>
    </linearGradient>
    <linearGradient id="linear-gradient-2" x1="0.745" y1="2.445" x2="0.65" y2="-0.387" xlink:href="#linear-gradient"/>
    <linearGradient id="linear-gradient-3" x1="0.041" y1="0.691" x2="0.923" y2="0" xlink:href="#linear-gradient"/>
    <linearGradient id="linear-gradient-4" x1="0.542" y1="-0.544" x2="0.328" y2="1.269" xlink:href="#linear-gradient"/>
  </defs>
  <g id="Group_38334" data-name="Group 38334" transform="translate(-435.543 -358.915)">
    <path id="Path_24485" data-name="Path 24485" d="M557.242,496.244s12.977-20.283-3.614-35.153-30.86-6.631-38.1-7.045-9.561-13.437-30.979-17.364-55.977.4-37.111,28.282c11.208,16.563-23.22,9-18.393,31.322Z" transform="translate(6.964 -58.427)" opacity="0.18" fill="url(#linear-gradient)"/>
    <g id="Group_38332" data-name="Group 38332" transform="translate(443.588 358.188)">
      <g id="Group_38323" data-name="Group 38323" transform="matrix(0.999, 0.035, -0.035, 0.999, 2.687, 0)">
        <path id="Path_24526" data-name="Path 24526" d="M7.436,1.58A42.817,42.817,0,0,1,2.764,3.41c-.852.271-1.743.523-2.593.713A6.256,6.256,0,0,1,.3.737C1.414.519,3.8.5,7.239,0Z" transform="translate(14.142 61.928)" fill="#ed975d"/>
        <path id="Path_24527" data-name="Path 24527" d="M0,.946A7.192,7.192,0,0,0,1.595.414C2.32.052,4.253-.19,4.663.2S4.228,2.154,2.464,2.2A5.656,5.656,0,0,0,.194,2.54Z" transform="translate(20.523 61.196)" fill="#ed975d"/>
        <g id="Group_38322" data-name="Group 38322" transform="translate(0 0)">
          <g id="Group_38318" data-name="Group 38318" transform="translate(5.8 0)">
            <g id="Group_38316" data-name="Group 38316" transform="translate(11.6 0)">
              <path id="Path_24533" data-name="Path 24533" d="M0,2.424S5.828-.66,7.527.129s9.935,20.479,9.935,20.479-6-7.177-8.256-10.953C6.842,5.689,0,2.424,0,2.424Z" transform="translate(3.429 0)" fill="#2d2f3a"/>
              <path id="Path_24534" data-name="Path 24534" d="M20.889,20.129C20.693,20.006.6,7.429.058,5.844S2.841,1.431,7.919,0c0,0-3.007,3.76-2.593,4.669.743,1.629,3.648,2.391,6.823,6.3A99.361,99.361,0,0,0,20.889,20.129Z" transform="translate(0 0.478)" fill="#41455c"/>
            </g>
            <g id="Group_38317" data-name="Group 38317" transform="translate(0 14.226)">
              <path id="Path_24535" data-name="Path 24535" d="M32.483,6.379c-.105-.044-1.372-.571-3.29-1.3l-.006,0C23.429,2.871,11.812-1.19,8.1.334a14.9,14.9,0,0,0-4.45,3.014h0C.856,6.01-.842,9.28.428,10,2.293,11.05,20.946,3.79,32.49,6.381Zm-26.79.1S8.519,4.14,9.669,3.93s9.7-.58,10.87-.038S5.693,6.483,5.693,6.483Z" transform="translate(0 0)" fill="#41455c"/>
              <path id="Path_24536" data-name="Path 24536" d="M32.49,3.033C20.946.442,2.293,7.7.428,6.649-.842,5.932.856,2.662,3.651,0c-.03.052-1.475,2.532.383,2.472,1.714-.056,13.508-4.525,25.154-.748l.006,0a27.575,27.575,0,0,1,3.29,1.3Z" transform="translate(0 3.348)" fill="#2d2f3a"/>
            </g>
            <path id="Path_24537" data-name="Path 24537" d="M2.585,15.968S4.842,5.062,2.745,0A13.914,13.914,0,0,1,1.566,1.94S.161.712.035.537L.161.712S1.339,13.013,2.585,15.968Z" transform="translate(29.809 4.655)" fill="#2d2f3a"/>
            <path id="Path_24538" data-name="Path 24538" d="M0,13.032S1.57,2.609,11.391,0c0,0-1.243,1.889-1.1,2.472,0,0,1.879.013,2.418-.071,0,0-8.269,4.005-11.579,10.455Z" transform="translate(32.491 7.576)" fill="#2d2f3a"/>
          </g>
          <g id="Group_38321" data-name="Group 38321" transform="translate(0 10.213)">
            <g id="Group_38319" data-name="Group 38319" transform="translate(2.171 4.7)">
              <rect id="Rectangle_15533" data-name="Rectangle 15533" width="47.05" height="45.171" transform="translate(57.22 49.781) rotate(164.851)" fill="url(#linear-gradient-2)"/>
              <rect id="Rectangle_15534" data-name="Rectangle 15534" width="47.05" height="45.171" transform="translate(79.928 43.633) rotate(164.851)" fill="url(#linear-gradient-3)"/>
              <path id="Path_24539" data-name="Path 24539" d="M0,12.327,45.532,0l3.754,13.863L11.8,55.929Z" transform="translate(22.708 0)" fill="url(#linear-gradient-4)"/>
            </g>
            <g id="Group_38320" data-name="Group 38320" transform="translate(0 0)">
              <rect id="Rectangle_15535" data-name="Rectangle 15535" width="24.517" height="7.832" transform="translate(0 18.953) rotate(-15.149)" fill="#2d2f3a"/>
              <rect id="Rectangle_15536" data-name="Rectangle 15536" width="48.008" height="7.832" transform="translate(23.665 12.546) rotate(-15.149)" fill="#2d2f3a"/>
            </g>
            <rect id="Rectangle_15537" data-name="Rectangle 15537" width="3.637" height="49.877" transform="matrix(0.965, -0.261, 0.261, 0.965, 45.754, 6.566)" fill="rgba(45,47,58,0.24)"/>
            <rect id="Rectangle_15538" data-name="Rectangle 15538" width="3.637" height="49.772" transform="matrix(0.965, -0.261, 0.261, 0.965, 10.556, 16.095)" fill="rgba(45,47,58,0.24)"/>
          </g>
        </g>
      </g>
      <g id="Group_38324" data-name="Group 38324" transform="translate(53.621 60.175)">
        <path id="Path_24542" data-name="Path 24542" d="M1816.842,1361.729a2.511,2.511,0,0,1-1.065,1.1,2.278,2.278,0,0,1-1.324.057l.014.922a3.289,3.289,0,0,0,1.914-.6,2.285,2.285,0,0,0,.524-.932A.782.782,0,0,0,1816.842,1361.729Z" transform="translate(-1814.453 -1359.306)" fill="rgba(255,255,255,0.27)"/>
        <path id="Path_24543" data-name="Path 24543" d="M1831.546,1335.518l.748-1a3.755,3.755,0,0,1-.24,3.789S1832.292,1336.253,1831.546,1335.518Z" transform="translate(-1830.024 -1334.517)" fill="rgba(255,255,255,0.27)"/>
      </g>
      <g id="Group_38327" data-name="Group 38327" transform="translate(62.874 30.928)">
        <path id="Path_24548" data-name="Path 24548" d="M1988.414,886.372a2.222,2.222,0,0,1-1.232-2.947l-1.347-.876s-.553,1.245,1.459,3.342C1988.61,887.265,1988.414,886.372,1988.414,886.372Z" transform="translate(-1985.765 -882.55)" fill="rgba(255,255,255,0.24)"/>
        <path id="Path_24549" data-name="Path 24549" d="M1997.127,910.39s-1.945.711-3.983-2.344a3.594,3.594,0,0,0,2.955.975Z" transform="translate(-1992.487 -905.776)" fill="rgba(255,255,255,0.24)"/>
      </g>
      <path id="Path_24550" data-name="Path 24550" d="M2149.114,1014.031s.933-.589,1.031-1.3c0,0,.908.049,1.1.344,0,0-.417,1.178-.908,1.4C2150.341,1014.473,2149.237,1014.547,2149.114,1014.031Z" transform="translate(-2065.696 -981.207)" fill="#cecece"/>
      <g id="Group_38331" data-name="Group 38331" transform="translate(11.917 41.579)">
        <g id="Group_38329" data-name="Group 38329" transform="translate(59.284 14.149)">
          <path id="Path_24554" data-name="Path 24554" d="M2026.468,1312.486a3.7,3.7,0,0,1-.038,2.256,3.353,3.353,0,0,1-1.366,1.4l.946.978a4.853,4.853,0,0,0,1.453-2.58,3.376,3.376,0,0,0-.378-1.532A1.152,1.152,0,0,0,2026.468,1312.486Z" transform="translate(-2023.891 -1310)" fill="rgba(255,255,255,0.32)"/>
          <path id="Path_24555" data-name="Path 24555" d="M2012.1,1286.4l-.207-1.833s3.341,1.2,3.572,4.317C2015.462,1288.883,2013.642,1286.435,2012.1,1286.4Z" transform="translate(-2011.89 -1284.566)" fill="rgba(255,255,255,0.32)"/>
        </g>
        <g id="Group_38330" data-name="Group 38330" transform="translate(13.275 7.73)">
          <path id="Path_24556" data-name="Path 24556" d="M1499.35,1215.338a2.447,2.447,0,0,1-2.455-2.517l-1.734-.35s-.061,1.5,2.849,2.83C1499.913,1216.172,1499.35,1215.338,1499.35,1215.338Z" transform="translate(-1495.16 -1212.471)" fill="rgba(255,255,255,0.32)"/>
          <path id="Path_24557" data-name="Path 24557" d="M1517.273,1234.649s-1.7,1.516-5.027-.786a3.957,3.957,0,0,0,3.42-.2Z" transform="translate(-1510.725 -1231.777)" fill="rgba(255,255,255,0.32)"/>
        </g>
        <path id="Path_24560" data-name="Path 24560" d="M1346.059,1236.81a3.281,3.281,0,0,1,.146,2.268s1.061.653,1.512.474c0,0,.449-1.652.068-2.283C1347.786,1237.269,1346.6,1236.325,1346.059,1236.81Z" transform="translate(-1346.059 -1226.787)" fill="rgba(255,255,255,0.32)"/>
      </g>
    </g>
  </g>
</svg>
