<svg xmlns="http://www.w3.org/2000/svg" xmlns:xlink="http://www.w3.org/1999/xlink" width="103.847" height="107.06" viewBox="0 0 103.847 107.06">
  <defs>
    <linearGradient id="linear-gradient" x1="1.076" y1="-0.696" x2="0.165" y2="1" gradientUnits="objectBoundingBox">
      <stop offset="0" stop-color="#f10000"/>
      <stop offset="1" stop-color="#ffcd00"/>
    </linearGradient>
    <linearGradient id="linear-gradient-2" x1="1.029" y1="0.606" x2="1.007" y2="1.073" xlink:href="#linear-gradient"/>
    <linearGradient id="linear-gradient-4" x1="0.5" y1="-1.339" x2="0.5" y2="1" xlink:href="#linear-gradient"/>
    <linearGradient id="linear-gradient-5" x1="0.651" y1="-0.875" x2="0.5" y2="1" xlink:href="#linear-gradient"/>
    <linearGradient id="linear-gradient-6" x1="0.5" x2="0.5" y2="1" gradientUnits="objectBoundingBox">
      <stop offset="0" stop-color="#37474f"/>
      <stop offset="1" stop-color="#0b0e10"/>
    </linearGradient>
    <linearGradient id="linear-gradient-7" x1="0.341" y1="1" x2="0.535" y2="-0.277" gradientUnits="objectBoundingBox">
      <stop offset="0" stop-color="#ffcd00"/>
      <stop offset="1" stop-color="#f10000"/>
    </linearGradient>
  </defs>
  <g id="Group_39891" data-name="Group 39891" transform="translate(-312.639 -265.218)">
    <g id="Mat" transform="translate(312.639 311.725)">
      <g id="Mat-2" data-name="Mat" transform="translate(0 0)">
        <path id="Path_25937" data-name="Path 25937" d="M416.486,359.36,348.173,398.8l-35.534-20.492,68.313-39.441Z" transform="translate(-312.639 -338.868)" fill="url(#linear-gradient)"/>
        <path id="Path_25938" data-name="Path 25938" d="M416.486,359.36,348.173,398.8l-35.534-20.492,68.313-39.441Z" transform="translate(-312.638 -340.868)" fill="#fff" opacity="0.55"/>
        <path id="Path_25939" data-name="Path 25939" d="M437.224,371.319v.62l-68.313,39.441v-.62Z" transform="translate(-333.377 -350.827)" fill="url(#linear-gradient-2)"/>
        <path id="Path_25940" data-name="Path 25940" d="M437.224,371.319v.62l-68.313,39.441v-.62Z" transform="translate(-333.377 -350.827)" opacity="0.3"/>
        <path id="Path_25941" data-name="Path 25941" d="M348.173,421.818l-35.534-20.492v.62l35.534,20.492Z" transform="translate(-312.639 -361.886)" fill="url(#linear-gradient-2)"/>
        <path id="Path_25942" data-name="Path 25942" d="M348.173,421.818l-35.534-20.492v.62l35.534,20.492Z" transform="translate(-312.639 -361.886)" opacity="0.2"/>
      </g>
    </g>
    <g id="Character_4" data-name="Character 4" transform="translate(320.7 265.218)">
      <g id="Character" transform="translate(0)">
        <g id="Bottom" transform="translate(18.06 36.628)">
          <path id="Path_25943" data-name="Path 25943" d="M367.975,353.367c-.626.985-2.16,1.769-5.45.683-3.37-1.112-3.695-4.071-2.946-4.94,1.38-1.6,6.791-3.063,8.472-1.445S368.818,352.039,367.975,353.367Z" transform="translate(-355.936 -331.971)" fill="#263238"/>
          <path id="Path_25944" data-name="Path 25944" d="M390.263,362.861c-.527,2.083-5.186.985-7.439.352-1.641-.462-2.989-1.569-2.851-2.478.237-1.561,2.389-4.281,4.963-3.171S390.721,361.051,390.263,362.861Z" transform="translate(-363.571 -335.783)" fill="#263238"/>
          <g id="Group_39879" data-name="Group 39879" transform="translate(16.583 4.814)">
            <g id="Group_39875" data-name="Group 39875" transform="translate(0.419)">
              <path id="Path_25945" data-name="Path 25945" d="M393.452,330.846a12.5,12.5,0,0,1,.751,8.246c-.717,2.64-3.767,12.489-4.044,14.349-.14.943-.014,1.085.6,2.408a14.82,14.82,0,0,1,1.3,6.286c.076,2.7-.011,5.692-.059,7.69l-.058.382s.13,3.626-1.566,3.9a3.413,3.413,0,0,1-2.919-1.405s-.666-2.945-2.1-7.273c-1.488-4.486-3.058-7.891-3.818-10.323-.732-2.34-.71-2.41-.424-6.739.207-3.137,1.327-10.032,1.327-10.032Z" transform="translate(-380.93 -330.846)" fill="#ffa8a7"/>
              <path id="Path_25946" data-name="Path 25946" d="M395.526,394.084c.022-.345.24-1.4-.186-1.51l-.058.382s-.234.429-2.066.6a7.867,7.867,0,0,1-2.942-.158l-.179-.65s-.159.056-.094.524a17.352,17.352,0,0,1,.739,2.559c-.037.609.451,1.622,2.838,1.359a2.453,2.453,0,0,0,2.139-2.755Z" transform="translate(-384.267 -353.595)" fill="#263238"/>
            </g>
            <g id="Group_39878" data-name="Group 39878" transform="translate(0 40.486)">
              <g id="Group_39877" data-name="Group 39877">
                <path id="Path_25947" data-name="Path 25947" d="M380.67,406.991c-.046.322-.014.542,1.168.942a8.58,8.58,0,0,0,4.456-.008,6.473,6.473,0,0,0,3.4-2.636,8.491,8.491,0,0,1,2.73-2.275c.839-.464,1.013-.645.945-.921s-.318-1-.318-1Z" transform="translate(-380.411 -397.22)" fill="#ebebeb"/>
                <path id="Path_25948" data-name="Path 25948" d="M393.069,397.66c-.22-.916-.628-1.329-.638-2.078-.01-.721-.417-.617-.417-.617l-.039.425c-.037.278-.2.391-.335.609-.3.487-.289.83-.7.976-.43.153-.491-.558-.952-.553a.712.712,0,0,0-.455.241,1.216,1.216,0,0,0,.023-.577c-.136-.443-1.675-.595-2.475-.727s-.437.43-.71,1.19a24.443,24.443,0,0,1-2.575,4.091,23.474,23.474,0,0,1-1.935,1.624c-.949.692-.871.987-1.148,1.168s-.335.833-.18,1.216,2.374,1.292,4.706.738a5.253,5.253,0,0,0,3.8-2.792,6.473,6.473,0,0,1,2.417-2.22,5.285,5.285,0,0,0,1.623-1.144A3.145,3.145,0,0,0,393.069,397.66Z" transform="translate(-380.333 -394.96)" fill="#455a64"/>
                <path id="Path_25949" data-name="Path 25949" d="M385.751,400.861a24.443,24.443,0,0,0,2.575-4.091c.273-.76-.091-1.322.71-1.189s2.339.284,2.475.727-.236,1.5-1.084,2.8a13.947,13.947,0,0,1-2.52,2.639Z" transform="translate(-382.287 -395.181)" opacity="0.1"/>
                <path id="Path_25950" data-name="Path 25950" d="M380.826,406.789c.425.1.89.2.91.362a3.451,3.451,0,0,0,.277,1.337,1.137,1.137,0,0,0,.919.394,11.448,11.448,0,0,0,3.157-.311,5.87,5.87,0,0,0,2.82-1.876,9.319,9.319,0,0,1,2.2-2.315,21.86,21.86,0,0,0,2.116-1.4,2.2,2.2,0,0,1,.1.368,1.45,1.45,0,0,1-.529.443,14.541,14.541,0,0,0-2.176,1.31,15.582,15.582,0,0,0-1.575,1.824,6.018,6.018,0,0,1-2.946,1.887,8.694,8.694,0,0,1-4.346.023c-1.2-.4-1.264-.637-1.368-.775a2.664,2.664,0,0,1-.091-1.172C380.362,406.7,380.522,406.717,380.826,406.789Z" transform="translate(-380.266 -397.916)" fill="#37474f"/>
                <g id="Group_39876" data-name="Group 39876" transform="translate(3.346 1.646)">
                  <path id="Path_25951" data-name="Path 25951" d="M388.205,404.335a4.259,4.259,0,0,0-2.333-.767.693.693,0,0,0-.309.347,5.38,5.38,0,0,1,2.274.78S388.19,404.651,388.205,404.335Z" transform="translate(-385.564 -399.772)" fill="#37474f"/>
                  <path id="Path_25952" data-name="Path 25952" d="M387.065,401.937a6.664,6.664,0,0,1,2.733.85.442.442,0,0,0,.345-.357,6.314,6.314,0,0,0-2.828-.866S387.042,401.713,387.065,401.937Z" transform="translate(-386.117 -399.037)" fill="#37474f"/>
                  <path id="Path_25953" data-name="Path 25953" d="M388.34,399.907a5.352,5.352,0,0,1,2.883.965.369.369,0,0,0,.345-.4,5.954,5.954,0,0,0-2.942-1.037S388.266,399.6,388.34,399.907Z" transform="translate(-386.583 -398.254)" fill="#37474f"/>
                  <path id="Path_25954" data-name="Path 25954" d="M389.435,398.04a5.187,5.187,0,0,1,3.008.815.45.45,0,0,0,.272-.418,4.96,4.96,0,0,0-3.063-.845A.694.694,0,0,0,389.435,398.04Z" transform="translate(-386.991 -397.567)" fill="#37474f"/>
                </g>
              </g>
            </g>
          </g>
          <g id="Group_39884" data-name="Group 39884" transform="translate(0 0.355)">
            <g id="Group_39880" data-name="Group 39880" transform="translate(3.345)">
              <path id="Path_25955" data-name="Path 25955" d="M368.638,323.785c.971,3.107,8.659,8.131,7.743,10.708s-6.179,7.312-8.727,9.395c-.212.93-.1,1.08.416,2.446a14.823,14.823,0,0,1,.82,6.366c-.129,2.7-.444,5.675-.643,7.664l-.087.376s-.146,3.626-1.858,3.767a3.413,3.413,0,0,1-2.8-1.623s-.44-2.987-1.543-7.412c-1.143-4.586-1.558-6.9-2.132-9.38-.551-2.389-1.09-3.591.764-6.67,1.433-2.379,7.63-12.179,7.63-12.179Z" transform="translate(-359.301 -323.785)" fill="#ffa8a7"/>
              <path id="Path_25956" data-name="Path 25956" d="M370.4,383.1c.049-.342.346-1.382-.071-1.519l-.087.376s-.266.41-2.105.443a7.876,7.876,0,0,1-2.921-.38l-.129-.662s-.163.044-.134.515a17.339,17.339,0,0,1,.542,2.607c-.082.6.326,1.651,2.727,1.57a2.453,2.453,0,0,0,2.342-2.585Z" transform="translate(-361.382 -345.003)" fill="#263238"/>
            </g>
            <g id="Group_39883" data-name="Group 39883" transform="translate(0 38.082)">
              <g id="Group_39882" data-name="Group 39882">
                <path id="Path_25957" data-name="Path 25957" d="M354.36,395.285c-.071.318-.056.54,1.093,1.028a8.573,8.573,0,0,0,4.444.331,6.476,6.476,0,0,0,3.592-2.371,8.5,8.5,0,0,1,2.9-2.06c.871-.4,1.06-.566,1.012-.846s-.24-1.023-.24-1.023Z" transform="translate(-354.127 -386.396)" fill="#ebebeb"/>
                <path id="Path_25958" data-name="Path 25958" d="M367.29,386.879c-.15-.93-.526-1.372-.479-2.12.045-.72-.369-.647-.369-.647l-.071.421c-.058.275-.231.374-.38.582-.333.463-.351.805-.772.92-.44.12-.447-.593-.907-.623a.709.709,0,0,0-.472.2,1.227,1.227,0,0,0,.068-.574c-.1-.452-1.625-.72-2.413-.913s-.468.4-.8,1.132a24.446,24.446,0,0,1-2.879,3.884,23.536,23.536,0,0,1-2.053,1.471c-1,.618-.943.918-1.234,1.078s-.4.805-.271,1.2,2.268,1.468,4.637,1.093a5.254,5.254,0,0,0,4-2.495,6.457,6.457,0,0,1,2.578-2.03,5.3,5.3,0,0,0,1.7-1.018A3.138,3.138,0,0,0,367.29,386.879Z" transform="translate(-354.079 -384.092)" fill="#455a64"/>
                <path id="Path_25959" data-name="Path 25959" d="M359.925,389.145a24.447,24.447,0,0,0,2.879-3.884c.33-.736.01-1.325.8-1.132s2.311.461,2.412.913-.349,1.478-1.293,2.714a13.962,13.962,0,0,1-2.713,2.439Z" transform="translate(-356.186 -384.092)" opacity="0.1"/>
                <path id="Path_25960" data-name="Path 25960" d="M354.606,395.121c.416.132.871.27.88.429a3.439,3.439,0,0,0,.175,1.354,1.137,1.137,0,0,0,.887.463,11.428,11.428,0,0,0,3.172-.071,5.865,5.865,0,0,0,2.955-1.656,9.32,9.32,0,0,1,2.369-2.141,21.97,21.97,0,0,0,2.216-1.233,2.242,2.242,0,0,1,.072.374,1.461,1.461,0,0,1-.561.4,14.615,14.615,0,0,0-2.27,1.14,15.56,15.56,0,0,0-1.708,1.7,6.024,6.024,0,0,1-3.081,1.657,8.7,8.7,0,0,1-4.336-.308c-1.166-.486-1.211-.731-1.305-.877a2.67,2.67,0,0,1,0-1.175C354.15,395,354.308,395.027,354.606,395.121Z" transform="translate(-354.004 -387.104)" fill="#37474f"/>
                <g id="Group_39881" data-name="Group 39881" transform="translate(3.613 1.246)">
                  <path id="Path_25961" data-name="Path 25961" d="M362.328,392.679a4.251,4.251,0,0,0-2.268-.942.689.689,0,0,0-.334.323,5.385,5.385,0,0,1,2.208.95S362.288,392.993,362.328,392.679Z" transform="translate(-359.726 -388.152)" fill="#37474f"/>
                  <path id="Path_25962" data-name="Path 25962" d="M361.373,390.2a6.668,6.668,0,0,1,2.66,1.056.441.441,0,0,0,.371-.33,6.319,6.319,0,0,0-2.754-1.079S361.367,389.972,361.373,390.2Z" transform="translate(-360.333 -387.458)" fill="#37474f"/>
                  <path id="Path_25963" data-name="Path 25963" d="M362.8,388.271a5.348,5.348,0,0,1,2.8,1.181.369.369,0,0,0,.374-.373,5.954,5.954,0,0,0-2.855-1.257S362.746,387.962,362.8,388.271Z" transform="translate(-360.856 -386.713)" fill="#37474f"/>
                  <path id="Path_25964" data-name="Path 25964" d="M364.027,386.5a5.181,5.181,0,0,1,2.938,1.041.449.449,0,0,0,.3-.4,4.957,4.957,0,0,0-2.991-1.075A.7.7,0,0,0,364.027,386.5Z" transform="translate(-361.311 -386.065)" fill="#37474f"/>
                </g>
              </g>
            </g>
          </g>
          <g id="Group_39885" data-name="Group 39885" transform="translate(3.643)">
            <path id="Path_25965" data-name="Path 25965" d="M386.616,323.707c.684,2.224,2.506,6.416,1.118,11.5-1.35,4.946-4.269,12.476-4.912,15.092.1-1.645-1.358-2.864-4.31-3.5-2.934-.631-5.841.454-5.979,1.372l1.45-9.193-5.813,5.636a7.109,7.109,0,0,0-4.022-4.164c-2.395-.95-3.873-.532-4.374-.092,0,0,7.249-11.623,7.871-13.188a6.534,6.534,0,0,0,.218-3.95Z" transform="translate(-359.774 -323.223)" fill="#2d2f3a"/>
            <path id="Path_25966" data-name="Path 25966" d="M378.883,342.374l.59-5.337a13.9,13.9,0,0,1-5.589-4.61c.469,2.348,3.1,4.587,4.149,5.181l-.085,4.665-4.878,5.738Z" transform="translate(-364.674 -326.615)" opacity="0.2"/>
          </g>
        </g>
        <g id="Top">
          <path id="Path_25967" data-name="Path 25967" d="M361.822,311.536c1.447-3.128,3.042-7.326,3.042-7.326s-1.8-7.511-1.687-11.123c.04-1.285,1.643-4.14,4.269-2.851.443.525,1.792,8.28,2.731,11.957.494,1.937.719,2.9-.126,4.442-1.374,2.508-4.231,5.829-4.058,7.61" transform="translate(-338.825 -274.318)" fill="#ffa8a7"/>
          <g id="Chest" transform="translate(24.784 15.824)">
            <g id="Group_39886" data-name="Group 39886">
              <path id="Path_25968" data-name="Path 25968" d="M368.181,307.653c-2.764-6.08-3.444-6.751-3.527-9.977a9.775,9.775,0,0,1,1.507-5.081c.7-1.025,1.877-2.326,2.5-2.281a24.311,24.311,0,0,1,4.141.121c3.991.915,6.841,1.788,6.841,1.788a16,16,0,0,1,4.7,7.282c1.373,3.833,4.6,12.576,5.479,17.142-7.89,4.312-17.873,1.118-20.186-2.986A16.636,16.636,0,0,0,368.181,307.653Z" transform="translate(-364.652 -290.277)" fill="url(#linear-gradient-4)"/>
            </g>
          </g>
          <g id="Head" transform="translate(23.613)">
            <g id="Group_39887" data-name="Group 39887">
              <path id="Path_25969" data-name="Path 25969" d="M373.609,280.15c.212-1.252,2.792-3.05,3.39-5.232.784-2.855-.283-5.861-2.292-6.063-.214-1.959-3.32-3.136-5.276-2.82-1.7.2-4.024.642-5.266-.818a2.384,2.384,0,0,0,.337,2.44,8.211,8.211,0,0,0-1.638-.422c-.29,1.019.438,1.982.813,2.855a3.259,3.259,0,0,0,1.569,4.6Z" transform="translate(-362.798 -265.218)" fill="#263238"/>
              <path id="Path_25970" data-name="Path 25970" d="M371.129,290.375h0c-.221-1.053-.4-2.2-.4-2.2l5.634-3.868L377,289.11a.426.426,0,0,1,.01.14c.069,1.217-1.289,2.793-3.24,4.833a20.186,20.186,0,0,0-2.6,3.221,13.728,13.728,0,0,1-.284-4.429A8.484,8.484,0,0,0,371.129,290.375Z" transform="translate(-365.72 -272.251)" fill="#ffa8a7"/>
              <path id="Path_25971" data-name="Path 25971" d="M375.939,284.543a5.006,5.006,0,0,1-1.233,3c-.225.209-1.075,1.085-3.854,1.457l-.124-.745a10.524,10.524,0,0,0,2.119-.328,6.3,6.3,0,0,0,1.26-.557C375.341,286.7,375.737,284.895,375.939,284.543Z" transform="translate(-365.72 -272.34)" fill="#f28f8f"/>
              <path id="Path_25972" data-name="Path 25972" d="M365.324,271.548c-.056.079.294.405.344.452a4.386,4.386,0,0,0,.712.544,5.618,5.618,0,0,0,1.641.666,10.677,10.677,0,0,0,2.883.213.238.238,0,0,1,.133.021.226.226,0,0,1,.081.136,3.416,3.416,0,0,0,.3.874,2.122,2.122,0,0,0,.924.7.14.14,0,0,1,.1.152c.018.72-.427,1.429-.251,2.127a.685.685,0,0,0,.2.355.376.376,0,0,0,.556-.066c.328-.373.519-.845.809-1.249.113-.157.241-.3.367-.449a1.817,1.817,0,0,1,.544-.46,1.309,1.309,0,0,1,1.043.039,1.548,1.548,0,0,1,.828,1.177,3.252,3.252,0,0,1-.676,2.424,1.659,1.659,0,0,1-1.219.76c-.742.05-.929-.351-.93-.361h0l-.437.325a5.755,5.755,0,0,1-1.424,2.49,4.663,4.663,0,0,1-2.674.986,10.168,10.168,0,0,1-4.171-.45c-.691-.333-1.785-1.038-1.393-5.335C364.084,272.421,365.193,271.733,365.324,271.548Z" transform="translate(-363.067 -267.551)" fill="#ffa8a7"/>
            </g>
            <g id="Group_39888" data-name="Group 39888" transform="translate(1.587 6.217)">
              <path id="Path_25973" data-name="Path 25973" d="M371.771,279.25a.546.546,0,1,0,.616-.493A.555.555,0,0,0,371.771,279.25Z" transform="translate(-367.69 -276.423)" fill="#263238"/>
              <path id="Path_25974" data-name="Path 25974" d="M369.191,284.942a.427.427,0,1,0,.481-.385A.433.433,0,0,0,369.191,284.942Z" transform="translate(-366.739 -278.561)" fill="#b16668"/>
              <path id="Path_25975" data-name="Path 25975" d="M372.136,276.6l1.333.037a.7.7,0,0,0-.668-.7A.651.651,0,0,0,372.136,276.6Z" transform="translate(-367.826 -275.383)" fill="#263238"/>
              <path id="Path_25976" data-name="Path 25976" d="M365.477,275.5l1.263.459a.645.645,0,0,0-.376-.857A.706.706,0,0,0,365.477,275.5Z" transform="translate(-365.372 -275.063)" fill="#263238"/>
              <path id="Path_25977" data-name="Path 25977" d="M365.316,278.116a.546.546,0,1,0,.616-.493A.555.555,0,0,0,365.316,278.116Z" transform="translate(-365.311 -276.005)" fill="#263238"/>
            </g>
            <path id="Path_25978" data-name="Path 25978" d="M368.071,278.647l-.852,2.85-1.742-.871a4.914,4.914,0,0,1,2.139-2.252C368.232,278.183,368.071,278.647,368.071,278.647Z" transform="translate(-363.785 -270.049)" fill="#f28f8f"/>
          </g>
          <g id="Barbell" transform="translate(0 22.441)">
            <g id="Group_39889" data-name="Group 39889">
              <path id="Path_25979" data-name="Path 25979" d="M346.133,306.39h0c-1.316-4.3-6.538-6.465-9.641-5.338h0a9.566,9.566,0,0,0-2.264.966c-4.874,2.812-8.826,9.656-8.826,15.287a9.24,9.24,0,0,0,.395,2.794h0c.8,2.754,4.613,6.725,9.641,5.318h0a9.525,9.525,0,0,0,2.259-.966c4.875-2.814,8.826-9.658,8.826-15.287A9.26,9.26,0,0,0,346.133,306.39Z" transform="translate(-325.404 -300.756)" fill="url(#linear-gradient-5)"/>
              <path id="Path_25980" data-name="Path 25980" d="M339.716,325.678c4.875-2.814,8.826-9.658,8.826-15.287s-3.951-7.912-8.826-5.1-8.826,9.656-8.826,15.287S334.842,328.492,339.716,325.678Z" transform="translate(-327.426 -301.984)" fill="url(#linear-gradient-6)"/>
              <path id="Path_25981" data-name="Path 25981" d="M343.128,317.187c1.294-.747,2.343-.141,2.343,1.353a5.18,5.18,0,0,1-2.343,4.059c-1.295.747-2.343.141-2.343-1.353A5.178,5.178,0,0,1,343.128,317.187Z" transform="translate(-331.072 -306.694)" fill="#455a64"/>
              <path id="Path_25982" data-name="Path 25982" d="M344.83,320.589a1.781,1.781,0,0,1-.8,1.392.58.58,0,0,1-.539.071.33.33,0,0,1-.059-.034.587.587,0,0,1-.207-.5,1.782,1.782,0,0,1,.8-1.392.573.573,0,0,1,.535-.071l.059.034A.58.58,0,0,1,344.83,320.589Z" transform="translate(-331.972 -307.853)" fill="#37474f"/>
            </g>
            <path id="Path_25983" data-name="Path 25983" d="M383.641,343.051a1.77,1.77,0,0,1-.8,1.389.676.676,0,0,1-.349.108.529.529,0,0,1-.268-.077L343.49,322.052a.328.328,0,0,1-.059-.033.589.589,0,0,1-.207-.5,1.782,1.782,0,0,1,.8-1.392.573.573,0,0,1,.535-.071l.059.034L383.358,342.5A.56.56,0,0,1,383.641,343.051Z" transform="translate(-331.972 -307.853)" fill="#ebebeb"/>
            <g id="Group_39890" data-name="Group 39890" transform="translate(46.348 26.808)">
              <path id="Path_25984" data-name="Path 25984" d="M419.53,348.845h0c-1.316-4.3-6.538-6.465-9.641-5.338h0a9.545,9.545,0,0,0-2.264.965c-4.875,2.812-8.827,9.656-8.827,15.287a9.238,9.238,0,0,0,.4,2.794h0c.8,2.754,4.614,6.725,9.641,5.317h0a9.549,9.549,0,0,0,2.259-.965c4.874-2.814,8.826-9.659,8.826-15.288A9.243,9.243,0,0,0,419.53,348.845Z" transform="translate(-398.801 -343.211)" fill="url(#linear-gradient-7)"/>
              <path id="Path_25985" data-name="Path 25985" d="M413.114,368.133c4.874-2.814,8.826-9.659,8.826-15.287s-3.952-7.911-8.826-5.1-8.826,9.656-8.826,15.287S408.24,370.946,413.114,368.133Z" transform="translate(-400.823 -344.439)" fill="url(#linear-gradient-6)"/>
              <path id="Path_25986" data-name="Path 25986" d="M416.526,359.642c1.294-.747,2.343-.141,2.343,1.353a5.18,5.18,0,0,1-2.343,4.059c-1.295.747-2.343.141-2.343-1.353A5.178,5.178,0,0,1,416.526,359.642Z" transform="translate(-404.47 -349.149)" fill="#455a64"/>
              <path id="Path_25987" data-name="Path 25987" d="M418.228,363.044a1.78,1.78,0,0,1-.8,1.392.581.581,0,0,1-.539.071.354.354,0,0,1-.058-.034.587.587,0,0,1-.206-.5,1.781,1.781,0,0,1,.8-1.392.57.57,0,0,1,.535-.071l.059.033A.58.58,0,0,1,418.228,363.044Z" transform="translate(-405.369 -350.309)" fill="#37474f"/>
            </g>
            <path id="Path_25988" data-name="Path 25988" d="M420.167,364.165a1.77,1.77,0,0,1-.8,1.389.674.674,0,0,1-.348.108.525.525,0,0,1-.268-.077l-1.863-1.078a.354.354,0,0,1-.058-.034.587.587,0,0,1-.206-.5,1.781,1.781,0,0,1,.8-1.392.57.57,0,0,1,.535-.071l.059.033,1.863,1.075A.56.56,0,0,1,420.167,364.165Z" transform="translate(-359.021 -323.5)" fill="#fafafa"/>
            <path id="Path_25989" data-name="Path 25989" d="M421.3,364.811a1.781,1.781,0,0,1-.8,1.392.581.581,0,0,1-.539.071.353.353,0,0,1-.058-.034.587.587,0,0,1-.206-.5,1.784,1.784,0,0,1,.8-1.392.574.574,0,0,1,.536-.071l.059.034A.581.581,0,0,1,421.3,364.811Z" transform="translate(-360.153 -324.151)" fill="#e0e0e0"/>
          </g>
          <path id="Path_25990" data-name="Path 25990" d="M387.542,293.36c1.351.4,2.811-.035,4.4,1.187,1.894,1.458,2.388,2.951,2.4,5.321.014,1.858,1.049,6.7,1.615,9.84a8.492,8.492,0,0,1-.011,4.761c-.428,2.12-3.169,9.7-3,11.479a8.421,8.421,0,0,1-.022,3.13l-1.013-.587s-.444.155-.707.943a1.63,1.63,0,0,0,.039,1.293l1.046.606c-.111.047-.224.09-.339.13s-.212.063-.313.1-.206.093-.311.136a2.811,2.811,0,0,1-.66.194,1.447,1.447,0,0,1-.575-.026.264.264,0,0,1-.169-.1.6.6,0,0,0-.128-.138c-.463-.337-1.135-.083-1.591-.446-.264-.21-.374-.6-.683-.732s-.7.042-1.009-.1c-.344-.164-.4-.62-.406-1q-.018-.84-.035-1.681a3.622,3.622,0,0,1,.1-1.159,2.317,2.317,0,0,1,.688-1.011c1.7-1.539,1.839-1.909,1.915-2.262.7-3.287,1.215-11.661,1.215-11.661l-2.692-9.817S385.674,296.174,387.542,293.36Z" transform="translate(-347.763 -275.589)" fill="#ffa8a7"/>
          <path id="Path_25991" data-name="Path 25991" d="M364.412,326.868A8.4,8.4,0,0,1,364.39,330l-1.013-.587s-.444.155-.707.943a1.63,1.63,0,0,0,.039,1.293l1.046.6c-.111.048-.225.09-.338.131s-.212.063-.313.1-.207.093-.311.136a2.8,2.8,0,0,1-.659.2,1.463,1.463,0,0,1-.576-.027.264.264,0,0,1-.169-.1.577.577,0,0,0-.128-.138c-.463-.337-1.135-.083-1.591-.446-.263-.21-.374-.6-.682-.733s-.7.042-1.01-.1c-.343-.164-.4-.621-.406-1q-.017-.841-.035-1.682a3.606,3.606,0,0,1,.1-1.159,2.329,2.329,0,0,1,.687-1.011c1.7-1.54,1.839-1.909,1.915-2.261" transform="translate(-337.245 -286.939)" fill="#ffa8a7"/>
        </g>
      </g>
    </g>
  </g>
</svg>
