<svg xmlns="http://www.w3.org/2000/svg" width="170.89" height="207.865" viewBox="0 0 170.89 207.865">
  <g id="Group_39529" data-name="Group 39529" transform="translate(-153.11 -471.197)">
    <g id="Group_39526" data-name="Group 39526" transform="translate(-465.16 438.077)">
      <g id="Group_39525" data-name="Group 39525" transform="translate(641.785 36.365)">
        <path id="Path_25103" data-name="Path 25103" d="M679.16,36.371s-8.376-.623-8.5,11.03a.745.745,0,0,0-1.06.436c-.374.81.748,2.181.374,3.3s.249,1.994.747,1.869.872,2.68,3.178,5.546-2.306,8.662-7.914,10.718c-5.712,2.094-10.454,4.124-10.343,8.92a66.855,66.855,0,0,1-.288,8.318c-.435,4.283-.419,8.919-1.184,13.256-.66,3.742-1.952,7.462-2.835,11.166a150.78,150.78,0,0,0-3.115,15.852,1.69,1.69,0,0,1-.972,1.328,7.48,7.48,0,0,0-3.509,3.274,32.545,32.545,0,0,1-1.871,3.306.534.534,0,0,0,.459.821,3.455,3.455,0,0,0,1.817-.778c1.963-1.4-3.521,6.792-2.087,8.132,0,0,.234.564,1.122.127-.152.074.085.807.136.9a1.575,1.575,0,0,0,2.086.246c.14-.1.595-.518.581-.694,0,0,.047.607,1.309.327a2.1,2.1,0,0,0,1.5-1.636s.022.017.063.043a1.156,1.156,0,0,0,1.736-.931,5.043,5.043,0,0,1,.725-2.289,14.914,14.914,0,0,0,2.468-9.446,1.818,1.818,0,0,1,.112-.8c2.861-7.364,5.831-14.821,7.829-22.473.919-3.518.686-7.267,1.083-10.869q.362-3.287.846-6.561s5.234,9.441,1.589,25.051c0,0-4.861,12.993-3.832,22.807l2.459,23.912a34.5,34.5,0,0,1,.156,4.852c-.174,4.568-.513,14.437-.372,18.814.187,5.8,2.43,23.181,3.552,27.014s1.682,9.067-1.4,12.9,7.384,2.9,9.067,2.057-1.776-5.515-1.9-10.314,1.87-25.3,1.5-33.837a86.138,86.138,0,0,1,1.994-22.371c1.246-4.923,2.7-22.247,2.7-22.247Z" transform="translate(-641.785 -36.365)" fill="#2d2f3a"/>
        <path id="Path_25104" data-name="Path 25104" d="M717.092,36.371s8.376-.623,8.5,11.03a.744.744,0,0,1,1.059.436c.374.81-.747,2.181-.374,3.3s-.249,1.994-.748,1.869-.872,2.68-3.178,5.546,2.306,8.662,7.914,10.718c5.712,2.094,10.454,4.124,10.343,8.92a67.068,67.068,0,0,0,.288,8.318c.436,4.283.419,8.919,1.185,13.256.66,3.742,1.952,7.462,2.835,11.166a150.654,150.654,0,0,1,3.115,15.852,1.691,1.691,0,0,0,.973,1.328,7.483,7.483,0,0,1,3.509,3.274,32.583,32.583,0,0,0,1.87,3.306.534.534,0,0,1-.458.821,3.454,3.454,0,0,1-1.817-.778c-1.963-1.4,3.521,6.792,2.088,8.132,0,0-.234.564-1.122.127.152.074-.085.807-.137.9a1.575,1.575,0,0,1-2.086.246c-.14-.1-.595-.518-.581-.694,0,0-.047.607-1.309.327a2.1,2.1,0,0,1-1.5-1.636s-.022.017-.064.043a1.155,1.155,0,0,1-1.735-.931,5.04,5.04,0,0,0-.725-2.289,14.913,14.913,0,0,1-2.468-9.446,1.831,1.831,0,0,0-.112-.8c-2.861-7.364-5.831-14.821-7.83-22.473-.919-3.518-.686-7.267-1.083-10.869q-.362-3.287-.846-6.561s-5.234,9.441-1.589,25.051c0,0,4.86,12.993,3.832,22.807l-2.459,23.912a34.585,34.585,0,0,0-.156,4.852c.175,4.568.513,14.437.372,18.814-.187,5.8-2.43,23.181-3.552,27.014s-1.683,9.067,1.4,12.9-7.384,2.9-9.067,2.057,1.776-5.515,1.9-10.314-1.87-25.3-1.5-33.837a86.14,86.14,0,0,0-1.994-22.371c-1.246-4.923-2.7-22.247-2.7-22.247Z" transform="translate(-679.717 -36.365)" fill="#2d2f3a"/>
      </g>
    </g>
    <g id="Group_39528" data-name="Group 39528" transform="translate(272.009 637.176)">
      <path id="Path_25105" data-name="Path 25105" d="M-34.516,36.357h6.78l29.689-.011c3.175,0,6.351-.029,9.526.008.8.009.989-.24.988-1.021q-.039-18.3-.02-36.609,0-29.783,0-59.566,0-30.385,0-60.77,0-20.756.019-41.512a2.661,2.661,0,0,1,2.688-2.854,2.686,2.686,0,0,1,2.758,2.8q.015,15.4.006,30.792,0,4.26,0,8.52,0,24.072,0,48.144,0,31.434,0,62.868,0,24.019-.03,48.038c0,1.016.305,1.182,1.225,1.179,9.861-.035,19.723-.027,29.584-.029,2.408,0,3.82,1.674,3.1,3.691a2.594,2.594,0,0,1-2.4,1.811c-.6.047-1.2.01-1.8.01H-29.641q-42.973,0-85.946.037c-2.666.005-3.761-2.18-3.144-3.7a2.6,2.6,0,0,1,2.2-1.8,12.351,12.351,0,0,1,1.4-.047q23.87,0,47.739,0h.937m12.236-.023h7.445" transform="translate(0 0)" fill="#f10000"/>
      <path id="Path_25106" data-name="Path 25106" d="M614.274,343.7c-3.408,0-6.817.016-10.226-.007a2.759,2.759,0,0,1-1.24-5.27,3.866,3.866,0,0,1,1.567-.27q10.025.007,20.051,0c1.889,0,3.145,1.1,3.165,2.736.021,1.685-1.25,2.81-3.191,2.812q-5.063.007-10.127,0Z" transform="translate(-575.614 -402.994)" fill="#f10000"/>
      <path id="Path_25107" data-name="Path 25107" d="M614.394,175.8c-3.409,0-6.819.017-10.228-.006a2.764,2.764,0,0,1-2.772-3.8,2.836,2.836,0,0,1,2.884-1.743q8.924,0,17.849.006c.869,0,1.739-.031,2.606,0a2.771,2.771,0,1,1-.012,5.537c-3.442.027-6.884.008-10.327.008Z" transform="translate(-575.628 -268.766)" fill="#f10000"/>
      <path id="Path_25108" data-name="Path 25108" d="M614.424,511.588c-3.408,0-6.816.021-10.224-.008a2.732,2.732,0,0,1-2.621-4,2.583,2.583,0,0,1,2.5-1.53q10.377-.027,20.754,0a2.767,2.767,0,1,1-.083,5.529C621.309,511.608,617.867,511.589,614.424,511.588Z" transform="translate(-575.693 -537.198)" fill="#f10000"/>
      <path id="Path_25109" data-name="Path 25109" d="M614.466,7.809c-3.476,0-6.952.015-10.429-.009a2.628,2.628,0,0,1-2.676-2.12,2.726,2.726,0,0,1,1.251-3.012,3.635,3.635,0,0,1,1.935-.417q9.977-.013,19.955,0a2.86,2.86,0,0,1,3.157,2.45,2.77,2.77,0,0,1-1.879,2.966,3.785,3.785,0,0,1-1.287.142Q619.479,7.811,614.466,7.809Z" transform="translate(-575.696 -134.475)" fill="#f10000"/>
      <path id="Path_25110" data-name="Path 25110" d="M614.416,673.962q4.963,0,9.927,0c1.923,0,3.158,1.058,3.187,2.7.03,1.678-1.228,2.843-3.171,2.848q-8.873.022-17.746-.006a18.11,18.11,0,0,1-3.1-.066,2.787,2.787,0,0,1-2.419-2.756,2.725,2.725,0,0,1,2.7-2.7c2.371-.065,4.745-.023,7.118-.026Q612.661,673.959,614.416,673.962Z" transform="translate(-575.55 -671.427)" fill="#f10000"/>
      <path id="Path_25111" data-name="Path 25111" d="M609.99,259.746q-2.855,0-5.709,0a2.8,2.8,0,1,1-.021-5.56c3.806,0,7.612-.006,11.418.006a2.78,2.78,0,1,1,.223,5.544C613.93,259.768,611.96,259.744,609.99,259.746Z" transform="translate(-575.574 -335.873)" fill="#f10000"/>
      <path id="Path_25112" data-name="Path 25112" d="M609.938,422.08c1.937,0,3.873-.01,5.809,0a2.784,2.784,0,1,1-.019,5.548q-5.759.024-11.519.006a2.8,2.8,0,1,1,.02-5.559c1.9-.005,3.807,0,5.71,0Z" transform="translate(-575.573 -470.082)" fill="#f10000"/>
      <path id="Path_25113" data-name="Path 25113" d="M610,590.015c1.936,0,3.872-.009,5.808,0a2.746,2.746,0,0,1,2.933,2.745,2.686,2.686,0,0,1-2.8,2.766q-6.008.054-12.017,0a2.747,2.747,0,0,1-2.813-2.781,2.8,2.8,0,0,1,2.88-2.732c2-.025,4.006-.006,6.009-.006Z" transform="translate(-575.566 -604.321)" fill="#f10000"/>
      <path id="Path_25114" data-name="Path 25114" d="M610.02,757.961c1.9,0,3.805-.008,5.708,0a2.756,2.756,0,0,1,3.014,2.663,2.719,2.719,0,0,1-2.922,2.86q-5.858.059-11.716-.007a2.779,2.779,0,0,1-2.99-2.809,2.83,2.83,0,0,1,3.1-2.71C606.148,757.954,608.084,757.96,610.02,757.961Z" transform="translate(-575.566 -738.582)" fill="#f10000"/>
      <path id="Path_25115" data-name="Path 25115" d="M609.991-76.1c-1.935,0-3.87.008-5.806,0a2.82,2.82,0,0,1-3.07-2.739,2.764,2.764,0,0,1,2.922-2.775q5.907-.07,11.815-.01a2.712,2.712,0,0,1,2.893,2.789A2.759,2.759,0,0,1,615.7-76.1C613.8-76.091,611.894-76.1,609.991-76.1Z" transform="translate(-575.569 -67.411)" fill="#f10000"/>
      <path id="Path_25116" data-name="Path 25116" d="M609.818,91.876c-1.9,0-3.806.024-5.708-.007a2.765,2.765,0,1,1,.008-5.511q5.807-.025,11.614,0a2.77,2.77,0,1,1-.007,5.518c-1.969.007-3.939,0-5.908,0Z" transform="translate(-575.569 -201.707)" fill="#f10000"/>
    </g>
  </g>
</svg>
