<svg xmlns="http://www.w3.org/2000/svg" xmlns:xlink="http://www.w3.org/1999/xlink" width="145.912" height="114.32" viewBox="0 0 145.912 114.32">
  <defs>
    <linearGradient id="linear-gradient" x1="1.379" y1="-1.245" x2="0.124" y2="1.219" gradientUnits="objectBoundingBox">
      <stop offset="0" stop-color="#f10000"/>
      <stop offset="1" stop-color="#ffcd00"/>
    </linearGradient>
    <linearGradient id="linear-gradient-2" x1="0.5" y1="0" x2="0.5" y2="1" xlink:href="#linear-gradient"/>
    <linearGradient id="linear-gradient-3" x1="0.5" y1="-0.701" x2="0.5" y2="1" xlink:href="#linear-gradient"/>
    <linearGradient id="linear-gradient-4" x1="0.5" y1="0" x2="0.5" y2="0.932" xlink:href="#linear-gradient"/>
    <linearGradient id="linear-gradient-6" x1="0.5" y1="-1.181" x2="0.478" y2="1.116" xlink:href="#linear-gradient"/>
    <linearGradient id="linear-gradient-7" x1="0.5" y1="-1.856" x2="0.463" y2="1.276" xlink:href="#linear-gradient"/>
    <linearGradient id="linear-gradient-9" x1="0.5" y1="-1.109" x2="0.265" y2="1.176" xlink:href="#linear-gradient"/>
    <linearGradient id="linear-gradient-10" x1="0.5" y1="-1.364" x2="0.5" y2="1" xlink:href="#linear-gradient"/>
  </defs>
  <g id="Group_39873" data-name="Group 39873" transform="translate(-42.285 -84.815)">
    <g id="Shadows" transform="translate(44.285 116.449)">
      <path id="Shadow" d="M44.285,203.77l97.709,56.412L187.5,233.908,89.793,177.5Z" transform="translate(-44.285 -177.496)" fill="#e0e0e0"/>
      <ellipse id="Shadow-2" data-name="Shadow" cx="6.649" cy="3.839" rx="6.649" ry="3.839" transform="translate(1.725 43.413)" fill="#e0e0e0"/>
      <ellipse id="Shadow-3" data-name="Shadow" cx="15.526" cy="8.964" rx="15.526" ry="8.964" transform="translate(91.561 3.302)" fill="#e0e0e0"/>
    </g>
    <g id="Ball" transform="translate(123.694 84.815)">
      <g id="Ball-2" data-name="Ball" transform="translate(0 0)">
        <circle id="Ellipse_4034" data-name="Ellipse 4034" cx="19.571" cy="19.571" r="19.571" transform="translate(0 27.678) rotate(-45)" fill="url(#linear-gradient)"/>
        <circle id="Ellipse_4035" data-name="Ellipse 4035" cx="19.571" cy="19.571" r="19.571" transform="translate(-0.056 27.678) rotate(-45)" opacity="0.13"/>
        <path id="Path_25866" data-name="Path 25866" d="M336.8,114.711c-1.827.894-3.634,2.544-3.459,4.57a4.158,4.158,0,0,0,1.625,2.76,12.353,12.353,0,0,0,2.871,1.587l10.3,4.55a12.208,12.208,0,0,0,3.14,1.058,4.115,4.115,0,0,0,3.153-.707c1.4-1.123,1.537-3.214,1.2-4.977C354,115.065,344.329,111.024,336.8,114.711Z" transform="translate(-314.082 -103.606)" fill="#fff" opacity="0.1"/>
        <g id="Group_39861" data-name="Group 39861" transform="translate(8.127 8.109)" opacity="0.2">
          <path id="Path_25867" data-name="Path 25867" d="M331.524,112.959a3.058,3.058,0,0,0,2.256,2.126,9.318,9.318,0,0,0,8.256-1.657,3.057,3.057,0,0,0,1.26-2.833,2.911,2.911,0,0,0-1.952-2.009c-.418-.017-.838-.019-1.26-.009a6.14,6.14,0,0,1,.847.214,2.348,2.348,0,0,1,.879,4.38,8.943,8.943,0,0,1-7.921,1.59,2.348,2.348,0,0,1-.879-4.38,6.321,6.321,0,0,1,.914-.659c-.418.149-.827.314-1.23.49A3,3,0,0,0,331.524,112.959Z" transform="translate(-320.992 -108.572)"/>
          <path id="Path_25868" data-name="Path 25868" d="M305.548,189l-.032-.07h0Z" transform="translate(-303.889 -161.5)"/>
          <path id="Path_25869" data-name="Path 25869" d="M409.479,140.573c.029.06.06.12.089.181Z" transform="translate(-372.367 -129.65)"/>
          <path id="Path_25870" data-name="Path 25870" d="M306.3,190.671c.044.094.092.185.138.277C306.4,190.856,306.349,190.764,306.3,190.671Z" transform="translate(-304.409 -162.649)"/>
          <path id="Path_25871" data-name="Path 25871" d="M348.149,184.028a13.461,13.461,0,0,1-2.979,3.6c-6.385,5.616-18.131,7.975-26.189,5.258a13.462,13.462,0,0,1-4.139-2.172c.359.41.732.806,1.123,1.184a15.293,15.293,0,0,0,2.907,1.309,29.946,29.946,0,0,0,26.524-5.325,15.415,15.415,0,0,0,2.176-2.331Q347.892,184.8,348.149,184.028Z" transform="translate(-310.031 -158.273)"/>
          <path id="Path_25872" data-name="Path 25872" d="M336.405,163.661c-6.715,5.912-19.077,8.394-27.554,5.532-3.222-1.085-5.5-2.807-6.6-4.943.091.386.191.767.3,1.142h0a12.342,12.342,0,0,0,6.193,4.125,31.48,31.48,0,0,0,27.889-5.6,12.318,12.318,0,0,0,4.119-6.2c-.041-.386-.1-.774-.16-1.162C340.4,158.95,338.955,161.418,336.405,163.661Z" transform="translate(-301.735 -140.177)"/>
          <path id="Path_25873" data-name="Path 25873" d="M415.276,168.843c0,.079-.01.157-.015.236C415.266,169,415.273,168.922,415.276,168.843Z" transform="translate(-376.176 -148.271)"/>
          <path id="Path_25874" data-name="Path 25874" d="M391.722,119.518l.176.128C391.84,119.6,391.781,119.56,391.722,119.518Z" transform="translate(-360.671 -115.782)"/>
          <path id="Path_25875" data-name="Path 25875" d="M310.031,137.52a26.275,26.275,0,0,0,23.278-4.673c2.344-2.063,3.59-4.357,3.611-6.575-.115-.124-.235-.244-.353-.365.123,2.23-1.086,4.574-3.483,6.684-5.592,4.922-15.884,6.988-22.943,4.606-3.026-1.021-5.046-2.717-5.794-4.821-.062.157-.126.314-.185.473C305.038,134.887,307.073,136.522,310.031,137.52Z" transform="translate(-302.997 -119.99)"/>
          <path id="Path_25876" data-name="Path 25876" d="M300.945,144.711c.857,2.484,3.213,4.472,6.727,5.657a29.326,29.326,0,0,0,26-5.219c2.788-2.452,4.19-5.2,4.02-7.82q-.214-.4-.447-.789c.545,2.749-.8,5.716-3.8,8.355-6.255,5.5-17.766,7.814-25.66,5.152-3.779-1.276-6.169-3.488-6.73-6.233q-.063.445-.107.894Z" transform="translate(-300.877 -126.994)"/>
          <path id="Path_25877" data-name="Path 25877" d="M300.749,162.486c.006-.127.014-.254.023-.381C300.763,162.232,300.755,162.359,300.749,162.486Z" transform="translate(-300.749 -143.833)"/>
          <path id="Path_25878" data-name="Path 25878" d="M389.768,118.158l-.172-.116Z" transform="translate(-359.271 -114.81)"/>
          <path id="Path_25879" data-name="Path 25879" d="M317.269,124.813a20.081,20.081,0,0,0,17.789-3.572c1.967-1.731,2.927-3.677,2.748-5.528-.124-.071-.246-.143-.372-.211.284,1.81-.632,3.749-2.6,5.483-4.254,3.745-12.084,5.316-17.454,3.5-2.486-.839-4.079-2.275-4.516-4.054-.089.111-.175.225-.261.338C313.15,122.551,314.786,123.975,317.269,124.813Z" transform="translate(-308.556 -113.137)"/>
          <path id="Path_25880" data-name="Path 25880" d="M308.691,136.266c.045-.076.091-.151.138-.227C308.783,136.115,308.736,136.19,308.691,136.266Z" transform="translate(-305.98 -126.664)"/>
          <path id="Path_25881" data-name="Path 25881" d="M310.2,133.89c-.047.07-.093.141-.139.211C310.108,134.03,310.154,133.96,310.2,133.89Z" transform="translate(-306.883 -125.248)"/>
        </g>
        <path id="Path_25882" data-name="Path 25882" d="M315.269,160.115c-11.657-4.476-13.4-13.077-12.478-20.012l-.006,0a19.571,19.571,0,1,0,36.933,10.912C338.823,157.019,326.919,164.589,315.269,160.115Z" transform="translate(-292.579 -121.23)" opacity="0.1"/>
      </g>
    </g>
    <g id="Mat" transform="translate(44.285 113.994)">
      <g id="Mat-2" data-name="Mat">
        <path id="Path_25883" data-name="Path 25883" d="M44.285,196.577l97.709,56.412L187.5,226.715,89.793,170.3Z" transform="translate(-44.285 -171.303)" fill="url(#linear-gradient-2)"/>
        <path id="Path_25884" data-name="Path 25884" d="M44.285,196.527l99.548,56.3L190.2,226.607,90.65,170.3Z" transform="translate(-46.285 -172.303)" fill="#fff" opacity="0.8"/>
        <path id="Path_25885" data-name="Path 25885" d="M173.144,240.643a10.249,10.249,0,0,1,3.072.683,13.634,13.634,0,0,1,1.707,1.365,8.906,8.906,0,0,0,6.144,2.389c2.158.05,7.145-1.37,7.176-4.173.026-1.748-1.922-2.746-3.54-3.405a57.452,57.452,0,0,1-23.422-17.688c-2.285-2.919-4.385-6.152-7.574-8.042a26.164,26.164,0,0,0-6.648-2.388,130.491,130.491,0,0,1-35.248-15.39,44.028,44.028,0,0,0,4.165-12.651c-2.655-.929-5.225,1.367-7.844,2.393a11.564,11.564,0,0,1-6.148.457l-8.694,5.02c.36,1.278.94,2.519,1.338,3.793.6,1.938.669,4.339-.843,5.693a6.606,6.606,0,0,1-3.223,1.261l-4.8.948c-1.367.27-2.941.7-3.474,1.99-.652,1.575.734,3.253,2.186,4.145,2.707,1.661,5.932,2.2,8.916,3.285,6.994,2.552,12.468,8.057,18.981,11.661a38.392,38.392,0,0,0,14.66,4.588c5.313.54,10.73-.032,15.972.989,4.117.8,8.311,1.927,12.348,3.143a25.55,25.55,0,0,1,6.237,2.7,15.293,15.293,0,0,1,2.693,2.118,27.629,27.629,0,0,1,2,2.666A6.078,6.078,0,0,0,173.144,240.643Z" transform="translate(-71.187 -177.432)" opacity="0.05"/>
        <path id="Path_25886" data-name="Path 25886" d="M44.285,247.281v.887l97.709,56.412v-.887Z" transform="translate(-44.285 -221.007)" fill="#27debf"/>
        <path id="Path_25887" data-name="Path 25887" d="M44.285,247.281v.887l97.709,56.412v-.887Z" transform="translate(-44.285 -221.007)" fill="#fff" opacity="0.6"/>
        <path id="Path_25888" data-name="Path 25888" d="M330.553,361.854l45.508-26.274v.887l-45.508,26.274Z" transform="translate(-232.845 -279.168)" fill="#27debf"/>
        <path id="Path_25889" data-name="Path 25889" d="M330.553,361.854l45.508-26.274v.887l-45.508,26.274Z" transform="translate(-232.845 -279.168)" fill="#fff" opacity="0.45"/>
      </g>
    </g>
    <g id="Bottle" transform="translate(47.812 140.909)">
      <g id="Water">
        <g id="Group_39863" data-name="Group 39863" transform="translate(0 0.561)">
          <path id="Path_25890" data-name="Path 25890" d="M64.147,266.572a10.927,10.927,0,0,0-.778-2.009c-.033-.073-.069-.146-.106-.219a4.117,4.117,0,0,1,.056-3.879l.069-.124a4.388,4.388,0,0,0,.6-2.284,2.694,2.694,0,0,0-1.3-2.159,4.26,4.26,0,0,0-.6-.294,1.033,1.033,0,0,1-.656-.958l0-1.183-3.786-.015,0,1.183a1.033,1.033,0,0,1-.663.953,4.3,4.3,0,0,0-.608.289,2.694,2.694,0,0,0-1.32,2.149,4.393,4.393,0,0,0,.583,2.289l.063.116a4.125,4.125,0,0,1,.032,3.888q-.056.109-.107.218a10.756,10.756,0,0,0-.794,2,9.458,9.458,0,0,0-.185,2.037l-.021,5.508a2.4,2.4,0,0,0,1.407,1.978,6.616,6.616,0,0,0,2.736.8,8.308,8.308,0,0,0,1.367.005,6.639,6.639,0,0,0,2.724-.777,2.4,2.4,0,0,0,1.422-1.965l.016-3.983c0-.5.021-1.015.023-1.534A9.386,9.386,0,0,0,64.147,266.572Z" transform="translate(-54.619 -252.546)" fill="url(#linear-gradient-3)"/>
          <path id="Path_25891" data-name="Path 25891" d="M64.147,266.572a10.927,10.927,0,0,0-.778-2.009c-.033-.073-.069-.146-.106-.219a4.117,4.117,0,0,1,.056-3.879l.069-.124a4.388,4.388,0,0,0,.6-2.284,2.694,2.694,0,0,0-1.3-2.159,4.26,4.26,0,0,0-.6-.294,1.033,1.033,0,0,1-.656-.958l0-1.183-3.786-.015,0,1.183a1.033,1.033,0,0,1-.663.953,4.3,4.3,0,0,0-.608.289,2.694,2.694,0,0,0-1.32,2.149,4.393,4.393,0,0,0,.583,2.289l.063.116a4.125,4.125,0,0,1,.032,3.888q-.056.109-.107.218a10.756,10.756,0,0,0-.794,2,9.458,9.458,0,0,0-.185,2.037l-.021,5.508a2.4,2.4,0,0,0,1.407,1.978,6.616,6.616,0,0,0,2.736.8,8.308,8.308,0,0,0,1.367.005,6.639,6.639,0,0,0,2.724-.777,2.4,2.4,0,0,0,1.422-1.965l.016-3.983c0-.5.021-1.015.023-1.534A9.386,9.386,0,0,0,64.147,266.572Z" transform="translate(-54.619 -252.546)" opacity="0.3"/>
          <path id="Path_25892" data-name="Path 25892" d="M74.579,270.036l.069-.124a4.374,4.374,0,0,0,.589-1.933,3.54,3.54,0,0,1-.359.782,7.456,7.456,0,0,1-1.706,1.78,3.235,3.235,0,0,0-1.45,1.965,2.43,2.43,0,0,0,1.138,2.027,19.625,19.625,0,0,1,1.986,1.395,4.85,4.85,0,0,1,.659.824c-.025-.206-.054-.41-.1-.608a10.928,10.928,0,0,0-.778-2.009q-.05-.109-.106-.219A4.117,4.117,0,0,1,74.579,270.036Z" transform="translate(-65.88 -262.117)" opacity="0.1"/>
          <g id="Group_39862" data-name="Group 39862" transform="translate(2.382)">
            <path id="Path_25893" data-name="Path 25893" d="M61.6,254.461l0,.637a1.278,1.278,0,0,0,.75,1.056,4.022,4.022,0,0,0,3.636.014,1.734,1.734,0,0,0,.566-.489.961.961,0,0,0,.189-.556l0-.646a.672.672,0,0,0-.019-.172,1.376,1.376,0,0,0-.728-.881.22.22,0,0,0-.037-.02,4.03,4.03,0,0,0-3.6.006,1.382,1.382,0,0,0-.737.873A.735.735,0,0,0,61.6,254.461Z" transform="translate(-61.597 -252.238)" fill="url(#linear-gradient-4)"/>
            <path id="Path_25894" data-name="Path 25894" d="M61.6,254.461l0,.637a1.278,1.278,0,0,0,.75,1.056,4.022,4.022,0,0,0,3.636.014,1.734,1.734,0,0,0,.566-.489.961.961,0,0,0,.189-.556l0-.646a.672.672,0,0,0-.019-.172,1.376,1.376,0,0,0-.728-.881.22.22,0,0,0-.037-.02,4.03,4.03,0,0,0-3.6.006,1.382,1.382,0,0,0-.737.873A.735.735,0,0,0,61.6,254.461Z" transform="translate(-61.597 -252.238)" opacity="0.1"/>
            <path id="Path_25895" data-name="Path 25895" d="M65.99,255.522a1.108,1.108,0,0,0,.008-2.1,4.019,4.019,0,0,0-3.636-.014,1.108,1.108,0,0,0-.008,2.1A4.018,4.018,0,0,0,65.99,255.522Z" transform="translate(-61.603 -252.238)" opacity="0.2"/>
            <path id="Path_25896" data-name="Path 25896" d="M61.61,252.284v.383a.733.733,0,0,0,.019.18,1.381,1.381,0,0,0,.73.879,3.572,3.572,0,0,0,1.606.433,3.8,3.8,0,0,0,2.031-.422,1.755,1.755,0,0,0,.566-.487.971.971,0,0,0,.169-.381.71.71,0,0,0,.02-.175v-.4A1.274,1.274,0,0,0,66,251.246c-.045-.025-.09-.05-.137-.073a4.045,4.045,0,0,0-3.5.059A1.278,1.278,0,0,0,61.61,252.284Z" transform="translate(-61.605 -250.804)" fill="url(#linear-gradient-4)"/>
            <path id="Path_25897" data-name="Path 25897" d="M61.61,252.284v.383a.733.733,0,0,0,.019.18,1.381,1.381,0,0,0,.73.879,3.572,3.572,0,0,0,1.606.433,3.8,3.8,0,0,0,2.031-.422,1.755,1.755,0,0,0,.566-.487.971.971,0,0,0,.169-.381.71.71,0,0,0,.02-.175v-.4A1.274,1.274,0,0,0,66,251.246c-.045-.025-.09-.05-.137-.073a4.045,4.045,0,0,0-3.5.059A1.278,1.278,0,0,0,61.61,252.284Z" transform="translate(-61.605 -250.804)" opacity="0.1"/>
            <path id="Path_25898" data-name="Path 25898" d="M61.613,252.272c0,.816,1.145,1.482,2.565,1.488s2.573-.652,2.576-1.468-1.145-1.482-2.565-1.488S61.616,251.456,61.613,252.272Z" transform="translate(-61.607 -250.804)" fill="url(#linear-gradient-6)"/>
          </g>
        </g>
        <path id="Path_25899" data-name="Path 25899" d="M66.542,249.672,66.537,251a.242.242,0,0,0,.006.062.479.479,0,0,0,.253.3,1.236,1.236,0,0,0,.556.15,1.316,1.316,0,0,0,.7-.146.6.6,0,0,0,.2-.169.341.341,0,0,0,.058-.132.229.229,0,0,0,.007-.061l.005-1.335a.441.441,0,0,0-.259-.365l-.047-.025a1.4,1.4,0,0,0-1.213.02A.443.443,0,0,0,66.542,249.672Z" transform="translate(-62.469 -249.159)" fill="url(#linear-gradient-7)"/>
        <path id="Path_25900" data-name="Path 25900" d="M66.542,249.672,66.537,251a.242.242,0,0,0,.006.062.479.479,0,0,0,.253.3,1.236,1.236,0,0,0,.556.15,1.316,1.316,0,0,0,.7-.146.6.6,0,0,0,.2-.169.341.341,0,0,0,.058-.132.229.229,0,0,0,.007-.061l.005-1.335a.441.441,0,0,0-.259-.365l-.047-.025a1.4,1.4,0,0,0-1.213.02A.443.443,0,0,0,66.542,249.672Z" transform="translate(-62.469 -249.159)" opacity="0.1"/>
        <path id="Path_25901" data-name="Path 25901" d="M66.552,249.668c0,.283.4.514.889.516s.892-.226.893-.509-.4-.514-.889-.516S66.553,249.385,66.552,249.668Z" transform="translate(-62.479 -249.159)" fill="url(#linear-gradient-6)"/>
        <path id="Path_25902" data-name="Path 25902" d="M68.235,250.308c0,.1.141.182.316.183s.316-.08.317-.181-.141-.182-.315-.183S68.235,250.207,68.235,250.308Z" transform="translate(-63.588 -249.797)" fill="#ffcd00" opacity="0.5"/>
        <path id="Path_25903" data-name="Path 25903" d="M68.235,250.308c0,.1.141.182.316.183s.316-.08.317-.181-.141-.182-.315-.183S68.235,250.207,68.235,250.308Z" transform="translate(-63.587 -249.797)" opacity="0.3"/>
      </g>
    </g>
    <g id="Character" transform="translate(49.494 101.68)">
      <g id="Character-2" data-name="Character" transform="translate(0 0)">
        <path id="Path_25904" data-name="Path 25904" d="M154.885,164.622s2.358-19.167,1.825-26.168c-.273-3.59-2.01-4.4-4.664-4.2s-17.843,8.277-17.843,8.277l2.148,5.223L149,143.785s-1.286,7.457-1.584,8.875-.919,3.325-1.413,5.036a12.836,12.836,0,0,0-.58,2.463C145.428,161.406,154.885,164.622,154.885,164.622Z" transform="translate(-108.721 -134.225)" fill="#ffa8a7"/>
        <path id="Path_25905" data-name="Path 25905" d="M177.126,157.966a7.232,7.232,0,0,0,4.072-2.211,3.853,3.853,0,0,1-1.76,2.211,15.166,15.166,0,0,1-2.54,1.316Z" transform="translate(-136.844 -148.406)" fill="#f28f8f"/>
        <path id="Path_25906" data-name="Path 25906" d="M232.3,216.071c-.264-.977-1.978-2-7.084-2.862s-9.751.006-9.777.6,1.259,4.645,7.146,5.38S232.837,218.213,232.3,216.071Z" transform="translate(-162.228 -186.013)" fill="#263238"/>
        <g id="Character-3" data-name="Character" transform="translate(0 1.358)">
          <path id="Path_25907" data-name="Path 25907" d="M214.247,183s-3.328-21.587-2.849-25.995c.495-4.551,2.222-6.665,5.115-6.962,3.785,2.2,5.8,7.452,8.222,12.624s5.043,16.284,5.181,21.59c.138,5.281-4.057,9.089-8.812,9.78S214.247,183,214.247,183Z" transform="translate(-159.537 -146.002)" fill="#ffa8a7"/>
          <path id="Path_25908" data-name="Path 25908" d="M229.521,184.39a8.161,8.161,0,0,1-2.921-4.924l4.746-1.656,3.212,2.672.1.206.124.269c.092.2.184.4.276.616.027.061.053.124.079.187q.107.249.212.512c.024.059.048.118.072.178.094.236.188.478.282.728l0,.009c.093.248.186.505.278.766.02.055.039.111.059.167q.123.351.245.715l.036.107c.193.579.382,1.179.569,1.8l.03.1q.137.455.27.919l0,.006A17.447,17.447,0,0,1,229.521,184.39Z" transform="translate(-169.581 -164.291)" fill="#f28f8f"/>
          <path id="Path_25909" data-name="Path 25909" d="M221.788,150.251c1.808-.715,4.011.955,5.174,1.7,2.365,1.515,16.827,12.786,20.2,15.427.731.442,1.476.868,2.233,1.272l-3.973,6.212a6.778,6.778,0,0,0-1.5-2.4c-3.605-2.573-10.589-3.976-15.073-5.723-3.493-1.361-4.225-2.13-5.4-4.126C222.531,161.061,219.277,151.433,221.788,150.251Z" transform="translate(-165.798 -146.024)" fill="#ffa8a7"/>
          <path id="Path_25910" data-name="Path 25910" d="M216.866,226.345l-1.428-10.674s1.282,2.945,7.889,3.718,9.139-.345,8.972-1.459c0,0,1.726,6.681,1.058,11.024s-7.294,8.964-7.294,8.964Z" transform="translate(-162.229 -189.23)" fill="#37474f"/>
          <path id="Path_25911" data-name="Path 25911" d="M224.882,234.583c-.607.012-1.176.038-1.717.072l7.344,9.241h1.715c1.9-1.513,5.724-4.911,6.223-8.154.49-3.184-.307-7.622-.767-9.766C237.943,228.435,232.433,234.435,224.882,234.583Z" transform="translate(-167.319 -196.017)" opacity="0.15"/>
          <g id="Group_39864" data-name="Group 39864" transform="translate(77.933 13.518)">
            <path id="Path_25912" data-name="Path 25912" d="M300.589,177.92c-2.377-.443-3.5,1.279-4.382,2.7s-2.354,4.035-3.012,4.476-1.039-.009-1.964.708-1.624,2.033-1.335,2.535l.685,1.186a2.53,2.53,0,0,0-2.127.8c-1.021,1.015-.491,1.2.086,1.775s1.93,3.2,3.289,3.917a12.672,12.672,0,0,0,6.312-5.246C300.8,186.627,300.589,177.92,300.589,177.92Z" transform="translate(-287.876 -177.836)" fill="url(#linear-gradient-9)"/>
            <path id="Path_25913" data-name="Path 25913" d="M300.011,196.543a1.013,1.013,0,0,1-.808-1.278,12.539,12.539,0,0,1,1.807-3.572c.92-1.3,2.64-3.743,2.931-5.095s.914-5.1,1.934-6.673,2.07-2.481,3.419-1.974-2.9,10.591-4.147,12.3S300.011,196.543,300.011,196.543Z" transform="translate(-295.312 -177.81)" fill="#37474f"/>
            <path id="Path_25914" data-name="Path 25914" d="M302.094,196.576a10.515,10.515,0,0,0,5.449-5.791c.98-2.257,3.314-4.365,3.913-6.4s.664-7.264-1.648-6-2.79,5.939-3.806,8.639S298.8,198.334,302.094,196.576Z" transform="translate(-296.61 -178.06)" fill="#263238"/>
          </g>
          <path id="Path_25915" data-name="Path 25915" d="M239.231,248.179c1.537-.233,4.49.4,7.17,4.142,2.878,4.017,3.418,11.028,1.609,11.6a24.352,24.352,0,0,1-7.059-2C238.078,260.418,233.245,250.241,239.231,248.179Z" transform="translate(-176.019 -210.614)" fill="#263238"/>
          <g id="Group_39865" data-name="Group 39865" transform="translate(41.616 37.073)">
            <path id="Path_25916" data-name="Path 25916" d="M252.154,280.748a31.562,31.562,0,0,1-11.271-8.125c-2.538-3.45-13.419-18.212-15.308-20.29-.67-.737-2.3-2.634-4.542-3.11-7.94-1.687-22.64-1.452-22.64-1.452l-5.652-.952-11.269,10.6A22.852,22.852,0,0,0,187.825,262a17.458,17.458,0,0,0,10.09,2.211c8.321-.7,13.306-3.055,17.768-4.1,1.288-.3,2.627-.577,3.64,1.539,1,2.089,1.1,3.177,4.095,5.426,3.849,2.888,10.2,6.117,12.979,9.565a6.779,6.779,0,0,1,.8,2.717c.262,3.625,3.307,2.914,5.762,4.492,1.335.858,2.33,1.9,3.942,2.259a10.108,10.108,0,0,0,4.43-.082c1.309-.312,3.187-1.256,3.832-2.532C256.015,281.811,253.433,281.25,252.154,280.748Z" transform="translate(-181.473 -246.819)" fill="#ffa8a7"/>
          </g>
          <g id="Group_39866" data-name="Group 39866" transform="translate(41.616 37.073)">
            <path id="Path_25917" data-name="Path 25917" d="M252.154,280.748a31.562,31.562,0,0,1-11.271-8.125c-2.538-3.45-13.419-18.212-15.308-20.29-.67-.737-2.3-2.634-4.542-3.11-7.94-1.687-22.64-1.452-22.64-1.452l-5.652-.952-11.269,10.6A22.852,22.852,0,0,0,187.825,262a17.458,17.458,0,0,0,10.09,2.211c8.321-.7,13.306-3.055,17.768-4.1,1.288-.3,2.627-.577,3.64,1.539,1,2.089,1.1,3.177,4.095,5.426,3.849,2.888,10.2,6.117,12.979,9.565a6.779,6.779,0,0,1,.8,2.717c.262,3.625,3.307,2.914,5.762,4.492,1.335.858,2.33,1.9,3.942,2.259a10.108,10.108,0,0,0,4.43-.082c1.309-.312,3.187-1.256,3.832-2.532C256.015,281.811,253.433,281.25,252.154,280.748Z" transform="translate(-181.473 -246.819)" fill="#ffa8a7"/>
          </g>
          <path id="Path_25918" data-name="Path 25918" d="M266.511,287.583a9.1,9.1,0,0,1-1.883-3.237,17.756,17.756,0,0,0-1.176-2.9c-1.386-2.4-10.572.659-14.653,1.908a12.523,12.523,0,0,0-1.526,2.218c4.933-1.006,8.483-2.471,11.751-3.234,1.288-.3,2.627-.577,3.64,1.539,1,2.089,1.1,3.177,4.095,5.426,1.564,1.174,3.541,2.4,5.524,3.682A52.628,52.628,0,0,1,266.511,287.583Z" transform="translate(-183.198 -231.963)" fill="#f28f8f"/>
          <path id="Path_25919" data-name="Path 25919" d="M193.617,246.819s8.08.394,9.452.492c0,0-3.039.822.66,8.3s8.119,7.439,8.119,7.439c-5.8,1.855-8.816,3.941-16.212,3.07a24.3,24.3,0,0,1-14.163-7.875Z" transform="translate(-139.857 -209.746)" fill="#455a64"/>
          <path id="Path_25920" data-name="Path 25920" d="M211.827,283.031h-.01c-.035,0-.1-.005-.2-.016h-.006a8.225,8.225,0,0,1-4.811-2.844h0a46.31,46.31,0,0,1-5.281,1.112c-6.593.966-11.54-.2-18.908-4.125l-1.137,1.07a24.772,24.772,0,0,0,10.868,7.12h0q.386.121.784.23l.006,0c.248.068.5.131.755.19l.066.016c.234.054.472.1.712.149l.126.026q.418.078.847.141.693.081,1.337.129t1.245.065q.3.008.592.01t.572,0c.563-.012,1.1-.044,1.615-.095q.516-.051,1.005-.125a21.066,21.066,0,0,0,2.339-.492c.3-.081.6-.167.894-.257.74-.226,1.471-.48,2.221-.751l.911-.332c1.078-.395,2.213-.811,3.482-1.217Z" transform="translate(-139.857 -229.729)" opacity="0.15"/>
          <g id="Group_39871" data-name="Group 39871">
            <path id="Path_25921" data-name="Path 25921" d="M128.743,210.389c-3.285,1.141-6.388,3.132-3.774,8.966,3.774,8.423,20.773,17.777,29.512,19.764-4.45-6.714-.745-13.831,2.151-18.5l-.763-5.7a44.308,44.308,0,0,1-6.964-4.616c-4.342-3.357-6.128-4.265-12.6-2.3C131.862,209.344,128.743,210.389,128.743,210.389Z" transform="translate(-101.995 -183.499)" fill="url(#linear-gradient-10)"/>
            <path id="Path_25922" data-name="Path 25922" d="M143.018,245.631c-8.936-5.129-11.745-9.679-15.251-14.058l-2.293,2.8h0c.062.181.131.367.205.556l.012.031c.077.2.161.4.254.6,1.651,3.685,5.833,7.549,10.748,10.9q1.053.717,2.146,1.4.545.341,1.1.673a73.323,73.323,0,0,0,7.754,4.054,43.75,43.75,0,0,0,7.768,2.742,12.092,12.092,0,0,1-1.9-4.8A51.942,51.942,0,0,1,143.018,245.631Z" transform="translate(-102.972 -199.704)" opacity="0.05"/>
            <path id="Path_25923" data-name="Path 25923" d="M83.826,186.25s-11.021-5.891-12.765-6.684l9.63-5.663-2.045-5.313s-14.349,5.1-17.059,6.56c-1.428.772-2.038,1.412-2.041,2.511-.005,1.832,1.744,4.208,4.159,6.266,5.139,4.38,12.109,8.456,18.9,12.195,1.556,1.154,3.175,2.605,3.175,2.605C87.563,199.61,90.158,191.357,83.826,186.25Z" transform="translate(-59.546 -158.218)" fill="#ffa8a7"/>
            <g id="Group_39870" data-name="Group 39870" transform="translate(15.829)">
              <g id="Group_39869" data-name="Group 39869">
                <g id="Group_39867" data-name="Group 39867">
                  <path id="Path_25924" data-name="Path 25924" d="M124.691,152.693a6.561,6.561,0,1,0-12.052,5.191c.046.107.1.208.153.311l-1.667,3.624-2.461-4.536a1.443,1.443,0,0,0-1.294-1.439,1.338,1.338,0,0,0-1.448,1.285l1.881.162a2.388,2.388,0,0,0-.9,1.133c-.45,1.168,1.107,3.547,3.193,5.635a56.712,56.712,0,0,0,3.669,4.752,2.26,2.26,0,0,0,1.618.451l.177-8.2a6.557,6.557,0,0,0,9.133-8.369Z" transform="translate(-105.923 -145.134)" fill="#263238"/>
                  <path id="Path_25925" data-name="Path 25925" d="M117.2,165.622c-.274.379-1.105-.1-1.765-.383a1.742,1.742,0,0,0-2.493,1.589c-.07,1.916,2.244,3.41,3.571,3.274,2.287-.235,2.033-1.658,2.033-1.658l3.375,7.425h0c3.888,2.133,11.123-1.219,6.782-3.326l-.958-2.209a11.342,11.342,0,0,0,2.375-.944c1.383-.867,1.811-2.438,1.57-4.235-.388-2.887-1.01-5.085-3.8-9.887-3.063-5.263-9.546-2.539-12.088,1.158S117.2,165.622,117.2,165.622Z" transform="translate(-110.544 -147.513)" fill="#ffa8a7"/>
                  <path id="Path_25926" data-name="Path 25926" d="M116.4,156.932c-.184.084-1.393-.783-2.033-1-.885-.3-2.323-5.9-2.323-5.9a2.7,2.7,0,0,1-.528-2.916c.53-1.541,2.482-2.57,3.834-3.253,2.437-1.231,5.163-2.636,6.359-5.217.094-.2.233-.437.457-.44a.539.539,0,0,1,.362.193,3.543,3.543,0,0,1,.9,2.29c.006.079.024.177.1.2s.138-.04.185-.1a3.128,3.128,0,0,0,.557-1.015c.166-.508,1.015.785,1.085.963a4.468,4.468,0,0,1-.189,3.47,6.228,6.228,0,0,1-2.632,2.314,37.974,37.974,0,0,1-6.592,2.692c-.725.2-.585.927-.173,2.9C116.131,153.84,117.023,156.652,116.4,156.932Z" transform="translate(-109.483 -138.203)" fill="#263238"/>
                  <path id="Path_25927" data-name="Path 25927" d="M141.459,204.745a31.517,31.517,0,0,1-5.416.728,4.148,4.148,0,0,1-2.279-.893,5.671,5.671,0,0,0,1.711,1.474c1.311.716,6.363-.429,6.363-.429Z" transform="translate(-124.261 -181.924)" fill="#f28f8f"/>
                </g>
                <g id="Group_39868" data-name="Group 39868" transform="translate(9.48 9.248)">
                  <path id="Path_25928" data-name="Path 25928" d="M135.175,174.121l-1.2,1.294a.925.925,0,0,1-.045-1.28A.86.86,0,0,1,135.175,174.121Z" transform="translate(-133.698 -170.94)" fill="#263238"/>
                  <path id="Path_25929" data-name="Path 25929" d="M149.234,193.868l1.757-.084a.864.864,0,0,1-.812.944A.921.921,0,0,1,149.234,193.868Z" transform="translate(-143.931 -184.062)" fill="#f28f8f"/>
                  <path id="Path_25930" data-name="Path 25930" d="M155.888,166.422l-1.722-.439a.853.853,0,0,1,1.05-.657A.934.934,0,0,1,155.888,166.422Z" transform="translate(-147.18 -165.299)" fill="#263238"/>
                  <path id="Path_25931" data-name="Path 25931" d="M148.539,176.416,149.7,180.6l2.047-1.241Z" transform="translate(-143.473 -172.621)" fill="#f28f8f"/>
                </g>
              </g>
              <path id="Path_25932" data-name="Path 25932" d="M139.042,180.434a.766.766,0,1,0,.766-.766A.766.766,0,0,0,139.042,180.434Z" transform="translate(-127.738 -165.515)" fill="#263238"/>
              <path id="Path_25933" data-name="Path 25933" d="M155.259,174.145a.738.738,0,1,0,.738-.738A.738.738,0,0,0,155.259,174.145Z" transform="translate(-138.42 -161.391)" fill="#263238"/>
            </g>
          </g>
          <g id="Group_39872" data-name="Group 39872" transform="translate(95.695 63.375)">
            <path id="Path_25934" data-name="Path 25934" d="M343.244,344.422c-.29.2.16,1.449.423,1.755a4.375,4.375,0,0,0,1.963,1.106,11.429,11.429,0,0,1,3.7,1.938,12.122,12.122,0,0,0,4.641,2.334,9.052,9.052,0,0,0,6.374-1.329c2.13-1.262,1.931-2.467,1.64-3.274Z" transform="translate(-342.046 -337.411)" fill="#37474f"/>
            <path id="Path_25935" data-name="Path 25935" d="M345.722,323.881c.672.726,4.4,4.4,7.247,5.333,2.267.744,5.222,1.453,6.514,2.837,1.344,1.44-.657,3.283-3.416,4.34-2.874,1.1-4.825.212-6.733-.746-1.341-.673-3.318-2.04-4.311-2.6s-2.834-.851-3.6-1.667a6.757,6.757,0,0,1-.91-2.807c-.169-1.008-.844-1.95-.5-2l.558.61C343.169,327.658,345.872,325.262,345.722,323.881Z" transform="translate(-339.915 -323.881)" fill="url(#linear-gradient-9)"/>
          </g>
        </g>
        <path id="Path_25936" data-name="Path 25936" d="M83.191,200.749a17.445,17.445,0,0,1-5.23,1.823,9.1,9.1,0,0,0,6.355-1.27Z" transform="translate(-71.676 -178.043)" fill="#f28f8f"/>
      </g>
    </g>
  </g>
</svg>
