<svg xmlns="http://www.w3.org/2000/svg" width="356.228" height="265.467" viewBox="0 0 356.228 265.467">
  <g id="Group_38513" data-name="Group 38513" transform="translate(0 -54.953)">
    <g id="Background_Complete" data-name="Background Complete" transform="translate(0 54.953)">
      <g id="Group_38452" data-name="Group 38452">
        <rect id="Rectangle_15555" data-name="Rectangle 15555" width="356.228" height="0.178" transform="translate(0 233.29)" fill="#ebebeb"/>
        <rect id="Rectangle_15556" data-name="Rectangle 15556" width="23.598" height="0.178" transform="translate(296.936 244.758)" fill="#ebebeb"/>
        <rect id="Rectangle_15557" data-name="Rectangle 15557" width="6.194" height="0.178" transform="translate(229.786 246.691)" fill="#ebebeb"/>
        <rect id="Rectangle_15558" data-name="Rectangle 15558" width="13.674" height="0.178" transform="translate(282.55 238.142)" fill="#ebebeb"/>
        <rect id="Rectangle_15559" data-name="Rectangle 15559" width="30.773" height="0.178" transform="translate(37.375 239.339)" fill="#ebebeb"/>
        <rect id="Rectangle_15560" data-name="Rectangle 15560" width="4.512" height="0.178" transform="translate(74.491 239.339)" fill="#ebebeb"/>
        <rect id="Rectangle_15561" data-name="Rectangle 15561" width="66.74" height="0.178" transform="translate(93.667 242.347)" fill="#ebebeb"/>
        <path id="Path_24636" data-name="Path 24636" d="M179.848,256.469H42.274a4.072,4.072,0,0,1-4.067-4.067V59.019a4.071,4.071,0,0,1,4.067-4.066H179.848a4.071,4.071,0,0,1,4.066,4.066V252.4A4.071,4.071,0,0,1,179.848,256.469ZM42.274,55.131a3.892,3.892,0,0,0-3.889,3.888V252.4a3.893,3.893,0,0,0,3.889,3.889H179.848a3.892,3.892,0,0,0,3.888-3.889V59.019a3.892,3.892,0,0,0-3.888-3.888Z" transform="translate(-10.986 -54.953)" fill="#ebebeb"/>
        <path id="Path_24637" data-name="Path 24637" d="M396.145,256.469H258.571a4.071,4.071,0,0,1-4.066-4.067V59.019a4.07,4.07,0,0,1,4.066-4.066H396.145a4.071,4.071,0,0,1,4.067,4.066V252.4A4.072,4.072,0,0,1,396.145,256.469ZM258.571,55.131a3.892,3.892,0,0,0-3.888,3.888V252.4a3.892,3.892,0,0,0,3.888,3.889H396.145a3.893,3.893,0,0,0,3.889-3.889V59.019a3.893,3.893,0,0,0-3.889-3.888Z" transform="translate(-73.182 -54.953)" fill="#ebebeb"/>
      </g>
      <g id="Group_38464" data-name="Group 38464" transform="translate(49.516 35.225)">
        <g id="Group_38457" data-name="Group 38457" transform="translate(148.693 40.476)">
          <rect id="Rectangle_15562" data-name="Rectangle 15562" width="107.017" height="156.902" transform="translate(107.017 156.902) rotate(180)" fill="#f0f0f0"/>
          <g id="Group_38453" data-name="Group 38453" transform="translate(3.783 4.939)">
            <rect id="Rectangle_15563" data-name="Rectangle 15563" width="99.452" height="28.978" transform="translate(99.452 28.978) rotate(180)" fill="#e0e0e0"/>
            <rect id="Rectangle_15564" data-name="Rectangle 15564" width="5.649" height="24.287" transform="translate(99.452 28.978) rotate(180)" fill="#ebebeb"/>
            <rect id="Rectangle_15565" data-name="Rectangle 15565" width="5.65" height="24.287" transform="translate(72.134 28.978) rotate(180)" fill="#ebebeb"/>
            <rect id="Rectangle_15566" data-name="Rectangle 15566" width="5.65" height="24.287" transform="translate(36.915 28.978) rotate(-170.221)" fill="#ebebeb"/>
            <rect id="Rectangle_15567" data-name="Rectangle 15567" width="5.649" height="21.086" transform="translate(92.452 28.978) rotate(180)" fill="#ebebeb"/>
            <rect id="Rectangle_15568" data-name="Rectangle 15568" width="5.649" height="21.086" transform="translate(79.466 28.978) rotate(180)" fill="#ebebeb"/>
            <rect id="Rectangle_15569" data-name="Rectangle 15569" width="5.649" height="21.086" transform="translate(46.69 28.978) rotate(180)" fill="#ebebeb"/>
            <rect id="Rectangle_15570" data-name="Rectangle 15570" width="5.65" height="21.086" transform="translate(60.006 28.978) rotate(-167.473)" fill="#ebebeb"/>
            <rect id="Rectangle_15571" data-name="Rectangle 15571" width="2.825" height="25.493" transform="translate(84.742 28.978) rotate(180)" fill="#ebebeb"/>
            <rect id="Rectangle_15572" data-name="Rectangle 15572" width="2.825" height="25.493" transform="translate(51.138 28.978) rotate(180)" fill="#ebebeb"/>
          </g>
          <g id="Group_38454" data-name="Group 38454" transform="translate(3.783 38.506)">
            <rect id="Rectangle_15573" data-name="Rectangle 15573" width="99.452" height="28.978" fill="#e0e0e0"/>
            <rect id="Rectangle_15574" data-name="Rectangle 15574" width="5.649" height="24.287" transform="translate(0 4.691)" fill="#ebebeb"/>
            <rect id="Rectangle_15575" data-name="Rectangle 15575" width="5.649" height="24.287" transform="translate(27.318 4.691)" fill="#ebebeb"/>
            <rect id="Rectangle_15576" data-name="Rectangle 15576" width="5.65" height="24.287" transform="matrix(0.985, -0.17, 0.17, 0.985, 58.412, 5.044)" fill="#ebebeb"/>
            <rect id="Rectangle_15577" data-name="Rectangle 15577" width="5.65" height="21.086" transform="translate(7 7.892)" fill="#ebebeb"/>
            <rect id="Rectangle_15578" data-name="Rectangle 15578" width="5.65" height="21.086" transform="translate(19.986 7.892)" fill="#ebebeb"/>
            <rect id="Rectangle_15579" data-name="Rectangle 15579" width="5.649" height="21.086" transform="translate(52.762 7.892)" fill="#ebebeb"/>
            <rect id="Rectangle_15580" data-name="Rectangle 15580" width="5.65" height="21.086" transform="translate(34.873 8.394) rotate(-12.527)" fill="#ebebeb"/>
            <rect id="Rectangle_15581" data-name="Rectangle 15581" width="2.825" height="25.493" transform="translate(14.71 3.485)" fill="#ebebeb"/>
            <rect id="Rectangle_15582" data-name="Rectangle 15582" width="2.825" height="25.493" transform="translate(48.314 3.485)" fill="#ebebeb"/>
            <rect id="Rectangle_15583" data-name="Rectangle 15583" width="5.649" height="24.287" transform="translate(99.452 28.978) rotate(180)" fill="#ebebeb"/>
            <rect id="Rectangle_15584" data-name="Rectangle 15584" width="5.649" height="21.086" transform="translate(92.452 28.978) rotate(180)" fill="#ebebeb"/>
            <rect id="Rectangle_15585" data-name="Rectangle 15585" width="5.649" height="21.086" transform="translate(79.466 28.978) rotate(180)" fill="#ebebeb"/>
            <rect id="Rectangle_15586" data-name="Rectangle 15586" width="2.825" height="25.493" transform="translate(84.742 28.978) rotate(180)" fill="#ebebeb"/>
          </g>
          <g id="Group_38456" data-name="Group 38456" transform="translate(3.783 72.072)">
            <rect id="Rectangle_15587" data-name="Rectangle 15587" width="99.452" height="28.978" transform="translate(99.452 28.978) rotate(180)" fill="#e0e0e0"/>
            <g id="Group_38455" data-name="Group 38455" transform="translate(1.583 3.485)">
              <rect id="Rectangle_15588" data-name="Rectangle 15588" width="5.649" height="24.287" transform="translate(40.787 25.493) rotate(180)" fill="#ebebeb"/>
              <rect id="Rectangle_15589" data-name="Rectangle 15589" width="5.65" height="24.287" transform="translate(5.567 25.493) rotate(-170.221)" fill="#ebebeb"/>
              <rect id="Rectangle_15590" data-name="Rectangle 15590" width="5.65" height="21.086" transform="translate(61.104 25.493) rotate(180)" fill="#ebebeb"/>
              <rect id="Rectangle_15591" data-name="Rectangle 15591" width="5.649" height="21.086" transform="translate(48.118 25.493) rotate(180)" fill="#ebebeb"/>
              <rect id="Rectangle_15592" data-name="Rectangle 15592" width="5.65" height="21.086" transform="translate(15.342 25.493) rotate(180)" fill="#ebebeb"/>
              <rect id="Rectangle_15593" data-name="Rectangle 15593" width="5.65" height="21.086" transform="translate(28.658 25.493) rotate(-167.472)" fill="#ebebeb"/>
              <rect id="Rectangle_15594" data-name="Rectangle 15594" width="2.825" height="25.493" transform="translate(53.394 25.493) rotate(180)" fill="#ebebeb"/>
              <rect id="Rectangle_15595" data-name="Rectangle 15595" width="2.825" height="25.493" transform="translate(19.791 25.493) rotate(180)" fill="#ebebeb"/>
              <rect id="Rectangle_15596" data-name="Rectangle 15596" width="5.65" height="24.287" transform="translate(70.563 25.493) rotate(-170.221)" fill="#ebebeb"/>
              <rect id="Rectangle_15597" data-name="Rectangle 15597" width="5.65" height="21.086" transform="translate(80.338 25.493) rotate(180)" fill="#ebebeb"/>
              <rect id="Rectangle_15598" data-name="Rectangle 15598" width="5.65" height="21.086" transform="translate(93.654 25.493) rotate(-167.472)" fill="#ebebeb"/>
              <rect id="Rectangle_15599" data-name="Rectangle 15599" width="2.825" height="25.493" transform="translate(84.787 25.493) rotate(180)" fill="#ebebeb"/>
            </g>
          </g>
          <rect id="Rectangle_15600" data-name="Rectangle 15600" width="18.463" height="157.313" transform="translate(107.017)" fill="#e0e0e0"/>
        </g>
        <g id="Group_38463" data-name="Group 38463" transform="translate(0 0)">
          <g id="Group_38458" data-name="Group 38458" transform="translate(57.046 6.055)">
            <rect id="Rectangle_15601" data-name="Rectangle 15601" width="22.09" height="31.258" transform="translate(31.258) rotate(90)" fill="#e0e0e0"/>
            <rect id="Rectangle_15602" data-name="Rectangle 15602" width="19.209" height="28.318" transform="translate(29.788 1.44) rotate(90)" fill="#ebebeb"/>
          </g>
          <g id="Group_38459" data-name="Group 38459" transform="translate(46.206 33.805)">
            <rect id="Rectangle_15603" data-name="Rectangle 15603" width="22.09" height="31.258" transform="translate(31.258 0) rotate(90)" fill="#e0e0e0"/>
            <rect id="Rectangle_15604" data-name="Rectangle 15604" width="19.209" height="28.318" transform="translate(29.788 1.44) rotate(90)" fill="#ebebeb"/>
          </g>
          <g id="Group_38460" data-name="Group 38460" transform="translate(31.227)">
            <rect id="Rectangle_15605" data-name="Rectangle 15605" width="19.889" height="28.144" transform="translate(19.889 28.144) rotate(180)" fill="#e0e0e0"/>
            <rect id="Rectangle_15606" data-name="Rectangle 15606" width="17.296" height="25.497" transform="translate(18.593 26.821) rotate(180)" fill="#ebebeb"/>
          </g>
          <g id="Group_38461" data-name="Group 38461" transform="translate(19.912 33.805)">
            <rect id="Rectangle_15607" data-name="Rectangle 15607" width="22.09" height="31.258" transform="translate(22.09 31.258) rotate(180)" fill="#e0e0e0"/>
            <rect id="Rectangle_15608" data-name="Rectangle 15608" width="19.209" height="28.318" transform="translate(20.649 29.788) rotate(180)" fill="#ebebeb"/>
          </g>
          <g id="Group_38462" data-name="Group 38462" transform="translate(0 10.848)">
            <rect id="Rectangle_15609" data-name="Rectangle 15609" width="17.296" height="24.474" transform="translate(0 17.296) rotate(-90)" fill="#e0e0e0"/>
            <rect id="Rectangle_15610" data-name="Rectangle 15610" width="15.041" height="22.172" transform="translate(1.151 16.168) rotate(-90)" fill="#ebebeb"/>
          </g>
        </g>
      </g>
    </g>
    <g id="Shadow" transform="translate(39.977 304.285)">
      <ellipse id="_Path_" data-name="&lt;Path&gt;" cx="138.137" cy="8.067" rx="138.137" ry="8.067" fill="#f5f5f5"/>
    </g>
    <g id="Table" transform="translate(35.623 190.133)">
      <g id="Group_38467" data-name="Group 38467" transform="translate(0 50.092)">
        <path id="Path_24648" data-name="Path 24648" d="M50,315v72.67h4.987V325.687h83.357V387.67h6.412V315Z" transform="translate(-50 -315)" fill="#263238"/>
        <path id="Path_24649" data-name="Path 24649" d="M50,315v72.67h4.987V325.687h83.357V387.67h6.412V315Z" transform="translate(-50 -315)" fill="#f10000" opacity="0.808" style="isolation: isolate"/>
        <path id="Path_24650" data-name="Path 24650" d="M50,315v72.67h4.987V325.687h83.357V387.67h6.412V315Z" transform="translate(-49.931 -315)" fill="#fff" opacity="0.4" style="isolation: isolate"/>
        <path id="Path_24651" data-name="Path 24651" d="M118,315v72.67h4.987V325.687h83.357V387.67h6.412V315Z" transform="translate(-69.553 -315)" fill="#f10000"/>
        <path id="Path_24652" data-name="Path 24652" d="M118,315v72.67h4.987V325.687h83.357V387.67h6.412V315Z" transform="translate(-69.553 -315)" fill="#fff" opacity="0.5" style="isolation: isolate"/>
      </g>
      <g id="Group_38477" data-name="Group 38477" transform="translate(9.499 0)">
        <g id="Group_38470" data-name="Group 38470" transform="translate(94.044)">
          <rect id="Rectangle_15613" data-name="Rectangle 15613" width="33.881" height="50.092" rx="4.488" fill="#2d2f3a"/>
          <rect id="Rectangle_15614" data-name="Rectangle 15614" width="33.881" height="50.092" rx="4.488" fill="#fff" opacity="0.1"/>
          <rect id="Rectangle_15615" data-name="Rectangle 15615" width="15.12" height="50.092" rx="4.488" transform="translate(18.761)" fill="#fff" opacity="0.1"/>
          <g id="Group_38468" data-name="Group 38468" transform="translate(21.73 5.326)">
            <path id="Path_24653" data-name="Path 24653" d="M230.91,262.319a5.076,5.076,0,1,1,5.076-5.077A5.083,5.083,0,0,1,230.91,262.319Z" transform="translate(-225.833 -252.167)" opacity="0.3" style="isolation: isolate"/>
            <path id="Path_24654" data-name="Path 24654" d="M235.605,257.5a4.438,4.438,0,1,1-4.439-4.439A4.438,4.438,0,0,1,235.605,257.5Z" transform="translate(-226.091 -252.424)" fill="#fff" opacity="0.2"/>
            <path id="Path_24655" data-name="Path 24655" d="M233.673,258.4a2.219,2.219,0,1,1-2.219-2.219A2.219,2.219,0,0,1,233.673,258.4Z" transform="translate(-226.811 -253.32)" opacity="0.3" style="isolation: isolate"/>
            <path id="Path_24656" data-name="Path 24656" d="M233.433,258.558a1.818,1.818,0,1,1-1.818-1.819A1.819,1.819,0,0,1,233.433,258.558Z" transform="translate(-226.973 -253.482)" fill="#fff" opacity="0.2"/>
          </g>
          <g id="Group_38469" data-name="Group 38469" transform="translate(21.136 19.812)">
            <path id="Path_24657" data-name="Path 24657" d="M230.67,283.84a5.67,5.67,0,1,1,5.669-5.67A5.677,5.677,0,0,1,230.67,283.84Z" transform="translate(-225 -272.5)" opacity="0.3" style="isolation: isolate"/>
            <path id="Path_24658" data-name="Path 24658" d="M235.915,278.457a4.958,4.958,0,1,1-4.958-4.957A4.958,4.958,0,0,1,235.915,278.457Z" transform="translate(-225.288 -272.788)" fill="#fff" opacity="0.2"/>
            <path id="Path_24659" data-name="Path 24659" d="M233.756,279.458a2.479,2.479,0,1,1-2.479-2.479A2.479,2.479,0,0,1,233.756,279.458Z" transform="translate(-226.092 -273.788)" opacity="0.3" style="isolation: isolate"/>
            <path id="Path_24660" data-name="Path 24660" d="M233.489,279.638a2.031,2.031,0,1,1-2.031-2.03A2.031,2.031,0,0,1,233.489,279.638Z" transform="translate(-226.273 -273.969)" fill="#fff" opacity="0.2"/>
          </g>
        </g>
        <g id="Group_38473" data-name="Group 38473" transform="translate(38.948 20.024)">
          <rect id="Rectangle_15616" data-name="Rectangle 15616" width="46.714" height="17.728" transform="translate(2.019 12.34)" fill="#263238"/>
          <rect id="Rectangle_15617" data-name="Rectangle 15617" width="51.433" height="14.264" rx="1.771" fill="#2d2f3a"/>
          <rect id="Rectangle_15618" data-name="Rectangle 15618" width="31.009" height="14.264" rx="1.771" transform="translate(20.424)" fill="#fff" opacity="0.2" style="isolation: isolate"/>
          <rect id="Rectangle_15619" data-name="Rectangle 15619" width="51.433" height="14.264" rx="1.771" transform="translate(0 14.971)" fill="#2d2f3a"/>
          <rect id="Rectangle_15620" data-name="Rectangle 15620" width="31.009" height="14.264" rx="1.771" transform="translate(20.424 14.971)" fill="#fff" opacity="0.2" style="isolation: isolate"/>
          <rect id="Rectangle_15621" data-name="Rectangle 15621" width="51.433" height="14.264" rx="1.771" fill="#fff" opacity="0.1"/>
          <rect id="Rectangle_15622" data-name="Rectangle 15622" width="51.433" height="14.264" rx="1.771" transform="translate(0 14.971)" fill="#fff" opacity="0.1"/>
          <rect id="Rectangle_15623" data-name="Rectangle 15623" width="10.721" height="5.094" transform="translate(31.467 5.136)" fill="#407bff" style="isolation: isolate"/>
          <rect id="Rectangle_15624" data-name="Rectangle 15624" width="12.591" height="5.892" transform="translate(30.517 4.72)" opacity="0.3" style="isolation: isolate"/>
          <g id="Group_38471" data-name="Group 38471" transform="translate(24.045 19.028)">
            <path id="Path_24661" data-name="Path 24661" d="M158.281,302.77a3.266,3.266,0,1,1-3.266-3.265A3.266,3.266,0,0,1,158.281,302.77Z" transform="translate(-151.75 -299.505)" fill="#263238"/>
            <path id="Path_24662" data-name="Path 24662" d="M160.282,302.77a3.266,3.266,0,1,1-3.265-3.265A3.265,3.265,0,0,1,160.282,302.77Z" transform="translate(-152.325 -299.505)" fill="#263238"/>
            <path id="Path_24663" data-name="Path 24663" d="M160.282,302.77a3.266,3.266,0,1,1-3.265-3.265A3.265,3.265,0,0,1,160.282,302.77Z" transform="translate(-152.325 -299.505)" fill="#fff" opacity="0.5"/>
          </g>
          <g id="Group_38472" data-name="Group 38472" transform="translate(42.581 19.028)">
            <path id="Path_24664" data-name="Path 24664" d="M184.3,302.77a3.266,3.266,0,1,1-3.265-3.265A3.265,3.265,0,0,1,184.3,302.77Z" transform="translate(-177.766 -299.505)" fill="#263238"/>
            <path id="Path_24665" data-name="Path 24665" d="M186.3,302.77a3.265,3.265,0,1,1-3.265-3.265A3.265,3.265,0,0,1,186.3,302.77Z" transform="translate(-178.342 -299.505)" fill="#263238"/>
            <path id="Path_24666" data-name="Path 24666" d="M186.3,302.77a3.265,3.265,0,1,1-3.265-3.265A3.265,3.265,0,0,1,186.3,302.77Z" transform="translate(-178.342 -299.505)" fill="#fff" opacity="0.5"/>
          </g>
          <rect id="Rectangle_15625" data-name="Rectangle 15625" width="1.455" height="1.455" transform="translate(33.189 21.641)" fill="#fff" opacity="0.5"/>
          <rect id="Rectangle_15626" data-name="Rectangle 15626" width="1.455" height="1.455" transform="translate(35.201 21.641)" fill="#fff" opacity="0.5"/>
          <rect id="Rectangle_15627" data-name="Rectangle 15627" width="1.455" height="1.455" transform="translate(37.214 21.641)" fill="#fff" opacity="0.5"/>
          <rect id="Rectangle_15628" data-name="Rectangle 15628" width="1.455" height="1.455" transform="translate(39.226 21.641)" fill="#fff" opacity="0.5"/>
        </g>
        <g id="Group_38476" data-name="Group 38476">
          <rect id="Rectangle_15629" data-name="Rectangle 15629" width="33.881" height="50.092" rx="4.488" fill="#2d2f3a"/>
          <rect id="Rectangle_15630" data-name="Rectangle 15630" width="33.881" height="50.092" rx="4.488" fill="#fff" opacity="0.1"/>
          <rect id="Rectangle_15631" data-name="Rectangle 15631" width="15.12" height="50.092" rx="4.488" transform="translate(18.761)" fill="#fff" opacity="0.1"/>
          <g id="Group_38474" data-name="Group 38474" transform="translate(21.73 5.326)">
            <path id="Path_24667" data-name="Path 24667" d="M98.91,262.319a5.076,5.076,0,1,1,5.076-5.077A5.083,5.083,0,0,1,98.91,262.319Z" transform="translate(-93.833 -252.167)" opacity="0.3" style="isolation: isolate"/>
            <path id="Path_24668" data-name="Path 24668" d="M103.605,257.5a4.438,4.438,0,1,1-4.439-4.439A4.438,4.438,0,0,1,103.605,257.5Z" transform="translate(-94.091 -252.424)" fill="#fff" opacity="0.2"/>
            <path id="Path_24669" data-name="Path 24669" d="M101.673,258.4a2.219,2.219,0,1,1-2.219-2.219A2.219,2.219,0,0,1,101.673,258.4Z" transform="translate(-94.811 -253.32)" opacity="0.3" style="isolation: isolate"/>
            <path id="Path_24670" data-name="Path 24670" d="M101.433,258.558a1.818,1.818,0,1,1-1.818-1.819A1.819,1.819,0,0,1,101.433,258.558Z" transform="translate(-94.973 -253.482)" fill="#fff" opacity="0.2"/>
          </g>
          <g id="Group_38475" data-name="Group 38475" transform="translate(21.136 19.812)">
            <path id="Path_24671" data-name="Path 24671" d="M98.67,283.84a5.67,5.67,0,1,1,5.669-5.67A5.676,5.676,0,0,1,98.67,283.84Z" transform="translate(-93 -272.5)" opacity="0.3" style="isolation: isolate"/>
            <path id="Path_24672" data-name="Path 24672" d="M103.915,278.457a4.958,4.958,0,1,1-4.958-4.957A4.958,4.958,0,0,1,103.915,278.457Z" transform="translate(-93.288 -272.788)" fill="#fff" opacity="0.2"/>
            <path id="Path_24673" data-name="Path 24673" d="M101.756,279.458a2.479,2.479,0,1,1-2.479-2.479A2.479,2.479,0,0,1,101.756,279.458Z" transform="translate(-94.092 -273.788)" opacity="0.3" style="isolation: isolate"/>
            <path id="Path_24674" data-name="Path 24674" d="M101.489,279.638a2.031,2.031,0,1,1-2.03-2.03A2.031,2.031,0,0,1,101.489,279.638Z" transform="translate(-94.273 -273.969)" fill="#fff" opacity="0.2"/>
          </g>
        </g>
      </g>
      <g id="Group_38478" data-name="Group 38478" transform="translate(73.351 9.741)">
        <path id="Path_24675" data-name="Path 24675" d="M155.994,263.3a2.16,2.16,0,0,1,3.056,0" transform="translate(-153.829 -259.6)" fill="none" stroke="#7e7e7e" stroke-linecap="round" stroke-linejoin="round" stroke-width="1"/>
        <path id="Path_24676" data-name="Path 24676" d="M154.418,261.532a3.748,3.748,0,0,1,5.3,0" transform="translate(-153.376 -258.959)" fill="none" stroke="#7e7e7e" stroke-linecap="round" stroke-linejoin="round" stroke-width="1.057"/>
        <path id="Path_24677" data-name="Path 24677" d="M152.955,259.894a5.222,5.222,0,0,1,7.386,0" transform="translate(-152.955 -258.364)" fill="none" stroke="#7e7e7e" stroke-linecap="round" stroke-linejoin="round" stroke-width="1"/>
        <path id="Path_24678" data-name="Path 24678" d="M158.5,265.349a.609.609,0,1,1-.609-.609A.609.609,0,0,1,158.5,265.349Z" transform="translate(-154.2 -260.197)" fill="none" stroke="#7e7e7e" stroke-width="1"/>
      </g>
    </g>
    <g id="Sofa" transform="translate(60.559 182.511)">
      <g id="Group_38485" data-name="Group 38485">
        <g id="Group_38479" data-name="Group 38479" transform="translate(105.213 66.794)">
          <rect id="Rectangle_15632" data-name="Rectangle 15632" width="59.482" height="50.307" rx="11.626" transform="translate(0)" fill="#979797"/>
          <rect id="Rectangle_15633" data-name="Rectangle 15633" width="59.482" height="50.307" rx="11.626" transform="translate(0)" fill="#fff" opacity="0.1" style="isolation: isolate"/>
          <path id="Path_24679" data-name="Path 24679" d="M240.96,378.051h0a8.283,8.283,0,0,1-8.284-8.283v-33.74a8.283,8.283,0,0,1,8.284-8.283h0a8.283,8.283,0,0,1,8.283,8.283v33.74A8.283,8.283,0,0,1,240.96,378.051Z" transform="translate(-232.676 -327.745)" fill="#fff" opacity="0.2" style="isolation: isolate"/>
        </g>
        <path id="Path_24680" data-name="Path 24680" d="M98.994,395.571,96.5,410.838h5.343l4.908-14.563Z" transform="translate(-88.307 -280.454)" fill="#f10000"/>
        <path id="Path_24681" data-name="Path 24681" d="M199.258,395.571l2.494,15.267h-5.343L191.5,396.275Z" transform="translate(-115.624 -280.454)" fill="#f10000"/>
        <path id="Path_24682" data-name="Path 24682" d="M98.994,395.571,96.5,410.838h5.343l4.908-14.563Z" transform="translate(-88.307 -279.454)" fill="#fff" opacity="0.1" style="isolation: isolate"/>
        <path id="Path_24683" data-name="Path 24683" d="M199.258,395.571l2.494,15.267h-5.343L191.5,396.275Z" transform="translate(-115.624 -279.454)" fill="#fff" opacity="0.1" style="isolation: isolate"/>
        <path id="Path_24684" data-name="Path 24684" d="M307.994,395.571,305.5,410.838h5.343l4.908-14.563Z" transform="translate(-148.404 -280.454)" fill="#263238"/>
        <path id="Path_24685" data-name="Path 24685" d="M408.258,395.571l2.494,15.267h-5.343L400.5,396.275Z" transform="translate(-175.72 -280.454)" fill="#263238"/>
        <g id="Group_38480" data-name="Group 38480" transform="translate(0 82.65)">
          <rect id="Rectangle_15634" data-name="Rectangle 15634" width="242.947" height="36.335" rx="8.64" fill="#cacacd"/>
          <rect id="Rectangle_15635" data-name="Rectangle 15635" width="242.947" height="36.335" rx="8.64" fill="#fff" opacity="0.1" style="isolation: isolate"/>
          <rect id="Rectangle_15636" data-name="Rectangle 15636" width="91.907" height="36.335" rx="8.64" fill="#fff" opacity="0.2" style="isolation: isolate"/>
        </g>
        <g id="Group_38483" data-name="Group 38483" transform="translate(151.718)">
          <g id="Group_38481" data-name="Group 38481" transform="translate(0.004)">
            <path id="Path_24686" data-name="Path 24686" d="M297.956,317.487h87.621l13.353-68.956a12.216,12.216,0,0,0-11.993-14.538H324.2a12.217,12.217,0,0,0-11.993,9.894Z" transform="translate(-297.956 -233.993)" fill="#cacacd"/>
          </g>
          <g id="Group_38482" data-name="Group 38482" transform="translate(10)" opacity="0.1" style="isolation: isolate">
            <path id="Path_24687" data-name="Path 24687" d="M297.956,317.487h87.621l13.353-68.956a12.216,12.216,0,0,0-11.993-14.538H324.2a12.217,12.217,0,0,0-11.993,9.894Z" transform="translate(-307.956 -233.993)" fill="#fff"/>
          </g>
          <path id="Path_24688" data-name="Path 24688" d="M297.951,317.357H360.69l14.249-73.533a12.164,12.164,0,0,1,12-9.825H324.2a12.159,12.159,0,0,0-11.991,9.828Z" transform="translate(-297.951 -233.995)" fill="#fff" opacity="0.2" style="isolation: isolate"/>
        </g>
        <g id="Group_38484" data-name="Group 38484" transform="translate(197.89 66.794)">
          <rect id="Rectangle_15637" data-name="Rectangle 15637" width="59.482" height="50.307" rx="11.626" transform="translate(0)" fill="#cacacd"/>
          <rect id="Rectangle_15638" data-name="Rectangle 15638" width="59.482" height="50.307" rx="11.626" transform="translate(0)" fill="#fff" opacity="0.1" style="isolation: isolate"/>
          <path id="Path_24689" data-name="Path 24689" d="M371.042,378.051h0a8.284,8.284,0,0,1-8.284-8.283v-33.74a8.283,8.283,0,0,1,8.284-8.283h0a8.283,8.283,0,0,1,8.283,8.283v33.74A8.283,8.283,0,0,1,371.042,378.051Z" transform="translate(-362.758 -327.745)" fill="#fff" opacity="0.2" style="isolation: isolate"/>
        </g>
      </g>
    </g>
    <g id="Character" transform="translate(101.132 161.736)">
      <g id="_Group_" data-name="&lt;Group&gt;">
        <g id="Group_38486" data-name="Group 38486" transform="translate(17.848 56.676)">
          <path id="Path_24690" data-name="Path 24690" d="M278.937,324.46s-6.731,9.523-17.124,8.811c-19.429-1.332-43.041-28.5-45.891-28.735-4.508-.376-42.035,19.925-42.035,19.925l-6.887-7.7s40.361-31.853,49.159-32.369S278.937,324.46,278.937,324.46Z" transform="translate(-167 -284.384)" fill="#cacacd"/>
          <path id="Path_24691" data-name="Path 24691" d="M279.04,324.457a.5.5,0,0,0-.182.378v.007a24.3,24.3,0,0,1-7.271,6.127,17.425,17.425,0,0,1-9.719,2.3c-19.429-1.332-43.066-28.5-45.916-28.733-4.51-.378-42.048,19.92-42.048,19.92l-6.9-7.695s15.643-12.347,29.578-21.794c8.443-5.721,16.256-10.38,19.576-10.58,8.165-.477,55.274,34.426,62.021,39.463C278.711,324.243,279.04,324.457,279.04,324.457Z" transform="translate(-167.003 -284.383)" fill="#fff" opacity="0.6" style="isolation: isolate"/>
        </g>
        <g id="Group_38487" data-name="Group 38487" transform="translate(114.727 22.452)">
          <path id="Path_24692" data-name="Path 24692" d="M307.211,236.349s-3.817-.068-3.949.6.117,6.255.625,7.04a11.87,11.87,0,0,0,1.9,1.918l-2.807,8.316,4.708,2.386,2.069-9.067s2.339-2.283,1.654-5.182S307.211,236.349,307.211,236.349Z" transform="translate(-302.979 -236.347)" fill="#eec1bb"/>
          <path id="Path_24693" data-name="Path 24693" d="M307.211,236.349s-3.817-.068-3.949.6.117,6.255.625,7.04a11.87,11.87,0,0,0,1.9,1.918l-2.807,8.316,4.708,2.386,2.069-9.067s2.339-2.283,1.654-5.182S307.211,236.349,307.211,236.349Z" transform="translate(-302.979 -236.347)" opacity="0.2" style="isolation: isolate"/>
        </g>
        <path id="Path_24694" data-name="Path 24694" d="M302,260.6l1.158-2.45,5.762,2.45-.381,2.961Z" transform="translate(-187.971 -220.165)" fill="#263238"/>
        <g id="Group_38488" data-name="Group 38488" transform="translate(107.689 33.247)">
          <path id="Path_24695" data-name="Path 24695" d="M320.459,251.5c-5.7.119-15.437,22.918-15.437,22.918s2.2-11.162,1.692-12.468-5.373-4.513-7.985-3.8-8.193,19.062-4.275,25.5,11.162,7.983,21.255,1.215S320.459,251.5,320.459,251.5Z" transform="translate(-293.101 -251.499)" fill="#263238"/>
          <path id="Path_24696" data-name="Path 24696" d="M316.533,284.237a9.8,9.8,0,0,1-.826.6c-5.785,3.876-10.63,4.777-14.456,4.065h-.007a11.03,11.03,0,0,1-6.79-5.276c-3.919-6.441,1.66-24.781,4.275-25.493s7.481,2.5,7.987,3.81c.492,1.275-1.6,11.98-1.689,12.457.3-.691,9.818-22.783,15.432-22.9C320.458,251.5,325.5,276.6,316.533,284.237Z" transform="translate(-293.101 -251.498)" opacity="0.3" style="isolation: isolate"/>
        </g>
        <path id="Path_24697" data-name="Path 24697" d="M319.822,293.695a10.064,10.064,0,0,1-.826.627c-5.785,3.876-10.63,5.03-14.456,4.09,8.044-3.862,14.071-14.021,14.071-14.021Z" transform="translate(-188.701 -227.709)" opacity="0.2" style="isolation: isolate"/>
        <g id="Group_38489" data-name="Group 38489" transform="translate(144.377 29.088)">
          <path id="Path_24698" data-name="Path 24698" d="M344.686,249.228s2.8-5.117,13.609-3.093,8.72,6.265,5.239,7.762-15.968,0-15.968,0S343.989,251.124,344.686,249.228Z" transform="translate(-344.596 -245.661)" fill="#263238"/>
          <path id="Path_24699" data-name="Path 24699" d="M344.686,249.228s2.8-5.117,13.609-3.093,8.72,6.265,5.239,7.762-15.968,0-15.968,0S343.989,251.124,344.686,249.228Z" transform="translate(-344.596 -245.661)" opacity="0.2" style="isolation: isolate"/>
        </g>
        <path id="Path_24700" data-name="Path 24700" d="M302,298.76s10.865-7.384,14.249-18.518,6.768-29.3,6.768-29.3,16.208-4.1,31.882,1.781-1.908,57.142-16.324,62.562Z" transform="translate(-187.971 -217.691)" fill="#263238"/>
        <path id="Path_24701" data-name="Path 24701" d="M360.6,231.612c-1.419,4.281-3.3,12.219-.6,15.541a14.2,14.2,0,0,1-10.537,3.014c-5.649-.587-3.117-4.743-3.117-4.743,5.049-.549,5.383-4.2,4.963-7.724Z" transform="translate(-200.56 -212.533)" fill="#eec1bb"/>
        <path id="Path_24702" data-name="Path 24702" d="M359.05,235.1l-5.5,3.606a14.608,14.608,0,0,1,.114,2.476c1.905-.031,4.734-1.763,5.181-3.695A6.5,6.5,0,0,0,359.05,235.1Z" transform="translate(-202.795 -213.536)" opacity="0.2" style="isolation: isolate"/>
        <g id="Group_38490" data-name="Group 38490" transform="translate(143.102)">
          <path id="Path_24703" data-name="Path 24703" d="M351.332,212.486c2.185,2.01.663,4.64-5.484,8.2-1.8-3.228-1.336-8.9.649-10.054S349.426,210.744,351.332,212.486Z" transform="translate(-343.357 -206.372)" fill="#263238"/>
          <path id="Path_24704" data-name="Path 24704" d="M360.556,217.974c-.841,4.339-1.268,7.388-2.786,9.753a9.4,9.4,0,0,1-2.13,2.315c-5.123,4-12.1.306-12.746-5.814-.021-.192-.036-.392-.043-.591-.385-5.522,1.653-13.7,7.573-15.239a8.2,8.2,0,0,1,10.131,9.575Z" transform="translate(-342.807 -205.779)" fill="#eec1bb"/>
          <path id="Path_24706" data-name="Path 24706" d="M354.492,222.215c-.064.484-.374.843-.69.8s-.517-.463-.453-.947.367-.842.682-.806S354.521,221.734,354.492,222.215Z" transform="translate(-345.835 -209.556)" fill="#263238"/>
          <path id="Path_24707" data-name="Path 24707" d="M346.764,221.212c-.063.484-.373.842-.689.8s-.524-.463-.461-.953.374-.843.69-.8S346.828,220.728,346.764,221.212Z" transform="translate(-343.611 -209.267)" fill="#263238"/>
          <path id="Path_24708" data-name="Path 24708" d="M348.558,222.249a17.425,17.425,0,0,1-2.858,3.837,2.819,2.819,0,0,0,2.26.735Z" transform="translate(-343.639 -209.841)" fill="#d58745"/>
          <path id="Path_24709" data-name="Path 24709" d="M356.513,219.682a.279.279,0,0,0,.186-.016.289.289,0,0,0,.113-.39,2.833,2.833,0,0,0-2.162-1.478.277.277,0,0,0-.3.248v.02a.3.3,0,0,0,.268.3h0a2.26,2.26,0,0,1,1.693,1.184A.3.3,0,0,0,356.513,219.682Z" transform="translate(-346.125 -208.56)" fill="#263238"/>
          <path id="Path_24710" data-name="Path 24710" d="M343.96,217.814a.3.3,0,0,0,.28-.128,2.282,2.282,0,0,1,1.77-1.077.288.288,0,0,0,.008-.576,2.863,2.863,0,0,0-2.254,1.339.284.284,0,0,0,.078.393l0,0A.344.344,0,0,0,343.96,217.814Z" transform="translate(-343.068 -208.054)" fill="#263238"/>
          <path id="Path_24711" data-name="Path 24711" d="M364.5,213.915c-2.905.588-2.957,3.63.471,9.843,3.211-1.834,5.748-6.941,4.632-8.943S367.042,213.406,364.5,213.915Z" transform="translate(-348.43 -207.302)" fill="#263238"/>
          <path id="Path_24712" data-name="Path 24712" d="M368.468,227.644a5.714,5.714,0,0,1-3.139,3.034c-1.869.717-2.988-.91-2.63-2.77.325-1.678,1.693-4.073,3.642-3.992A2.547,2.547,0,0,1,368.468,227.644Z" transform="translate(-348.508 -210.32)" fill="#eec1bb"/>
          <path id="Path_24713" data-name="Path 24713" d="M353.231,230.976a4.2,4.2,0,0,1-4.181,1.274" transform="translate(-344.602 -212.35)" fill="none" stroke="#263238" stroke-linecap="round" stroke-linejoin="round" stroke-width="0.526"/>
          <path id="Path_24714" data-name="Path 24714" d="M347.116,207.176c-.111.671.089,1.754,3.71,2.288s6.946-1.009,8.075,0,2.307,4.241,2.307,4.241l3.986-.891a6.616,6.616,0,0,0-1.247-5.638c-2.137-3-14.067-.68-14.989-2.343A3.91,3.91,0,0,0,347.116,207.176Z" transform="translate(-344.04 -204.833)" fill="#263238"/>
        </g>
        <path id="Path_24715" data-name="Path 24715" d="M159.272,344.446l-2.765-5.017,10.35-8.689,2.756,5.014Z" transform="translate(-146.135 -241.037)" fill="#eec1bb"/>
        <path id="Path_24716" data-name="Path 24716" d="M171.4,335.755l-2.762-5.011-5.915,4.968,2.983,4.837Z" transform="translate(-147.923 -241.038)" opacity="0.2" style="isolation: isolate"/>
        <g id="Group_38491" data-name="Group 38491" transform="translate(15.284 85.746)">
          <path id="Path_24717" data-name="Path 24717" d="M171.563,338.844,163.4,329.26l3.673-4.074,8.753,10.689Z" transform="translate(-163.402 -325.186)" fill="#979797"/>
          <path id="Path_24718" data-name="Path 24718" d="M171.563,338.844,163.4,329.26l3.673-4.074,8.753,10.689Z" transform="translate(-163.402 -325.186)" fill="#fff" opacity="0.2"/>
        </g>
        <g id="Group_38492" data-name="Group 38492" transform="translate(7.316 96.011)">
          <path id="Path_24719" data-name="Path 24719" d="M155.625,342.409h0l-.3.011a4.76,4.76,0,0,0,.323-2.3,1.114,1.114,0,0,0-.588-.472.636.636,0,0,0-.7.112,2.012,2.012,0,0,0-.227,1.407c-.349-.5-.819-1.027-1.22-1.073a.521.521,0,0,0-.459.19.711.711,0,0,0-.206.734,1.521,1.521,0,0,0,.819.747,7.013,7.013,0,0,0,1.427.52.074.074,0,0,0,.039.029c.016,0,.026-.016.041-.021a2.327,2.327,0,0,0,.244.064s.5.075.5.07Zm-1.151-2.479c.046-.063.134-.123.313-.054l.06.026a.381.381,0,0,1,.2.239,2.89,2.89,0,0,1-.494,1.748c-.021-.037-.042-.074-.067-.117A2.7,2.7,0,0,1,154.474,339.93Zm-1.978,1.01a.491.491,0,0,1,.135-.465.242.242,0,0,1,.219-.1c.4.044,1.021.91,1.414,1.593C153.264,341.675,152.613,341.3,152.5,340.939Z" transform="translate(-152.218 -339.594)" fill="#407bff"/>
        </g>
        <path id="Path_24720" data-name="Path 24720" d="M152.363,342.342l5.69,2.981a.406.406,0,0,1,.2.54l0,.006-2.084,4.652a1.011,1.011,0,0,1-1.354.432c-1.969-1.073-2.856-1.683-5.349-3.014a53.16,53.16,0,0,1-6.569-3.7c-1.924-1.437-.452-3.3.488-2.861a15.757,15.757,0,0,0,7.959.8A1.6,1.6,0,0,1,152.363,342.342Z" transform="translate(-141.949 -244.077)" fill="#263238"/>
        <g id="Group_38493" data-name="Group 38493" transform="translate(142.09 29.914)">
          <path id="Path_24721" data-name="Path 24721" d="M350.952,254.88s.482-3.007,7.383-5.774,12.719.31,11.887,2.334c0,0,4.479.463,2.18,3.44S350.952,254.88,350.952,254.88Z" transform="translate(-344.137 -247.161)" fill="#263238"/>
          <path id="Path_24722" data-name="Path 24722" d="M346.643,254.23a6.236,6.236,0,0,1,.9-6.567s-1.037-1.9-3.08,0C344.46,247.664,336.262,249.757,346.643,254.23Z" transform="translate(-341.386 -246.821)" fill="#263238"/>
          <path id="Path_24723" data-name="Path 24723" d="M350.952,254.88s.482-3.007,7.383-5.774,12.719.31,11.887,2.334c0,0,4.479.463,2.18,3.44S350.952,254.88,350.952,254.88Z" transform="translate(-344.137 -247.161)" opacity="0.2" style="isolation: isolate"/>
          <path id="Path_24724" data-name="Path 24724" d="M346.643,254.23a6.236,6.236,0,0,1,.9-6.567s-1.037-1.9-3.08,0C344.46,247.664,336.262,249.757,346.643,254.23Z" transform="translate(-341.386 -246.821)" opacity="0.2" style="isolation: isolate"/>
        </g>
        <path id="Path_24725" data-name="Path 24725" d="M342.538,255.694s-4.017,1.5-4.373,11.366S333,276.888,333,276.888" transform="translate(-196.885 -219.458)" fill="none" stroke="#fff" stroke-linecap="round" stroke-linejoin="round" stroke-width="1"/>
        <path id="Path_24726" data-name="Path 24726" d="M351.275,256.625s-1.982,3.117-.724,9.173.546,12.913-3.551,15.14" transform="translate(-200.91 -219.726)" fill="none" stroke="#fff" stroke-linecap="round" stroke-linejoin="round" stroke-width="1"/>
        <g id="Group_38494" data-name="Group 38494" transform="translate(117.164 13.103)">
          <path id="Path_24727" data-name="Path 24727" d="M314.674,237.453a.576.576,0,0,1-.637.607l-6.492-.5a.759.759,0,0,1-.685-.71l-.455-12.925a.653.653,0,0,1,.644-.7l6.492.5a.844.844,0,0,1,.678.8Z" transform="translate(-306.402 -223.225)" fill="#263238"/>
          <path id="Path_24728" data-name="Path 24728" d="M313.5,224.4l.465,13.051a.493.493,0,0,1-.558.573l-5.505-.427c-.37-.029-1.03-.284-1.044-.653l-.461-13.095c-.014-.368.64-.611,1.009-.583l5.505.427A.672.672,0,0,1,313.5,224.4Z" transform="translate(-306.401 -223.236)" fill="#fff" opacity="0.5"/>
        </g>
        <path id="Path_24729" data-name="Path 24729" d="M322.646,250.967l-2.469-5.755s-.8-7.726-1.193-8.553-6.674-.518-7.352-.571-.554,7.661.1,8.468,3.223,1.463,3.223,1.463l3.148,8.236Z" transform="translate(-190.61 -213.816)" fill="#eec1bb"/>
        <path id="Path_24730" data-name="Path 24730" d="M318.877,258.841l-.865-3.54,6.6-3.28.992,3.41Z" transform="translate(-192.575 -218.402)" fill="#263238"/>
        <g id="Group_38495" data-name="Group 38495" transform="translate(124.912 36.066)">
          <path id="Path_24731" data-name="Path 24731" d="M317.8,259.829c.758-2.033,4.147-5.133,7.591-4.2s11.29,25.747,13.3,26.935,15.955-20.186,19.79-21.73,6.772.1,6.907,8.894-14.177,33.106-26.436,31.105S314.586,268.445,317.8,259.829Z" transform="translate(-317.276 -255.456)" fill="#263238"/>
          <path id="Path_24732" data-name="Path 24732" d="M317.8,259.829c.758-2.033,4.147-5.133,7.591-4.2s11.29,25.747,13.3,26.935,15.955-20.186,19.79-21.73,6.772.1,6.907,8.894-14.177,33.106-26.436,31.105S314.586,268.445,317.8,259.829Z" transform="translate(-317.276 -255.456)" opacity="0.2" style="isolation: isolate"/>
        </g>
        <g id="Group_38496" data-name="Group 38496" transform="translate(29.158 44.344)">
          <path id="Path_24734" data-name="Path 24734" d="M310.751,315.305s-7.739,16.258-31.962,12.631c-19.26-2.884-44.556-40.772-46.963-42.316-3.807-2.442-46.471-2.08-46.471-2.08l-2.48-10.027s50.579-9.244,58.594-5.58c4.4,2.01,44.979,37.026,44.979,37.026Z" transform="translate(-182.875 -267.074)" fill="#838ea3"/>
          <path id="Path_24735" data-name="Path 24735" d="M310.751,315.305s-7.739,16.258-31.962,12.631c-19.26-2.884-44.556-40.772-46.963-42.316-3.807-2.442-46.471-2.08-46.471-2.08l-2.48-10.027s50.579-9.244,58.594-5.58c4.4,2.01,44.979,37.026,44.979,37.026Z" transform="translate(-182.875 -267.074)" fill="#fff" opacity="0.6" style="isolation: isolate"/>
        </g>
        <path id="Path_24736" data-name="Path 24736" d="M167.559,287.365l-.094-5.728,13.214-2.831.087,5.721Z" transform="translate(-149.286 -226.104)" fill="#eec1bb"/>
        <path id="Path_24737" data-name="Path 24737" d="M183.048,284.528l-.094-5.721-7.553,1.62.37,5.67Z" transform="translate(-151.568 -226.104)" opacity="0.2" style="isolation: isolate"/>
        <g id="Group_38497" data-name="Group 38497" transform="translate(26.534 48.381)">
          <path id="Path_24738" data-name="Path 24738" d="M181.915,286.91l-2.723-12.29,5.153-1.88,2.728,13.543Z" transform="translate(-179.192 -272.74)" fill="#939393"/>
          <path id="Path_24739" data-name="Path 24739" d="M181.915,286.91l-2.723-12.29,5.153-1.88,2.728,13.543Z" transform="translate(-179.192 -272.74)" fill="#fff" opacity="0.2"/>
        </g>
        <g id="Group_38498" data-name="Group 38498" transform="translate(15.953 52.68)">
          <path id="Path_24740" data-name="Path 24740" d="M166.948,282.158h0l-.407-.121a4.753,4.753,0,0,0,1.292-1.873,1.157,1.157,0,0,0-.333-.69.662.662,0,0,0-.688-.229,2.03,2.03,0,0,0-.868,1.139,2.371,2.371,0,0,0-.579-1.52.525.525,0,0,0-.5-.046.713.713,0,0,0-.527.551,1.526,1.526,0,0,0,.373,1.044,6.985,6.985,0,0,0,1.017,1.129.075.075,0,0,0,.021.043c.015.007.031,0,.046,0s.164.176.186.171c0,0,.544.292.549.288Zm-.13-2.712c.071-.035.176-.046.3.1l.041.051a.382.382,0,0,1,.061.3c-.076.464-.8,1.015-1.255,1.312,0-.042,0-.085,0-.135A2.7,2.7,0,0,1,166.817,279.447Zm-2.221-.034a.493.493,0,0,1,.338-.348.242.242,0,0,1,.239.018c.332.226.475,1.282.5,2.07C164.931,280.422,164.532,279.784,164.6,279.412Z" transform="translate(-164.34 -278.774)" fill="#407bff"/>
        </g>
        <path id="Path_24741" data-name="Path 24741" d="M163.755,280.488l3.632,5.3a.406.406,0,0,1-.08.569l-.006,0-4.02,3.135a1.012,1.012,0,0,1-1.4-.253c-1.238-1.87-1.735-2.823-3.315-5.168a53.172,53.172,0,0,1-4.071-6.345c-1.027-2.17,1.145-3.128,1.771-2.3a15.754,15.754,0,0,0,6.659,4.432A1.606,1.606,0,0,1,163.755,280.488Z" transform="translate(-145.479 -225.048)" fill="#263238"/>
      </g>
      <g id="Group_38499" data-name="Group 38499" transform="translate(117.608 5.992)">
        <path id="Path_24742" data-name="Path 24742" d="M310.064,218.174a2.161,2.161,0,0,1,3.056,0" transform="translate(-307.898 -214.479)" fill="none" stroke="#407bff" stroke-linecap="round" stroke-linejoin="round" stroke-width="1"/>
        <path id="Path_24743" data-name="Path 24743" d="M308.488,216.41a3.749,3.749,0,0,1,5.3,0" transform="translate(-307.445 -213.838)" fill="none" stroke="#407bff" stroke-linecap="round" stroke-linejoin="round" stroke-width="1.057"/>
        <path id="Path_24744" data-name="Path 24744" d="M307.024,214.773a5.223,5.223,0,0,1,7.387,0" transform="translate(-307.024 -213.243)" fill="none" stroke="#407bff" stroke-linecap="round" stroke-linejoin="round" stroke-width="1"/>
        <path id="Path_24745" data-name="Path 24745" d="M312.571,220.227a.608.608,0,1,1-.608-.608A.608.608,0,0,1,312.571,220.227Z" transform="translate(-308.269 -215.076)" fill="#407bff"/>
      </g>
    </g>
  </g>
</svg>
