<svg id="Stars" xmlns="http://www.w3.org/2000/svg" width="235.887" height="225.637" viewBox="0 0 235.887 225.637">
  <path id="Path_24187" data-name="Path 24187" d="M168.012,161.484l2.478,3.614a.839.839,0,0,0,.691.364l4.382.008a.839.839,0,0,1,.664,1.351l-2.671,3.474a.839.839,0,0,0-.133.769l1.347,4.17a.84.84,0,0,1-1.08,1.049l-4.129-1.468a.839.839,0,0,0-.773.111l-3.549,2.569a.839.839,0,0,1-1.331-.7l.119-4.381a.84.84,0,0,0-.344-.7l-3.541-2.582a.839.839,0,0,1,.257-1.483l4.2-1.24a.838.838,0,0,0,.56-.545l1.361-4.165A.84.84,0,0,1,168.012,161.484Z" transform="translate(-103.795 -94.244)" fill="#ffac2d" opacity="0.314"/>
  <path id="Path_24188" data-name="Path 24188" d="M420.736,275.872l3.1,1.609a.67.67,0,0,0,.623,0l3.084-1.644a.669.669,0,0,1,.975.7l-.572,3.448a.669.669,0,0,0,.2.592L430.662,283a.669.669,0,0,1-.365,1.144l-3.456.522a.67.67,0,0,0-.5.37l-1.529,3.142a.67.67,0,0,1-1.2.007l-1.564-3.126a.67.67,0,0,0-.506-.363l-3.461-.483a.67.67,0,0,1-.378-1.14l2.489-2.453a.668.668,0,0,0,.19-.593l-.61-3.442A.669.669,0,0,1,420.736,275.872Z" transform="translate(-194.98 -134.283)" fill="#ffac2d" opacity="0.314"/>
  <path id="Path_24189" data-name="Path 24189" d="M195.874,142.37l.655,1.993a.4.4,0,0,0,.269.26l2.012.59a.4.4,0,0,1,.124.71l-1.693,1.239a.4.4,0,0,0-.164.336l.061,2.1a.4.4,0,0,1-.637.337l-1.7-1.228a.4.4,0,0,0-.37-.052l-1.975.706a.4.4,0,0,1-.518-.5l.641-2a.4.4,0,0,0-.064-.369l-1.282-1.661a.4.4,0,0,1,.316-.647l2.1-.007a.4.4,0,0,0,.33-.175l1.184-1.732A.4.4,0,0,1,195.874,142.37Z" transform="translate(-116.996 -84.516)" fill="#ffac2d" opacity="0.314"/>
  <g id="Group_37369" data-name="Group 37369" transform="translate(21.541 38.754)">
    <path id="Path_24190" data-name="Path 24190" d="M216.139,124.095l22.26,45.446a9.644,9.644,0,0,0,7.255,5.311l49.775,7.287a9.728,9.728,0,0,1,5.34,16.56l-36.018,35.375a9.754,9.754,0,0,0-2.771,8.593l14.383,53.041c.38,6.887-10.346,11.573-19.861,7.144l-44.52-23.584a9.572,9.572,0,0,0-8.967,0L158.5,302.852a9.651,9.651,0,0,1-13.98-10.234l8.5-49.95a9.754,9.754,0,0,0-2.771-8.593L114.229,198.7a9.728,9.728,0,0,1,5.34-16.56l49.775-7.287a9.643,9.643,0,0,0,7.255-5.311l21.638-44.176c2.7-5.5,5.967-7.666,16.273-7.666C217.947,117.7,214.372,120.487,216.139,124.095Z" transform="translate(-111.309 -117.699)" fill="#909090"/>
    <path id="Path_24191" data-name="Path 24191" d="M216.139,124.095l22.26,45.446a9.644,9.644,0,0,0,7.255,5.311l49.775,7.287a9.728,9.728,0,0,1,5.34,16.56l-36.018,35.375a9.754,9.754,0,0,0-2.771,8.593l14.383,53.041c.38,6.887-10.346,11.573-19.861,7.144l-44.52-23.584a9.572,9.572,0,0,0-8.967,0L158.5,302.852a9.651,9.651,0,0,1-13.98-10.234l8.5-49.95a9.754,9.754,0,0,0-2.771-8.593L114.229,198.7a9.728,9.728,0,0,1,5.34-16.56l49.775-7.287a9.643,9.643,0,0,0,7.255-5.311l21.638-44.176c2.7-5.5,5.967-7.666,16.273-7.666C217.947,117.7,214.372,120.487,216.139,124.095Z" transform="translate(-111.309 -117.699)" fill="#e08700" opacity="0.997"/>
    <path id="Path_24221" data-name="Path 24221" d="M226.891,123.1l22.26,45.379a9.64,9.64,0,0,0,7.254,5.3l49.775,7.276a9.71,9.71,0,0,1,5.34,16.535L275.5,232.919a9.733,9.733,0,0,0-2.771,8.581l8.5,49.876a9.648,9.648,0,0,1-13.981,10.219l-44.519-23.549a9.585,9.585,0,0,0-8.967,0l-44.52,23.549a9.648,9.648,0,0,1-13.98-10.219l8.5-49.876A9.731,9.731,0,0,0,161,232.919L124.981,197.6a9.71,9.71,0,0,1,5.34-16.535l49.775-7.276a9.641,9.641,0,0,0,7.255-5.3l22.26-45.379A9.609,9.609,0,0,1,226.891,123.1Z" transform="translate(-113.765 -117.699)" fill="#ffac2d"/>
    <g id="Group_37365" data-name="Group 37365" transform="translate(72.519 9.864)">
      <path id="Path_24236" data-name="Path 24236" d="M251.69,130.483c.1.05-5.927,12.1-13.456,26.9s-13.717,26.773-13.817,26.723,5.925-12.094,13.458-26.9S251.591,130.433,251.69,130.483Z" transform="translate(-224.415 -130.483)" fill="#fff"/>
    </g>
    <g id="Group_37366" data-name="Group 37366" transform="translate(14.125 59.983)">
      <path id="Path_24237" data-name="Path 24237" d="M190.122,210.124a4.06,4.06,0,0,1-.651.112l-1.876.244-6.909.823-22.809,2.563-12.564,1.363c-1.932.207-3.766.389-5.453.708a18.5,18.5,0,0,0-4.542,1.4,10.456,10.456,0,0,0-4.933,4.617,9.348,9.348,0,0,0-.766,2.406.537.537,0,0,1,0-.168c.011-.11.019-.277.054-.492a7.213,7.213,0,0,1,.568-1.814,10.441,10.441,0,0,1,4.952-4.806,18.483,18.483,0,0,1,4.6-1.471c1.7-.337,3.547-.532,5.475-.749l12.56-1.394,22.822-2.446,6.923-.7,1.884-.169A4.068,4.068,0,0,1,190.122,210.124Z" transform="translate(-129.614 -210.119)" fill="#fff"/>
    </g>
    <g id="Group_37367" data-name="Group 37367" transform="translate(116.469 158.722)">
      <path id="Path_24238" data-name="Path 24238" d="M327.461,384.51c-.054.1-7.571-4.045-16.787-9.249s-16.645-9.5-16.591-9.6,7.57,4.044,16.788,9.249S327.516,384.413,327.461,384.51Z" transform="translate(-294.084 -365.66)" fill="#fff"/>
    </g>
    <g id="Group_37368" data-name="Group 37368" transform="translate(86.691 150.911)">
      <path id="Path_24239" data-name="Path 24239" d="M272.518,357.458a22.218,22.218,0,0,0-3.877-1.243,20.645,20.645,0,0,0-9.7.622,44.965,44.965,0,0,0-8.978,4.022l-2.611,1.476a5.8,5.8,0,0,1-.982.5,5.781,5.781,0,0,1,.9-.637c.594-.388,1.461-.938,2.55-1.589a40.306,40.306,0,0,1,9.006-4.161,19.889,19.889,0,0,1,9.871-.515,13.349,13.349,0,0,1,2.857.973,7.681,7.681,0,0,1,.724.386C272.443,357.39,272.525,357.446,272.518,357.458Z" transform="translate(-246.371 -355.537)" fill="#fff"/>
    </g>
  </g>
  <path id="Path_24252" data-name="Path 24252" d="M168.012,161.484l2.478,3.614a.839.839,0,0,0,.691.364l4.382.008a.839.839,0,0,1,.664,1.351l-2.671,3.474a.839.839,0,0,0-.133.769l1.347,4.17a.84.84,0,0,1-1.08,1.049l-4.129-1.468a.839.839,0,0,0-.773.111l-3.549,2.569a.839.839,0,0,1-1.331-.7l.119-4.381a.84.84,0,0,0-.344-.7l-3.541-2.582a.839.839,0,0,1,.257-1.483l4.2-1.24a.838.838,0,0,0,.56-.545l1.361-4.165A.84.84,0,0,1,168.012,161.484Z" transform="translate(-159.795 -120.081)" fill="#ffac2d" opacity="0.314"/>
  <path id="Path_24256" data-name="Path 24256" d="M168.012,161.484l2.478,3.614a.839.839,0,0,0,.691.364l4.382.008a.839.839,0,0,1,.664,1.351l-2.671,3.474a.839.839,0,0,0-.133.769l1.347,4.17a.84.84,0,0,1-1.08,1.049l-4.129-1.468a.839.839,0,0,0-.773.111l-3.549,2.569a.839.839,0,0,1-1.331-.7l.119-4.381a.84.84,0,0,0-.344-.7l-3.541-2.582a.839.839,0,0,1,.257-1.483l4.2-1.24a.838.838,0,0,0,.56-.545l1.361-4.165A.84.84,0,0,1,168.012,161.484Z" transform="translate(-32.771 -151.822)" fill="#ffac2d" opacity="0.314"/>
  <path id="Path_24258" data-name="Path 24258" d="M168.012,161.484l2.478,3.614a.839.839,0,0,0,.691.364l4.382.008a.839.839,0,0,1,.664,1.351l-2.671,3.474a.839.839,0,0,0-.133.769l1.347,4.17a.84.84,0,0,1-1.08,1.049l-4.129-1.468a.839.839,0,0,0-.773.111l-3.549,2.569a.839.839,0,0,1-1.331-.7l.119-4.381a.84.84,0,0,0-.344-.7l-3.541-2.582a.839.839,0,0,1,.257-1.483l4.2-1.24a.838.838,0,0,0,.56-.545l1.361-4.165A.84.84,0,0,1,168.012,161.484Z" transform="translate(22.229 -103.204)" fill="#ffac2d" opacity="0.314"/>
  <path id="Path_24253" data-name="Path 24253" d="M195.874,142.37l.655,1.993a.4.4,0,0,0,.269.26l2.012.59a.4.4,0,0,1,.124.71l-1.693,1.239a.4.4,0,0,0-.164.336l.061,2.1a.4.4,0,0,1-.637.337l-1.7-1.228a.4.4,0,0,0-.37-.052l-1.975.706a.4.4,0,0,1-.518-.5l.641-2a.4.4,0,0,0-.064-.369l-1.282-1.661a.4.4,0,0,1,.316-.647l2.1-.007a.4.4,0,0,0,.33-.175l1.184-1.732A.4.4,0,0,1,195.874,142.37Z" transform="translate(-172.996 -110.353)" fill="#ffac2d" opacity="0.314"/>
  <path id="Path_24257" data-name="Path 24257" d="M195.874,142.37l.655,1.993a.4.4,0,0,0,.269.26l2.012.59a.4.4,0,0,1,.124.71l-1.693,1.239a.4.4,0,0,0-.164.336l.061,2.1a.4.4,0,0,1-.637.337l-1.7-1.228a.4.4,0,0,0-.37-.052l-1.975.706a.4.4,0,0,1-.518-.5l.641-2a.4.4,0,0,0-.064-.369l-1.282-1.661a.4.4,0,0,1,.316-.647l2.1-.007a.4.4,0,0,0,.33-.175l1.184-1.732A.4.4,0,0,1,195.874,142.37Z" transform="translate(-45.972 -142.094)" fill="#ffac2d" opacity="0.314"/>
  <path id="Path_24259" data-name="Path 24259" d="M195.874,142.37l.655,1.993a.4.4,0,0,0,.269.26l2.012.59a.4.4,0,0,1,.124.71l-1.693,1.239a.4.4,0,0,0-.164.336l.061,2.1a.4.4,0,0,1-.637.337l-1.7-1.228a.4.4,0,0,0-.37-.052l-1.975.706a.4.4,0,0,1-.518-.5l.641-2a.4.4,0,0,0-.064-.369l-1.282-1.661a.4.4,0,0,1,.316-.647l2.1-.007a.4.4,0,0,0,.33-.175l1.184-1.732A.4.4,0,0,1,195.874,142.37Z" transform="translate(9.028 -93.477)" fill="#ffac2d" opacity="0.314"/>
</svg>
