<svg xmlns="http://www.w3.org/2000/svg" width="74.749" height="263.097" viewBox="0 0 74.749 263.097">
  <g id="Group_39828" data-name="Group 39828" transform="translate(-169 -414.443)">
    <g id="Group_39534" data-name="Group 39534" transform="translate(174 615.336)">
      <path id="Path_25117" data-name="Path 25117" d="M265.355,384.044c-8.13,0-16.259.013-24.389-.007-5.085-.012-7.824-2.862-7.619-7.868q.956-23.315,1.915-46.628c.208-5.075,2.9-7.688,7.958-7.69q22.077-.009,44.153,0c5.324,0,7.919,2.619,8.13,7.965q.9,22.789,1.894,45.573c.264,5.986-2.218,8.657-8.283,8.66Q277.234,384.05,265.355,384.044Zm.061-1.922v-.006c8.2,0,16.4.035,24.6-.016,3.7-.023,5.566-1.986,5.42-5.665q-.932-23.421-1.949-46.838c-.183-4.174-1.948-5.772-6.078-5.773q-22.077,0-44.155,0c-4.042,0-5.816,1.6-5.992,5.628q-1.014,23.206-1.938,46.417c-.18,4.472,1.568,6.234,6.122,6.245C249.436,382.135,257.426,382.121,265.416,382.121Z" transform="translate(-233.337 -321.844)" fill="#f10000"/>
      <path id="Path_25118" data-name="Path 25118" d="M287.931,354.334c-4.275-.008-8.729-2.435-13.009-5.315a1.387,1.387,0,0,1-.546-1.982c2.608-5.218,6.119-9.5,11.78-11.646a7.723,7.723,0,0,1,5.716,0c5.659,2.138,9.184,6.421,11.8,11.636a1.406,1.406,0,0,1-.543,1.995C298.839,351.894,294.387,354.323,287.931,354.334Zm2.08-8.559c0,1.388-.023,2.3.008,3.21.024.715-.164,1.3-.949,1.359-.835.061-1.032-.569-1.045-1.255-.019-.911-.062-1.825,0-2.732.133-2.068.236-4.041-2.482-4.624-.745-.16-1.251-.915-1.621-1.585-.53-.96-1.02-.875-1.771-.232a23.84,23.84,0,0,0-5.256,6.5c-.465.826-.351,1.308.458,1.894,7.359,5.324,15.744,5.328,23.313.031.951-.666.9-1.189.4-2.049a25.621,25.621,0,0,0-4.636-5.94c-1.031-.963-1.808-1.449-2.616.218a2.415,2.415,0,0,1-1.4,1.21C289.8,342.362,289.788,344.219,290.011,345.775Zm-1.039-9.12c-1.25.534-3.094.18-3.661,1.776-.386,1.084,2.28,2.545,4.129,2.353a4.908,4.908,0,0,0,1.205-.3c1.008-.38,2.088-.948,2.087-2.075s-1.332-.971-2.1-1.32A9.923,9.923,0,0,0,288.972,336.655Z" transform="translate(-256.981 -297.601)" fill="#f10000"/>
      <path id="Path_25119" data-name="Path 25119" d="M307.089,405.739q0-5.134,0-10.268c0-.769-.069-1.773.936-1.809,1.2-.043,1.069,1.045,1.069,1.87q.01,10.163,0,20.327c0,.764.091,1.768-.938,1.8-1.207.04-1.063-1.042-1.065-1.863C307.085,412.445,307.09,409.092,307.089,405.739Z" transform="translate(-276.059 -385.682)" fill="#f10000"/>
      <path id="Path_25120" data-name="Path 25120" d="M265.092,443.889c.749.118,1.866-.152,1.821,1.09-.046,1.277-1.188.875-1.934.9-.775.025-1.906.267-1.857-.994C263.168,443.692,264.293,444,265.092,443.889Z" transform="translate(-215.369 -435.079)" fill="#f10000"/>
      <path id="Path_25121" data-name="Path 25121" d="M262.511,433.846c-.736-.1-1.887.262-1.866-.989.02-1.223,1.174-.911,1.934-.947.787-.037,1.907-.238,1.889.976S263.313,433.763,262.511,433.846Z" transform="translate(-211.881 -417.95)" fill="#f10000"/>
      <path id="Path_25122" data-name="Path 25122" d="M348.7,443.893c.845.1,1.957-.167,1.926,1.058s-1.146.947-1.92.935-1.909.275-1.87-.98C346.872,443.735,347.977,443.986,348.7,443.893Z" transform="translate(-334.313 -435.082)" fill="#f10000"/>
      <path id="Path_25123" data-name="Path 25123" d="M351.214,431.828c.787.075,1.913-.171,1.8,1.091-.107,1.218-1.252.826-2.01.843s-1.928.257-1.816-1.028C349.295,431.539,350.453,431.975,351.214,431.828Z" transform="translate(-337.7 -417.892)" fill="#f10000"/>
      <path id="Path_25124" data-name="Path 25124" d="M260.183,419.818c.744.058,1.764-.12,1.758.969-.007,1.288-1.154.954-1.92.944s-1.949.328-1.853-1C258.255,419.515,259.417,419.949,260.183,419.818Z" transform="translate(-208.309 -400.805)" fill="#f10000"/>
      <path id="Path_25125" data-name="Path 25125" d="M353.715,419.777c.7.091,1.854-.245,1.8,1.016-.056,1.21-1.214.91-1.978.9-.748-.013-1.935.3-1.865-.993C351.734,419.474,352.873,419.875,353.715,419.777Z" transform="translate(-341.233 -400.744)" fill="#f10000"/>
      <path id="Path_25126" data-name="Path 25126" d="M255.193,395.692c.761.131,1.943-.253,1.841,1.038-.093,1.179-1.223.862-1.995.859s-1.921.244-1.832-1.011C253.292,395.37,254.463,395.857,255.193,395.692Z" transform="translate(-201.321 -366.506)" fill="#f10000"/>
      <path id="Path_25127" data-name="Path 25127" d="M358.415,395.71c.925.112,2.07-.282,2.037.992-.032,1.247-1.174.866-1.928.9-.787.036-1.887.237-1.867-.963C356.677,395.381,357.852,395.874,358.415,395.71Z" transform="translate(-348.273 -366.519)" fill="#f10000"/>
      <path id="Path_25128" data-name="Path 25128" d="M257.606,407.76c.751.157,1.93-.221,1.9,1.02s-1.192.883-1.943.9-1.911.294-1.888-.949C255.7,407.515,256.845,407.875,257.606,407.76Z" transform="translate(-204.83 -383.668)" fill="#f10000"/>
      <path id="Path_25129" data-name="Path 25129" d="M355.948,407.756c.811.185,1.972-.268,2.029.952.06,1.276-1.1.974-1.85.969s-1.888.379-1.953-.862C354.107,407.528,355.291,407.948,355.948,407.756Z" transform="translate(-344.754 -383.682)" fill="#f10000"/>
    </g>
    <g id="Group_39526" data-name="Group 39526" transform="translate(-472.785 378.078)">
      <g id="Group_39525" data-name="Group 39525" transform="translate(641.785 36.365)">
        <path id="Path_25103" data-name="Path 25103" d="M679.16,36.371s-8.376-.623-8.5,11.03a.745.745,0,0,0-1.06.436c-.374.81.748,2.181.374,3.3s.249,1.994.747,1.869.872,2.68,3.178,5.546-2.306,8.662-7.914,10.718c-5.712,2.094-10.454,4.124-10.343,8.92a66.855,66.855,0,0,1-.288,8.318c-.435,4.283-.419,8.919-1.184,13.256-.66,3.742-1.952,7.462-2.835,11.166a150.78,150.78,0,0,0-3.115,15.852,1.69,1.69,0,0,1-.972,1.328,7.48,7.48,0,0,0-3.509,3.274,32.545,32.545,0,0,1-1.871,3.306.534.534,0,0,0,.459.821,3.455,3.455,0,0,0,1.817-.778c1.963-1.4-3.521,6.792-2.087,8.132,0,0,.234.564,1.122.127-.152.074.085.807.136.9a1.575,1.575,0,0,0,2.086.246c.14-.1.595-.518.581-.694,0,0,.047.607,1.309.327a2.1,2.1,0,0,0,1.5-1.636s.022.017.063.043a1.156,1.156,0,0,0,1.736-.931,5.043,5.043,0,0,1,.725-2.289,14.914,14.914,0,0,0,2.468-9.446,1.818,1.818,0,0,1,.112-.8c2.861-7.364,5.831-14.821,7.829-22.473.919-3.518.686-7.267,1.083-10.869q.362-3.287.846-6.561s5.234,9.441,1.589,25.051c0,0-4.861,12.993-3.832,22.807l2.459,23.912a34.5,34.5,0,0,1,.156,4.852c-.174,4.568-.513,14.437-.372,18.814.187,5.8,2.43,23.181,3.552,27.014s1.682,9.067-1.4,12.9,7.384,2.9,9.067,2.057-1.776-5.515-1.9-10.314,1.87-25.3,1.5-33.837a86.138,86.138,0,0,1,1.994-22.371c1.246-4.923,2.7-22.247,2.7-22.247Z" transform="translate(-641.785 -36.365)" fill="#2d2f3a"/>
        <path id="Path_25104" data-name="Path 25104" d="M717.092,36.371s8.376-.623,8.5,11.03a.744.744,0,0,1,1.059.436c.374.81-.747,2.181-.374,3.3s-.249,1.994-.748,1.869-.872,2.68-3.178,5.546,2.306,8.662,7.914,10.718c5.712,2.094,10.454,4.124,10.343,8.92a67.068,67.068,0,0,0,.288,8.318c.436,4.283.419,8.919,1.185,13.256.66,3.742,1.952,7.462,2.835,11.166a150.654,150.654,0,0,1,3.115,15.852,1.691,1.691,0,0,0,.973,1.328,7.483,7.483,0,0,1,3.509,3.274,32.583,32.583,0,0,0,1.87,3.306.534.534,0,0,1-.458.821,3.454,3.454,0,0,1-1.817-.778c-1.963-1.4,3.521,6.792,2.088,8.132,0,0-.234.564-1.122.127.152.074-.085.807-.137.9a1.575,1.575,0,0,1-2.086.246c-.14-.1-.595-.518-.581-.694,0,0-.047.607-1.309.327a2.1,2.1,0,0,1-1.5-1.636s-.022.017-.064.043a1.155,1.155,0,0,1-1.735-.931,5.04,5.04,0,0,0-.725-2.289,14.913,14.913,0,0,1-2.468-9.446,1.831,1.831,0,0,0-.112-.8c-2.861-7.364-5.831-14.821-7.83-22.473-.919-3.518-.686-7.267-1.083-10.869q-.362-3.287-.846-6.561s-5.234,9.441-1.589,25.051c0,0,4.86,12.993,3.832,22.807l-2.459,23.912a34.585,34.585,0,0,0-.156,4.852c.175,4.568.513,14.437.372,18.814-.187,5.8-2.43,23.181-3.552,27.014s-1.683,9.067,1.4,12.9-7.384,2.9-9.067,2.057,1.776-5.515,1.9-10.314-1.87-25.3-1.5-33.837a86.14,86.14,0,0,0-1.994-22.371c-1.246-4.923-2.7-22.247-2.7-22.247Z" transform="translate(-679.717 -36.365)" fill="#2d2f3a"/>
      </g>
    </g>
  </g>
</svg>
