<svg xmlns="http://www.w3.org/2000/svg" xmlns:xlink="http://www.w3.org/1999/xlink" width="17.388" height="19.329" viewBox="0 0 17.388 19.329">
  <defs>
    <linearGradient id="linear-gradient" x1="0.5" y1="-0.816" x2="0.5" y2="1" gradientUnits="objectBoundingBox">
      <stop offset="0" stop-color="#f10000"/>
      <stop offset="1" stop-color="#ffcd00"/>
    </linearGradient>
  </defs>
  <g id="Group_38351" data-name="Group 38351" transform="translate(-57.064 -79.186)">
    <path id="Path_24571" data-name="Path 24571" d="M479.973,204.051q0,3.094,0,6.189a1.385,1.385,0,0,1-2.768.1c0-.035,0-.07,0-.1q0-6.189,0-12.378a1.384,1.384,0,1,1,2.766-.084c.014.765,0,1.53,0,2.295Q479.974,202.061,479.973,204.051Z" transform="translate(-405.525 -113.162)" fill="url(#linear-gradient)"/>
    <path id="Path_24572" data-name="Path 24572" d="M199.9,309.538q0,2.173,0,4.346a1.362,1.362,0,0,1-.858,1.3,1.337,1.337,0,0,1-1.482-.28,1.283,1.283,0,0,1-.426-.975q0-4.4,0-8.8a1.383,1.383,0,0,1,2.766.029C199.908,306.618,199.9,308.078,199.9,309.538Z" transform="translate(-135.198 -216.776)" fill="url(#linear-gradient)"/>
    <path id="Path_24573" data-name="Path 24573" d="M57.066,393.706c0-.962-.005-1.923,0-2.885a1.383,1.383,0,0,1,2.655-.523,1.4,1.4,0,0,1,.112.558q0,2.868,0,5.736a1.384,1.384,0,1,1-2.767,0c0-.962,0-1.923,0-2.885Z" transform="translate(0 -299.481)" fill="url(#linear-gradient)"/>
    <path id="Path_24574" data-name="Path 24574" d="M337.139,393.7c0-.962-.005-1.923,0-2.885a1.383,1.383,0,0,1,2.718-.337,1.326,1.326,0,0,1,.049.343q0,2.894,0,5.788a1.383,1.383,0,0,1-2.6.645,1.421,1.421,0,0,1-.163-.685Q337.14,395.138,337.139,393.7Z" transform="translate(-270.331 -299.481)" fill="url(#linear-gradient)"/>
    <path id="Path_24575" data-name="Path 24575" d="M75.666,83.835a.911.911,0,0,1,.909-.921.9.9,0,0,1,.9.909.259.259,0,0,0,.144.26q1.56.947,3.113,1.906a.241.241,0,0,0,.295.017.733.733,0,0,1,.536-.1.159.159,0,0,0,.184-.083q1.862-2.569,3.729-5.135a.184.184,0,0,0,.013-.217A.909.909,0,1,1,87.2,80.3a.84.84,0,0,1-.829.688c-.286-.016-.391.127-.524.31q-1.768,2.444-3.544,4.882a.221.221,0,0,0-.033.262.892.892,0,0,1-.176,1,.918.918,0,0,1-.995.21.882.882,0,0,1-.562-.842.257.257,0,0,0-.145-.26q-1.575-.956-3.143-1.923a.211.211,0,0,0-.249-.007.85.85,0,0,1-.878-.008.183.183,0,0,0-.219.006q-1.591.98-3.188,1.95a.231.231,0,0,0-.112.242.907.907,0,1,1-.866-.913.7.7,0,0,1,.38.108.218.218,0,0,0,.279-.013q1.561-.962,3.128-1.915C75.635,84.016,75.706,83.951,75.666,83.835Z" transform="translate(-13.254 0)" fill="url(#linear-gradient)"/>
  </g>
</svg>
