<svg xmlns="http://www.w3.org/2000/svg" xmlns:xlink="http://www.w3.org/1999/xlink" width="30.179" height="31.935" viewBox="0 0 30.179 31.935">
  <defs>
    <linearGradient id="linear-gradient" x1="0.5" y1="-6.016" x2="0.253" y2="4.407" gradientUnits="objectBoundingBox">
      <stop offset="0" stop-color="#f10000"/>
      <stop offset="1" stop-color="#ffcd00"/>
    </linearGradient>
  </defs>
  <g id="Group_38017" data-name="Group 38017" transform="translate(-71.204 -512.721)">
    <g id="Group_38014" data-name="Group 38014" transform="translate(71.204 512.721)">
      <path id="Path_10849" data-name="Path 10849" d="M46.387,147.846a6.343,6.343,0,0,1,3.859-.128c-.074-.079-.157-.147-.227-.232a6.812,6.812,0,0,1-1.166-6.243.4.4,0,0,1,.054-.093.351.351,0,0,1,.4-.345,8.129,8.129,0,0,1,6.991,5.6,11.921,11.921,0,0,1,4.066-5.48.327.327,0,0,1,.353-.043.351.351,0,0,1,.035.02.358.358,0,0,1,.069.052.364.364,0,0,1,.051.037,6.874,6.874,0,0,1,1.242,2.754.376.376,0,0,1-.087.368.4.4,0,0,1-.206.148,7.009,7.009,0,0,0-4.714,4.859c2.588-.431,4.793-2.066,7.593-1.718a7.684,7.684,0,0,1,5.926,4.625c2.894,6.255-.443,13.759-4.526,18.684-2.138,2.579-4.125,2.3-7.053,1.326-2.122-.7-3.562-.3-5.627.22a9.342,9.342,0,0,1-3.616.4c-2.843-.448-4.678-3.9-5.7-6.266a25.457,25.457,0,0,1-2.559-10.881C41.633,152.335,43.268,149.03,46.387,147.846Zm3.219-6.163a5.9,5.9,0,0,0,1.277,5.517,8.411,8.411,0,0,0,4.9,1.953.4.4,0,0,1-.014-.11A7.127,7.127,0,0,0,49.606,141.683ZM61.2,143.6a6.061,6.061,0,0,0-.715-1.716,10.748,10.748,0,0,0-3.552,5.383A7.876,7.876,0,0,1,61.2,143.6ZM47.921,170.717c2.788,2.6,5.892-.165,9.013-.035,1.493.062,2.807.844,4.23,1.2,2.545.634,4.045-1.205,5.311-3.124,2.139-3.242,4.117-6.755,4.37-10.712s-1.474-8.936-5.868-9.749c-3.148-.582-5.558,1.52-8.55,1.747a.384.384,0,0,1-.18.016,9.156,9.156,0,0,1-2.533-.46,10.5,10.5,0,0,1-1.169-.384c-1.773-.611-3.532-1.248-5.376-.745-5.01,1.368-5.307,7.6-4.358,11.761C43.623,163.8,45.192,168.169,47.921,170.717Z" transform="translate(-41.533 -140.802)" fill="url(#linear-gradient)"/>
    </g>
    <g id="Group_38013" data-name="Group 38013" transform="translate(93.699 521.796)">
      <path id="Path_10843" data-name="Path 10843" d="M48.309,157.317c2.621,1.079,3.945,4.382,3.5,7.045-.082.492-.83.283-.749-.206.364-2.2-.766-5.187-2.961-6.091C47.647,157.878,47.846,157.127,48.309,157.317Z" transform="translate(-47.845 -157.286)" fill="url(#linear-gradient)"/>
      <path id="Path_10844" data-name="Path 10844" d="M48.623,172.871a.388.388,0,0,1,0,.776A.388.388,0,0,1,48.623,172.871Z" transform="translate(-45.171 -164.191)" fill="url(#linear-gradient)"/>
    </g>
  </g>
</svg>
