<svg xmlns="http://www.w3.org/2000/svg" xmlns:xlink="http://www.w3.org/1999/xlink" width="30.179" height="26.365" viewBox="0 0 30.179 26.365">
  <defs>
    <linearGradient id="linear-gradient" x1="0.5" y1="-6.016" x2="0.253" y2="4.407" gradientUnits="objectBoundingBox">
      <stop offset="0" stop-color="#f10000"/>
      <stop offset="1" stop-color="#ffcd00"/>
    </linearGradient>
  </defs>
  <path id="Path_10845" data-name="Path 10845" d="M323.922,151.588c2.065-2.59,7.5-3.03,8.9.246a5.377,5.377,0,0,1,2.585-1.871,6.238,6.238,0,0,1,6.645,1.553c-.007-.124-.025-.242-.025-.371,0-2.172.063-4.7-.729-6.781a3.447,3.447,0,0,1-2.358.805c-1.757-.08-3.419-.223-4.124-2.089a5.111,5.111,0,0,1,1.321-5.074,2.281,2.281,0,0,1,2.423-.869,30.817,30.817,0,0,1,3.663.353c2.024.363,3.7,3.467,4.675,5.128,2.9,4.942,5.564,10.369,5.993,16.159a.359.359,0,0,1-.178.31c-7.663,5.045-18.981,6.153-26.991,1.147A5.882,5.882,0,0,1,323.922,151.588Zm2.4,8.16a24.219,24.219,0,0,0,14.13,2.846,26.286,26.286,0,0,0,7.142-1.648,23.912,23.912,0,0,0,3.6-1.75c1.461-.867.76-2.655.418-4.083a36.823,36.823,0,0,0-3.1-7.938,37.9,37.9,0,0,0-4.3-7.155,5.579,5.579,0,0,0-1.723-1.611,8.221,8.221,0,0,0-3.066-.5,3.516,3.516,0,0,0-2.614.421,4.557,4.557,0,0,0-1.361,2.289,3.124,3.124,0,0,0,.757,3.219,4.723,4.723,0,0,0,2.4.583,3.951,3.951,0,0,0,.744.063c.646-.078,1.787-.792,1.21-1.6-.247-.347-1.3-.514-1.692-.5a.36.36,0,0,1,0-.719c.866-.023,2.708.488,2.828,1.579a1.407,1.407,0,0,1,0,.271,13.741,13.741,0,0,1,.967,5.225c.043.963-.018,1.945.054,2.9.134,1.787,1.373,3.213,2.6,4.451a.359.359,0,0,1-.508.508,9.131,9.131,0,0,1-2.583-3.842.331.331,0,0,1-.085-.067,5.712,5.712,0,0,0-6.7-1.969,4.039,4.039,0,0,0-2.379,2.14c-.105.306-.623.375-.693,0-.758-4.067-6.956-2.948-8.4.044A5.153,5.153,0,0,0,326.318,159.748Z" transform="translate(-322.71 -137.114)" fill="url(#linear-gradient)"/>
</svg>
