<svg id="Group_19274" data-name="Group 19274" xmlns="http://www.w3.org/2000/svg" width="32" height="32" viewBox="0 0 32 32">
  <path id="Path_19012" data-name="Path 19012" d="M377.248,262.522a16,16,0,1,0,16.082-16.128A15.965,15.965,0,0,0,377.248,262.522Zm15.976,14.271a14.4,14.4,0,1,1,14.556-14.441A14.467,14.467,0,0,1,393.224,276.794Z" transform="translate(-377.248 -246.394)" fill="#ffac2d"/>
  <path id="Path_19019" data-name="Path 19019" d="M407.058,302.889a9.431,9.431,0,0,1,6,2.387c.427.375.911.767,1.368.1s-.1-1.044-.459-1.441c-3.122-3.481-11.031-3.508-14.2-.064-.391.424-.89.881-.508,1.474.567.88,1.107.1,1.566-.25A9.92,9.92,0,0,1,407.058,302.889Z" transform="translate(-390.845 -281.632)" fill="#ffac2d"/>
  <path id="Path_19020" data-name="Path 19020" d="M432.789,276.65c1.128-.2,1.955-.76,1.974-2.039a1.809,1.809,0,0,0-1.879-2.071,1.894,1.894,0,0,0-2.182,2.087A2.065,2.065,0,0,0,432.789,276.65Z" transform="translate(-421.992 -263.165)" fill="#ffac2d"/>
  <path id="Path_19021" data-name="Path 19021" d="M403.091,272.464c-1.167.174-1.977.83-1.911,2.071a1.943,1.943,0,0,0,2.291,2.014,1.9,1.9,0,0,0,1.766-2.218C405.154,273.022,404.344,272.508,403.091,272.464Z" transform="translate(-381.851 -263.118)" fill="#ffac2d"/>
</svg>
