<svg xmlns="http://www.w3.org/2000/svg" xmlns:xlink="http://www.w3.org/1999/xlink" width="17.276" height="22.093" viewBox="0 0 17.276 22.093">
  <defs>
    <linearGradient id="linear-gradient" x1="-0.291" y1="-0.825" x2="0.5" y2="1.727" gradientUnits="objectBoundingBox">
      <stop offset="0" stop-color="#f10000"/>
      <stop offset="1" stop-color="#ffcd00"/>
    </linearGradient>
  </defs>
  <path id="Path_81" data-name="Path 81" d="M1154.855,454.294c-.212-.115-.31-.2-.31-.254,0-.016,0-.032,0-.048l-.587-5.6c-.009-3.308-1.828-5.922-4.6-6.731a2.143,2.143,0,1,0-3.866,0c-2.776.809-4.595,3.423-4.6,6.731l-.587,5.616c0,.016,0,.032,0,.048,0,.043-.146.151-.242.223l-.076.057a2.756,2.756,0,0,0-1.193,2.148,1.7,1.7,0,0,0,1.7,1.689h3.963a3.014,3.014,0,0,0,5.95,0h3.963a1.7,1.7,0,0,0,1.7-1.715A2.482,2.482,0,0,0,1154.855,454.294Zm-7.435,5.478a2.08,2.08,0,0,1-2.026-1.6h4.049A2.078,2.078,0,0,1,1147.42,459.772Zm6.937-2.53H1140.48a.768.768,0,0,1-.764-.786,1.849,1.849,0,0,1,.823-1.381l.069-.052a2.388,2.388,0,0,0,.338-.289h5.041a.465.465,0,1,0,0-.93h-4.731l.558-5.342a.479.479,0,0,0,0-.048c0-3.125,1.823-5.537,4.536-6a.464.464,0,0,0,.239-.8,1.192,1.192,0,0,1-.381-.874,1.208,1.208,0,0,1,2.415,0,1.192,1.192,0,0,1-.381.874.464.464,0,0,0,.239.8c2.713.465,4.536,2.877,4.536,6,0,.016,0,.032,0,.048l.587,5.6a1.285,1.285,0,0,0,.8,1.044,1.6,1.6,0,0,1,.711,1.371A.763.763,0,0,1,1154.357,457.242Z" transform="translate(-1138.781 -438.609)" fill="url(#linear-gradient)"/>
</svg>
