<svg xmlns="http://www.w3.org/2000/svg" xmlns:xlink="http://www.w3.org/1999/xlink" width="14.854" height="12.152" viewBox="0 0 14.854 12.152">
  <defs>
    <linearGradient id="linear-gradient" x1="0.5" y1="-0.757" x2="0.5" y2="1" gradientUnits="objectBoundingBox">
      <stop offset="0" stop-color="#f10000"/>
      <stop offset="1" stop-color="#ffac2d"/>
    </linearGradient>
  </defs>
  <g id="Group_40135" data-name="Group 40135" transform="translate(-518.472 -412.961)">
    <path id="Path_25101" data-name="Path 25101" d="M528.766,419.947c0-.9.248-1.743.321-2.609a3.559,3.559,0,0,0-.049-.875.818.818,0,0,0-1.015-.507.855.855,0,0,1-.9-.01.681.681,0,0,0-.444-.068,2.153,2.153,0,0,1-1.015-.213.97.97,0,0,1-.668-1.245,5.787,5.787,0,0,1,.449-1.033.733.733,0,0,1,.6-.387,4.148,4.148,0,0,1,2.2.3,9.011,9.011,0,0,1,2.318,1.325,1.307,1.307,0,0,1,.436.587c.436,1.307,1.087,2.526,1.56,3.817a12.468,12.468,0,0,1,.739,2.752,1.692,1.692,0,0,1-.37,1.548,1.223,1.223,0,0,1-.569.339c-1.282.3-2.493.847-3.8,1.074a6.447,6.447,0,0,1-4.536-.666c-.209-.123-.316-.087-.467.088a2.7,2.7,0,0,1-3.823.293,3.4,3.4,0,0,1-1.16-3.58,6.954,6.954,0,0,1,.378-1.283,1.165,1.165,0,0,1,1.381-.81,2.415,2.415,0,0,0,.906-.019,4.076,4.076,0,0,1,3.318.821.476.476,0,0,0,.545.079,3.262,3.262,0,0,1,3.561.263C528.676,419.94,528.7,419.937,528.766,419.947Zm-.71,3.188c.1-.026.12-.04.139-.036.1.024.2.054.306.081a5.424,5.424,0,0,0,3.125.065c.247-.078.526-.173.553-.477s-.206-.477-.431-.641c-.145-.105-.352-.1-.5-.281a1.2,1.2,0,0,1,.548.1c.386.093.5.014.51-.379a9.163,9.163,0,0,0-.519-3.254c-.345-.974-.876-1.874-1.139-2.882a1.127,1.127,0,0,0-.419-.556,8.862,8.862,0,0,0-1.638-1.1c-.48-.241-.963-.591-1.518-.2-.078-.137.117-.26-.032-.322-.318-.133-.519.125-.785.3.031-.3-.13-.3-.319-.245a.424.424,0,0,0-.266.217c-.164.325-.339.646-.482.98a.5.5,0,0,0,.284.695c.086-.734.395-1.379.732-1.482a7.4,7.4,0,0,0-.4.957.638.638,0,0,0,.368.852,1.955,1.955,0,0,1,.694-1.6,5.7,5.7,0,0,1-.393.909.5.5,0,0,0,.314.719c.132-.6.386-1.06.655-1.155-.107.274-.229.527-.3.794-.1.361.141.668.457.607.062-.012.181-.014.142-.107-.14-.334.2-.552.168-.883.138.245.287.065.424.026,0,.172-.112.228-.2.309-.236.231-.206.352.111.468.7.254.909.182,1.3-.441a.665.665,0,0,1,.1-.09,1.078,1.078,0,0,1-.164.724.653.653,0,0,0-.108.435,3.831,3.831,0,0,0,.692,1.715c.118.152.234.3.351.457a2.241,2.241,0,0,1-.591-.379c-.069-.054-.128-.186-.222-.124-.059.038-.079.168-.079.257a7.716,7.716,0,0,1-.163,1.363,2.992,2.992,0,0,0,.291,2.182c.016.027.019.066-.044.086a3.472,3.472,0,0,1-.62-1,.693.693,0,0,0-.26-.365,3.849,3.849,0,0,0-4.488.188c-.175.138-.339.289-.509.433a1.329,1.329,0,0,1,.376-.643c.155-.153.159-.26-.013-.4a3.348,3.348,0,0,0-1.569-.76,1.989,1.989,0,0,0-1.163.083c.119.2.348.174.459.375a1.1,1.1,0,0,1-.719-.109,5.133,5.133,0,0,0-.883-.352.536.536,0,0,0-.717.332,6.473,6.473,0,0,0-.584,2.594,1.036,1.036,0,0,0,1.7.923,5.033,5.033,0,0,0,1.622-1.687c.171-.272.326-.553.5-.851a.432.432,0,0,1,.024.4,4.087,4.087,0,0,1-.853,1.566,14.371,14.371,0,0,0-.963,1.26c-.231.371-.137.54.294.564a2.278,2.278,0,0,0,2.389-1.493c.052-.119.065-.267.2-.358.134.246.237.484.381.694,1.049,1.529,3.239,1.455,4.537.8.193-.1.184-.227.016-.349C528.55,423.486,528.324,423.326,528.056,423.134Z" transform="translate(0 0)" fill="url(#linear-gradient)"/>
    <path id="Path_25102" data-name="Path 25102" d="M589.035,508.247a3.021,3.021,0,0,1-4.025-.082A6.81,6.81,0,0,0,589.035,508.247Z" transform="translate(-60.489 -86.549)" fill="url(#linear-gradient)"/>
  </g>
</svg>
