<svg xmlns="http://www.w3.org/2000/svg" width="13.126" height="16.796" viewBox="0 0 13.126 16.796">
  <path id="Path_24752" data-name="Path 24752" d="M93.663,83.06a5.417,5.417,0,0,0,.777-1.424,4.193,4.193,0,0,0,.256-1.858.316.316,0,0,1,.531-.264A8.932,8.932,0,0,1,96.6,80.853a7.031,7.031,0,0,1,1.563,3.813,6.219,6.219,0,0,1-.421,3.2,5.772,5.772,0,0,1-1.314,1.876.438.438,0,0,1-.32.126h-8.93a.434.434,0,0,1-.319-.13A5.6,5.6,0,0,1,85.1,86.047a7.42,7.42,0,0,1,1.038-4.33,23.778,23.778,0,0,1,1.814-2.552A12.072,12.072,0,0,0,89.355,77a5.963,5.963,0,0,0,.579-2.276,8.081,8.081,0,0,0-.057-1.252.331.331,0,0,1,.166-.362.307.307,0,0,1,.386.09,11.235,11.235,0,0,1,1.576,2.1A12.523,12.523,0,0,1,93.6,80.164a14.275,14.275,0,0,1,.051,2.861C93.647,83.033,93.654,83.041,93.663,83.06Zm-3.081-8.74a.239.239,0,0,0-.021.154,6.244,6.244,0,0,1-.46,2.364,11.427,11.427,0,0,1-1.651,2.7A20.763,20.763,0,0,0,86.587,82.2a6.742,6.742,0,0,0-.851,3.926,4.91,4.91,0,0,0,1.4,3.008.317.317,0,0,0,.247.105q4.258,0,8.516,0a.321.321,0,0,0,.247-.105,4.97,4.97,0,0,0,1.137-1.815,6.058,6.058,0,0,0,.125-3.395,6.465,6.465,0,0,0-2.01-3.442c-.019-.018-.036-.051-.072-.029-.013.113-.023.226-.039.337a5.922,5.922,0,0,1-1.88,3.482.286.286,0,0,1-.367.045.3.3,0,0,1-.151-.34,13.094,13.094,0,0,0,.082-3.753,11.727,11.727,0,0,0-1.728-4.984A8.6,8.6,0,0,0,90.582,74.32Z" transform="translate(-85.083 -73.072)" fill="#2d2f3a"/>
</svg>
