<svg xmlns="http://www.w3.org/2000/svg" xmlns:xlink="http://www.w3.org/1999/xlink" width="16.299" height="14.564" viewBox="0 0 16.299 14.564">
  <defs>
    <linearGradient id="linear-gradient" x1="0.5" y1="-2.31" x2="0.5" y2="1" gradientUnits="objectBoundingBox">
      <stop offset="0" stop-color="#f10000"/>
      <stop offset="1" stop-color="#ffcd00"/>
    </linearGradient>
  </defs>
  <path id="Path_18341" data-name="Path 18341" d="M579.685,737.583a2.358,2.358,0,0,0-3.314,0l-4.09,5.076-1.947,2.417c-.23.286-.5.715-.8,1.113l-.175-.18-1.322-1.358c-2.107-2.165-5.419,1.15-3.314,3.314,1.087,1.117,2.2,2.679,3.672,3.268,1.616.646,3.05-.131,4.089-1.392,2.434-2.954,4.8-5.963,7.206-8.944A2.418,2.418,0,0,0,579.685,737.583Z" transform="translate(-564.045 -736.902)" fill="url(#linear-gradient)"/>
</svg>
