<svg xmlns="http://www.w3.org/2000/svg" width="13.917" height="13.918" viewBox="0 0 13.917 13.918">
  <g id="Group_38240" data-name="Group 38240" transform="translate(-72.261 -162.251)">
    <path id="Path_24471" data-name="Path 24471" d="M79.222,162.251a6.959,6.959,0,1,1-6.961,6.971A6.97,6.97,0,0,1,79.222,162.251Zm-.013,13.28A6.321,6.321,0,1,0,72.9,169.2,6.316,6.316,0,0,0,79.209,175.531Z" transform="translate(0 0)" fill="#2d2f3a"/>
    <path id="Path_24472" data-name="Path 24472" d="M183.459,229.211q0,1.215,0,2.43c0,.318-.1.414-.417.414h-3.6c-.039,0-.079,0-.118,0a.311.311,0,0,1-.288-.3.317.317,0,0,1,.272-.32,1.033,1.033,0,0,1,.148,0c1.077,0,2.153,0,3.23,0,.116,0,.147-.029.147-.146q-.006-2.267,0-4.533c0-.222.094-.35.273-.378a.312.312,0,0,1,.355.337c0,.518,0,1.037,0,1.556Q183.459,228.737,183.459,229.211Z" transform="translate(-103.609 -62.214)" fill="#2d2f3a"/>
  </g>
</svg>
