<svg id="Group_20519" data-name="Group 20519" xmlns="http://www.w3.org/2000/svg" width="41.656" height="48.42" viewBox="0 0 41.656 48.42">
  <path id="Path_9069" data-name="Path 9069" d="M-147.362,337.358a15.926,15.926,0,0,1-15.943,15.86,15.933,15.933,0,0,1-15.774-16.027A15.813,15.813,0,0,1-163.2,321.45,15.8,15.8,0,0,1-147.362,337.358Zm-28.027-.063A12.224,12.224,0,0,0-163.232,349.5a12.231,12.231,0,0,0,12.18-12.184,12.284,12.284,0,0,0-12.156-12.234A12.283,12.283,0,0,0-175.388,337.3Z" transform="translate(183.991 -321.45)" fill="#fff"/>
  <path id="Path_9070" data-name="Path 9070" d="M-176.67,461.813a30.267,30.267,0,0,1,20.248,7.951c.681.614.747.955.056,1.622-1.794,1.73-1.76,1.766-3.708.176a26.094,26.094,0,0,0-34.2.739c-.784.7-1.208.82-1.98-.008-1.7-1.826-1.768-1.8.2-3.427A30.268,30.268,0,0,1-176.67,461.813Z" transform="translate(197.535 -424.452)" fill="#fff"/>
</svg>
