<svg xmlns="http://www.w3.org/2000/svg" width="11.055" height="16.012" viewBox="0 0 11.055 16.012">
  <path id="Path_24482" data-name="Path 24482" d="M245.464,255.537c.594-.013,1.23.014,1.864.063a14.362,14.362,0,0,1,2.822.458,3.891,3.891,0,0,1,.529.179.43.43,0,0,1,.262.458q-.148.977-.3,1.953-.191,1.243-.383,2.485-.207,1.336-.416,2.672-.284,1.834-.567,3.668-.194,1.252-.392,2.5c-.012.079-.025.158-.035.237a1.075,1.075,0,0,1-.6.822,3.714,3.714,0,0,1-1.193.381,8.6,8.6,0,0,1-1.54.129,7.846,7.846,0,0,1-2.435-.312,1.69,1.69,0,0,1-.868-.558,1.224,1.224,0,0,1-.2-.578q-.156-.985-.314-1.971-.2-1.286-.407-2.572-.164-1.035-.329-2.069-.227-1.434-.453-2.868c-.1-.637-.205-1.274-.306-1.911q-.156-.986-.308-1.971a.34.34,0,0,1,.188-.389,4.667,4.667,0,0,1,1.308-.447,15.267,15.267,0,0,1,2.024-.284C244.085,255.559,244.753,255.529,245.464,255.537Zm-3.03,6.367c-.346.007-.693-.014-1.038.016-.067.006-.093.019-.081.1.1.607.194,1.215.29,1.823q.272,1.72.544,3.44c.146.92.3,1.838.435,2.76a.643.643,0,0,0,.379.521,2.577,2.577,0,0,0,.294.124,6.16,6.16,0,0,0,1.729.276,9.078,9.078,0,0,0,2.02-.118,3.18,3.18,0,0,0,.9-.275.627.627,0,0,0,.385-.5c.067-.531.16-1.059.242-1.588q.194-1.247.389-2.495.207-1.331.412-2.662c.036-.23.073-.46.108-.69.006-.038.027-.1-.055-.077a7.2,7.2,0,0,1-1.326.162,4.453,4.453,0,0,1-1.064-.027c-.654-.126-1.294-.311-1.938-.476a.278.278,0,0,1-.157-.1.287.287,0,0,1-.02-.336.292.292,0,0,1,.333-.118c.452.114.9.231,1.354.346a3.658,3.658,0,0,0,1.173.15c.315-.023.631-.036.946-.065a4.412,4.412,0,0,0,.725-.136.192.192,0,0,0,.169-.187c.011-.132.039-.263.059-.395q.208-1.351.416-2.7.112-.725.225-1.45c.011-.072,0-.093-.079-.071a12.027,12.027,0,0,1-1.458.286,22.539,22.539,0,0,1-2.725.21q-.994.023-1.987-.032c-.515-.028-1.029-.067-1.541-.13a12.353,12.353,0,0,1-1.862-.348c-.071-.02-.1-.007-.082.074.049.292.091.585.137.877q.25,1.572.5,3.144c.02.127.028.132.153.119.056-.006.113-.01.169-.012.586-.014,1.171-.026,1.757,0a.288.288,0,1,1-.005.573Zm7.521-5.295a19.124,19.124,0,0,0-5.634-.476,13.546,13.546,0,0,0-3.366.481,17.7,17.7,0,0,0,4.075.456A19.6,19.6,0,0,0,249.955,256.609Z" transform="translate(-239.891 -255.534)" fill="#f10000"/>
</svg>
