<svg xmlns="http://www.w3.org/2000/svg" width="10.679" height="9.082" viewBox="0 0 10.679 9.082">
  <g id="Group_7057" data-name="Group 7057" opacity="0.738">
    <path id="Path_10478" data-name="Path 10478" d="M177.6,165.575l3.508-3.508a1.033,1.033,0,1,1,1.462,1.461l-2.777,2.777,2.777,2.777a1.033,1.033,0,0,1-1.462,1.461l-3.508-3.508A1.034,1.034,0,0,1,177.6,165.575Z" transform="translate(-172.194 -161.765)" fill="#fff" opacity="0.367"/>
    <path id="Path_10479" data-name="Path 10479" d="M198.533,165.575l3.508-3.508a1.033,1.033,0,1,1,1.462,1.461l-2.777,2.777,2.777,2.777a1.033,1.033,0,0,1-1.462,1.461l-3.508-3.508A1.033,1.033,0,0,1,198.533,165.575Z" transform="translate(-198.231 -161.765)" fill="#fff"/>
  </g>
</svg>
