<svg id="Group_38016" data-name="Group 38016" xmlns="http://www.w3.org/2000/svg" xmlns:xlink="http://www.w3.org/1999/xlink" width="30.179" height="30.478" viewBox="0 0 30.179 30.478">
  <defs>
    <linearGradient id="linear-gradient" x1="0.5" y1="-6.016" x2="0.253" y2="4.407" gradientUnits="objectBoundingBox">
      <stop offset="0" stop-color="#f10000"/>
      <stop offset="1" stop-color="#ffcd00"/>
    </linearGradient>
  </defs>
  <path id="Path_10850" data-name="Path 10850" d="M448.705,236.093c-.555.1-.846.622-1.143,1.037s-.553.888-.846,1.323a2.574,2.574,0,0,1-2.342,1.162,43.421,43.421,0,0,1-4.8.051c-.821-.019-1.784-.226-2.079.737-.556,1.814,2.366,1.787,4.255,1.655-1.8,3.457-3.3,7.017-4.754,10.634-.743-.2-1.458-.359-2.106-.487a42.135,42.135,0,0,0-6.665-1.178c-.669-2.846-1.488-5.652-2.175-8.493,0-.012-.01-.019-.014-.03.895-.089,1.8-.055,2.678-.213,1.587-.286,1.2-2.088-.286-2.207a23.1,23.1,0,0,1-3.668-.471,9.149,9.149,0,0,0-3.414-.409.369.369,0,0,0-.187.021.333.333,0,0,0-.209.116,1.933,1.933,0,0,0-.221,3.129,3.952,3.952,0,0,0,2.751.607c.087-.011.173-.032.258-.05.613,2.721,1.283,5.428,1.937,8.139a7.145,7.145,0,0,0-4.185,2.264,6.533,6.533,0,0,0,1.381,9.974,8.712,8.712,0,0,0,1.485.746,1.568,1.568,0,0,0-.564.78,1.255,1.255,0,0,0,1.11,1.594,1.493,1.493,0,0,0,1.725-.97,1.362,1.362,0,0,0-.031-.8,20.608,20.608,0,0,0,2.788.26c3.191.1,6.5.124,9.685-.091.691-.047,1.476-.085,2.278-.154a1.571,1.571,0,0,0-.086.165,1.255,1.255,0,0,0,1.11,1.594,1.493,1.493,0,0,0,1.725-.97,1.448,1.448,0,0,0-.211-1.17,7.658,7.658,0,0,0,1.243-.394c1.466-.629,1.814-2.43,1.583-3.871-.531-3.307-3.718-5.338-7.024-6.577a124.667,124.667,0,0,1,4.847-11.5,3.877,3.877,0,0,0,2.909-.675,13.991,13.991,0,0,0,1.683-2.545c.255-.408.837-1.123.823-1.624A1.074,1.074,0,0,0,448.705,236.093Zm-26.463,6.123c-.8-.222-2.2-1.7-.862-2.207a10.966,10.966,0,0,1,3.938.567,12.3,12.3,0,0,1,2.64.339c.945.57-.8.638-1.23.68a14.173,14.173,0,0,0-1.973.31A4.819,4.819,0,0,1,422.242,242.216Zm2.286.6c.236-.073.472-.145.711-.2l.028,0a.419.419,0,0,0,0,.131c.668,2.764,1.46,5.5,2.118,8.261q-.454.005-.9.046C425.827,248.314,425.149,245.574,424.528,242.821Zm1.32,22.519a.688.688,0,0,1-.845.376c-.367-.1-.567-.338-.363-.7a.983.983,0,0,1,.672-.453.38.38,0,0,0,.064.025A.621.621,0,0,1,425.848,265.34Zm17.469,0a.688.688,0,0,1-.845.376c-.367-.1-.567-.338-.363-.7a.905.905,0,0,1,.472-.389c.09-.012.18-.023.268-.037A.62.62,0,0,1,443.317,265.34Zm2.625-4.15c-.223,2.622-3.422,2.495-5.481,2.773a67.08,67.08,0,0,1-8.06.245c-4.572.059-13.222-.5-11.743-7.441,1.441-6.758,9.288-4.8,14.02-3.778C438.5,253.747,446.379,256.041,445.941,261.19Zm-7.012-7.919q-.577-.2-1.146-.361a112.983,112.983,0,0,1,4.894-10.881.418.418,0,0,0,.013-.044c.157-.013.3-.023.392-.027.181,0,.374.015.574.028C441.81,245.636,440.432,249.472,438.93,253.271Zm9.5-14.863a13.024,13.024,0,0,1-1.111,1.638,3.4,3.4,0,0,1-3.011,1.139H444.3c-.384-.007-.788-.029-1.216-.04-1.031.038-2.07.017-3.1-.013-.674-.02-2.252-.167-.835-.668a10.592,10.592,0,0,1,2.569.022c.971-.016,1.946-.024,2.916-.061a3.241,3.241,0,0,0,1.78-.373c.83-.54.963-1.666,1.675-2.258C449.644,236.5,448.626,238.086,448.428,238.409Z" transform="translate(-419.774 -236.075)" fill="url(#linear-gradient)"/>
  <path id="Path_10851" data-name="Path 10851" d="M435.181,266.056a.368.368,0,0,0-.1.361c0,.008,0,.014.005.021a.412.412,0,0,0,.032.083.4.4,0,0,0,.143.174c.358.238.7.5,1.034.768l-1.2.578c-.518-1.3-1.69-2.156-3.65-2.627a5.636,5.636,0,0,0-6.134,4.224c-.663,2.951,1.515,5.222,4.3,5.674,2.882.468,5.1-.808,5.639-3.766a7.64,7.64,0,0,0,.076-2.717q.83-.4,1.657-.8c.25.21.5.422.75.63a.605.605,0,0,0,.645-.039c.323-.275,1.139-.694,1.006-1.227-.124-.5-.981-.941-1.368-1.238a5.476,5.476,0,0,0-1.582-.936C435.891,265.067,435.511,265.714,435.181,266.056Zm-.65,4.785c-.287,2.6-1.862,4.016-4.486,3.7-2.4-.287-4.5-2.024-3.944-4.688a4.82,4.82,0,0,1,5.135-3.657c1.263.3,2.727.608,3.216,2.059.009.026.01.057.017.083a34.452,34.452,0,0,1-4.046,1.677c-.495.162-.283.947.216.784a34.662,34.662,0,0,0,3.96-1.627A10.418,10.418,0,0,1,434.531,270.841Zm3.953-3.349c-.14.127-.3.248-.444.365-.645-.543-1.288-1.09-1.972-1.583a.6.6,0,0,1,.275-.192c.148-.027.671.366.811.454A11.864,11.864,0,0,1,438.484,267.492Z" transform="translate(-422.035 -248.219)" fill="url(#linear-gradient)"/>
  <path id="Path_10852" data-name="Path 10852" d="M459.055,274.981a.406.406,0,0,0,.812,0,3.484,3.484,0,0,0-1.3-2.821c-.4-.322-.983.248-.574.575A2.721,2.721,0,0,1,459.055,274.981Z" transform="translate(-435.652 -251.083)" fill="url(#linear-gradient)"/>
  <path id="Path_10853" data-name="Path 10853" d="M459.518,278.865a.407.407,0,0,0,0,.813A.407.407,0,0,0,459.518,278.865Z" transform="translate(-436.184 -253.919)" fill="url(#linear-gradient)"/>
</svg>
