<svg xmlns="http://www.w3.org/2000/svg" width="26.907" height="14.115" viewBox="0 0 26.907 14.115">
  <g id="Group_38349" data-name="Group 38349" transform="translate(-189.433 -317.091) rotate(45)">
    <path id="Path_24561" data-name="Path 24561" d="M374.33,118.055A12.585,12.585,0,0,1,373,119.261c-.373.256-.543-.226-.742-.424-2.565-2.543-5.106-5.111-7.679-7.645-.391-.384-.34-.583.016-.93.993-.967.982-.985,1.964-.006q3.678,3.668,7.349,7.342C374.027,117.718,374.136,117.845,374.33,118.055Z" transform="translate(-0.847 -24.422)" fill="#c3c3c3"/>
    <path id="Path_24562" data-name="Path 24562" d="M396.473,77.925a.585.585,0,0,1,.541.231q4.016,4.013,8.035,8.022c.271.27.274.43.006.717-1.069,1.15-1.053,1.155-2.17.035q-3.459-3.466-6.926-6.924c-.725-.725-.718-.721-.014-1.443C396.167,78.335,396.354,78.071,396.473,77.925Z" transform="translate(-23.549 -1.359)" fill="#c3c3c3"/>
    <path id="Path_24563" data-name="Path 24563" d="M391.356,98.841c-.074.08-.169.189-.271.291-1.9,1.9-3.813,3.8-5.7,5.717-.3.3-.479.311-.758-.008-.436-.5-1.224-.926-1.29-1.454-.069-.554.784-.969,1.241-1.435,1.522-1.551,3.076-3.071,4.593-4.627.34-.349.546-.377.865,0s.729.736,1.095,1.1A.519.519,0,0,1,391.356,98.841Z" transform="translate(-14.728 -15.317)" fill="#c3c3c3"/>
    <path id="Path_24564" data-name="Path 24564" d="M407.84,76.063c.274.246.387.338.49.441,1.732,1.731,3.457,3.47,5.2,5.191.315.312.334.507.007.838-1.028,1.042-1.017,1.061-2.032.049-1.525-1.519-3.032-3.055-4.571-4.559-.347-.339-.36-.542,0-.872A10.472,10.472,0,0,0,407.84,76.063Z" transform="translate(-31.759)" fill="#c3c3c3"/>
    <path id="Path_24565" data-name="Path 24565" d="M370.415,126.635a12.742,12.742,0,0,1-1.334,1.194c-.383.26-.529-.241-.724-.432-1.655-1.625-3.274-3.286-4.935-4.9-.382-.372-.358-.58,0-.935,1.005-.984.986-1,1.961-.015q2.245,2.257,4.5,4.5C370.041,126.2,370.179,126.371,370.415,126.635Z" transform="translate(0 -32.656)" fill="#c3c3c3"/>
    <path id="Path_24566" data-name="Path 24566" d="M423.856,79.906c-.131.393-.518.577-.739.89-.414.589-.8.615-1.216.006a2.38,2.38,0,0,0-.31-.314c-.983-.978-.935-1.351.262-2.134.19-.125.377-.163.537-.009.461.443.9.9,1.352,1.359A.956.956,0,0,1,423.856,79.906Z" transform="translate(-42.145 -1.592)" fill="#c3c3c3"/>
    <path id="Path_24567" data-name="Path 24567" d="M367.653,136.058a11.949,11.949,0,0,1-1.274,1.209c-.358.257-.519-.227-.758-.4a1.839,1.839,0,0,1-.214-.2c-1.118-1.113-1.1-1.289.2-2.266.152-.115.261-.217.433-.043.485.492.978.976,1.465,1.466A1.569,1.569,0,0,1,367.653,136.058Z" transform="translate(-1.06 -42.47)" fill="#c3c3c3"/>
  </g>
</svg>
