<svg xmlns="http://www.w3.org/2000/svg" width="17.287" height="15.282" viewBox="0 0 17.287 15.282">
  <path id="Path_24628" data-name="Path 24628" d="M-142.434,349.1c-.7-.243-1.019-.063-1.287.325-.363.526-.728,1.054-1.134,1.546a1.284,1.284,0,0,1-1.9.324,1.267,1.267,0,0,1-.177-1.852c.015-.024.031-.046.047-.069,1.977-3.014,1.977-3.014,5.6-3.014h2.047c.167-.275-.037-.412-.106-.574a1.805,1.805,0,0,1,.874-2.452,1.846,1.846,0,0,1,2.408.88,1.7,1.7,0,0,1-.876,2.372c-.741.286-.527.526-.291,1.051a2.639,2.639,0,0,0,3.161,1.712,1.3,1.3,0,0,1,1.633,1.133c.005.67-.642,1.145-1.56,1.146a18.71,18.71,0,0,0-2,.014,2.238,2.238,0,0,1-2.3-1.09c-.836-1.214-.9-1.173-1.959-.2-1.3,1.187-1.3,1.187-.037,2.437.394.392.8.776,1.178,1.18a1.052,1.052,0,0,1-.012,1.623c-.818.833-1.635,1.669-2.494,2.459a1.213,1.213,0,0,1-1.849-.046,1.241,1.241,0,0,1,.108-1.789c.32-.348.659-.678,1-1,.256-.241.389-.452.069-.757-.281-.267-.562-.426-.839-.063-1.54,2.022-3.71,1.1-5.643,1.173-.638.026-1-.613-.948-1.261a1.258,1.258,0,0,1,1.251-1.229c.775-.055,1.556-.021,2.334-.028,1.127-.011,1.453-.318,1.51-1.443a1.346,1.346,0,0,1,.488-.933C-143.608,350.178-143.077,349.691-142.434,349.1Zm1.015-1.993q-1.126,0-2.252,0a1,1,0,0,0-.908.311c-.609.829-1.213,1.662-1.8,2.5a.529.529,0,0,0,.123.806.557.557,0,0,0,.806-.167,5.535,5.535,0,0,0,.747-1,2.277,2.277,0,0,1,2.644-1.346c.342.06.84-.172.994.185s-.382.537-.561.829c-.649,1.063-2.4,1.367-2.066,3.147.087.464-1.408,1.408-1.981,1.415-.779.009-1.557,0-2.336,0-.426,0-.935-.011-.961.545-.028.6.5.558.917.564.806.01,1.615-.029,2.419.014a1.968,1.968,0,0,0,1.617-.666c1.391-1.417,1.4-1.394,2.676.1.271.317.31.544-.007.841-.487.456-.952.936-1.417,1.414-.28.287-.424.637-.093.951.311.295.624.088.878-.155.744-.711,1.474-1.436,2.224-2.14.391-.367.272-.657-.059-.978-.759-.736-1.491-1.5-2.258-2.225-.372-.352-.479-.6-.018-.993.827-.7,1.626-1.437,2.391-2.2.447-.448.807-.5,1.092.086a3.519,3.519,0,0,0,4.118,1.96c.082-.012.169.008.25-.009.376-.079,1.028.169,1.036-.384.009-.645-.673-.421-1.064-.43-2.663-.066-1.987.378-3.436-1.95a1.792,1.792,0,0,0-1.876-1.041A17.241,17.241,0,0,1-141.418,347.1Zm3.512-3.173a1,1,0,0,0-.914,1.056,1.044,1.044,0,0,0,1.149,1.047.991.991,0,0,0,1.04-1.058C-136.615,344.343-137.1,343.907-137.906,343.931Z" transform="translate(149.721 -343.171)" fill="#fff"/>
</svg>
