<svg xmlns="http://www.w3.org/2000/svg" xmlns:xlink="http://www.w3.org/1999/xlink" width="22.428" height="20.021" viewBox="0 0 22.428 20.021">
  <defs>
    <linearGradient id="linear-gradient" x1="-0.291" y1="-0.825" x2="0.5" y2="1.727" gradientUnits="objectBoundingBox">
      <stop offset="0" stop-color="#f10000"/>
      <stop offset="1" stop-color="#ffcd00"/>
    </linearGradient>
  </defs>
  <path id="Path_21633" data-name="Path 21633" d="M208.823,298.562a6.006,6.006,0,0,1,4.407,1.808c.352.353.5.273.814-.023a6.325,6.325,0,0,1,10.54,2.9,5.874,5.874,0,0,1-1.474,5.921c-3.04,3.116-6.151,6.162-9.226,9.242-.183.183-.287.222-.494.014-3.087-3.095-6.236-6.13-9.258-9.286a5.927,5.927,0,0,1-1.151-6.772A6.208,6.208,0,0,1,208.823,298.562ZM223.4,304.87a4.94,4.94,0,0,0-8.341-3.558c-.409.368-.795.764-1.171,1.167-.188.2-.31.218-.507.009-.4-.427-.816-.844-1.25-1.238a4.957,4.957,0,0,0-6.846.152,4.866,4.866,0,0,0-.1,6.831c2.682,2.772,5.437,5.473,8.153,8.214.218.22.333.2.542-.011,2.711-2.72,5.439-5.422,8.146-8.146A4.643,4.643,0,0,0,223.4,304.87Z" transform="translate(-202.406 -298.545)" fill="url(#linear-gradient)"/>
</svg>
