<svg xmlns="http://www.w3.org/2000/svg" xmlns:xlink="http://www.w3.org/1999/xlink" width="13.761" height="16.755" viewBox="0 0 13.761 16.755">
  <defs>
    <linearGradient id="linear-gradient" x1="0.5" y1="-0.757" x2="0.5" y2="1" gradientUnits="objectBoundingBox">
      <stop offset="0" stop-color="#f10000"/>
      <stop offset="1" stop-color="#ffac2d"/>
    </linearGradient>
  </defs>
  <g id="Group_39514" data-name="Group 39514" transform="translate(-93.721 -137.531)">
    <path id="Path_25085" data-name="Path 25085" d="M104.271,145.714q0-3.879,0-7.757a1.487,1.487,0,0,1,.008-.225.219.219,0,0,1,.218-.2.223.223,0,0,1,.244.168.794.794,0,0,1,.021.272q0,7.757,0,15.515c0,.348-.023.308.316.309.677,0,1.355,0,2.032,0a1.239,1.239,0,0,1,.177.006.21.21,0,0,1,.193.2.22.22,0,0,1-.155.252.89.89,0,0,1-.288.029H94.168a1.23,1.23,0,0,1-.272-.024.215.215,0,0,1-.173-.254.211.211,0,0,1,.207-.208,1.7,1.7,0,0,1,.177,0q1.8,0,3.6,0c.133,0,.2-.016.124-.166a.7.7,0,0,1-.038-.318q0-4.04,0-8.08a1.168,1.168,0,0,0-.007-.209.2.2,0,0,0-.2-.175.189.189,0,0,0-.2.178.86.86,0,0,0-.006.161q0,1.3,0,2.6c0,.054,0,.108,0,.161a.452.452,0,0,1-.456.465.443.443,0,0,1-.424-.477q0-2.024,0-4.047a.831.831,0,0,1,.719-.825,14.289,14.289,0,0,1,3.856-.022,1.1,1.1,0,0,1,.546.171.812.812,0,0,1,.347.676q0,2.03,0,4.06a.432.432,0,0,1-.862.069,1.564,1.564,0,0,1-.017-.257q0-1.258,0-2.516c0-.048,0-.1,0-.145,0-.134-.04-.237-.19-.249a.218.218,0,0,0-.219.245c0,.467-.019.935.014,1.4.012.17-.015.343-.015.515q0,3.145,0,6.29a.848.848,0,0,1-.056.4c-.036.072-.008.1.065.1h.081c1.1,0,2.2,0,3.306,0,.151,0,.2-.039.2-.2q-.009-3.338-.007-6.677,0-.6,0-1.209Zm-5.179,5.365q0,1.128,0,2.256c0,.064-.009.129-.007.193,0,.089-.118.186-.039.246.062.048.185.017.281.021h.064c.069,0,.088-.027.054-.089a.884.884,0,0,1-.074-.439q0-2.224,0-4.447c0-.054,0-.107,0-.161,0-.072-.036-.1-.107-.113-.141-.016-.172.054-.172.181C99.094,149.51,99.092,150.295,99.092,151.079Z" transform="translate(0 0)" fill="url(#linear-gradient)"/>
    <path id="Path_25086" data-name="Path 25086" d="M223.617,210.359a1.411,1.411,0,1,1-1.4-1.414A1.413,1.413,0,0,1,223.617,210.359Z" transform="translate(-122.975 -69.11)" fill="url(#linear-gradient)"/>
    <path id="Path_25087" data-name="Path 25087" d="M454.787,305.683c.257,0,.515,0,.772,0,.2,0,.3.074.3.23s-.088.248-.286.253c-.38.011-.761.007-1.141.007-.161,0-.322,0-.481-.013a.231.231,0,0,1-.237-.264c.012-.138.1-.21.269-.212C454.251,305.681,454.519,305.683,454.787,305.683Z" transform="translate(-348.378 -162.727)" fill="url(#linear-gradient)"/>
    <path id="Path_25088" data-name="Path 25088" d="M454.784,473.43c-.263,0-.525,0-.788,0-.176,0-.267-.081-.272-.227a.23.23,0,0,1,.252-.251c.546-.023,1.093-.022,1.639,0a.234.234,0,0,1,.255.264c-.011.143-.1.213-.283.215C455.32,473.432,455.052,473.43,454.784,473.43Z" transform="translate(-348.39 -324.584)" fill="url(#linear-gradient)"/>
    <path id="Path_25089" data-name="Path 25089" d="M454.826,221.675c.263,0,.527,0,.79,0,.17,0,.257.076.268.215a.225.225,0,0,1-.24.261c-.408.014-.817.012-1.225.014-.14,0-.28,0-.419-.009-.184-.016-.272-.111-.261-.26s.1-.219.281-.221C454.289,221.673,454.557,221.675,454.826,221.675Z" transform="translate(-348.403 -81.429)" fill="url(#linear-gradient)"/>
    <path id="Path_25090" data-name="Path 25090" d="M454.825,557.418c-.263,0-.527,0-.79,0-.186,0-.279-.082-.283-.235s.081-.238.259-.245q.814-.031,1.628,0c.182.007.269.111.258.262s-.1.216-.283.218C455.351,557.42,455.088,557.418,454.825,557.418Z" transform="translate(-348.416 -405.862)" fill="url(#linear-gradient)"/>
    <path id="Path_25091" data-name="Path 25091" d="M454.8,390.111c-.258,0-.516,0-.774,0-.2,0-.294-.082-.292-.24s.094-.232.283-.233q.79,0,1.579,0c.19,0,.281.079.284.232s-.092.24-.291.241C455.325,390.112,455.062,390.111,454.8,390.111Z" transform="translate(-348.398 -243.973)" fill="url(#linear-gradient)"/>
    <path id="Path_25092" data-name="Path 25092" d="M454.42,599.33c-.156,0-.312,0-.468,0a.219.219,0,0,1-.24-.21.221.221,0,0,1,.2-.263,6,6,0,0,1,1.03,0,.224.224,0,0,1,.21.258.231.231,0,0,1-.252.219c-.161,0-.323,0-.484,0Z" transform="translate(-348.376 -446.421)" fill="url(#linear-gradient)"/>
    <path id="Path_25093" data-name="Path 25093" d="M454.443,179.678c.156,0,.312,0,.467,0a.226.226,0,0,1,.25.234.219.219,0,0,1-.222.246,6.954,6.954,0,0,1-1,0,.239.239,0,0,1,.035-.478h.467Z" transform="translate(-348.385 -40.786)" fill="url(#linear-gradient)"/>
    <path id="Path_25094" data-name="Path 25094" d="M454.44,263.683c.156,0,.311,0,.467,0a.231.231,0,0,1,.253.216.239.239,0,0,1-.226.264,6.506,6.506,0,0,1-1-.007.238.238,0,1,1,.037-.474Z" transform="translate(-348.382 -122.081)" fill="url(#linear-gradient)"/>
    <path id="Path_25095" data-name="Path 25095" d="M454.46,515.352c-.161,0-.322,0-.483,0a.236.236,0,0,1-.035-.468,4.887,4.887,0,0,1,1.043,0,.236.236,0,0,1-.043.469c-.161,0-.322,0-.483,0Z" transform="translate(-348.411 -365.153)" fill="url(#linear-gradient)"/>
    <path id="Path_25096" data-name="Path 25096" d="M454.449,432.084c-.155,0-.311,0-.466,0a.224.224,0,0,1-.249-.233.22.22,0,0,1,.243-.237q.474-.007.948,0a.223.223,0,0,1,.25.232c0,.146-.091.234-.261.238S454.6,432.084,454.449,432.084Z" transform="translate(-348.399 -284.592)" fill="url(#linear-gradient)"/>
    <path id="Path_25097" data-name="Path 25097" d="M454.455,348.1c-.161,0-.323,0-.484,0a.235.235,0,1,1,0-.469q.484-.007.967,0a.234.234,0,0,1,0,.468C454.778,348.1,454.616,348.1,454.455,348.1Z" transform="translate(-348.398 -203.317)" fill="url(#linear-gradient)"/>
  </g>
</svg>
