<svg xmlns="http://www.w3.org/2000/svg" width="19.437" height="16.712" viewBox="0 0 19.437 16.712">
  <g id="Group_38352" data-name="Group 38352" transform="translate(-171.938 -321.485)">
    <path id="Path_24576" data-name="Path 24576" d="M190.007,324.594c.133-.258.237-.445.326-.638a4.4,4.4,0,0,1,1.681-1.787,5.364,5.364,0,0,1,1.44-.6,2.682,2.682,0,0,1,.738-.085,10.273,10.273,0,0,1,1.139.04,2.979,2.979,0,0,1,1.19.36c.284.161.588.293.853.481a4.76,4.76,0,0,1,1.23,1.28,7.1,7.1,0,0,1,.627,1.41,1.441,1.441,0,0,1,.078.5,13.778,13.778,0,0,1-.033,1.649,3.388,3.388,0,0,1-.35,1.052,9.83,9.83,0,0,1-.621.992,1.512,1.512,0,0,1-.12.156c-.2.235-.431.306-.593.184a.611.611,0,0,1-.148-.731,4.858,4.858,0,0,1,.363-.536,3.382,3.382,0,0,0,.61-2.475,3.552,3.552,0,0,0-1.086-2.291,3.937,3.937,0,0,0-1.8-1.072,4.666,4.666,0,0,0-1.151-.1,3.65,3.65,0,0,0-2.007.651,3.874,3.874,0,0,0-1.309,1.487,5.734,5.734,0,0,0-.525,1.554,1.041,1.041,0,0,1-.378.708.256.256,0,0,1-.322.026,1.035,1.035,0,0,1-.343-.38c-.151-.4-.239-.817-.383-1.216-.116-.322-.28-.626-.42-.939a2.91,2.91,0,0,0-1.059-1.16,3.818,3.818,0,0,0-2.313-.748,3.889,3.889,0,0,0-2.058.628,3.807,3.807,0,0,0-1.19,1.195,5.422,5.422,0,0,0-.616,1.683,2.053,2.053,0,0,0,.02.72,4.418,4.418,0,0,0,.455,1.515,5.179,5.179,0,0,0,.358.557.962.962,0,0,1,.007.772c-.019.024-.054.059-.075.055-.186-.034-.4.03-.551-.141a4.137,4.137,0,0,1-.8-1.295,5,5,0,0,1-.211-2.742,4.611,4.611,0,0,1,1.39-2.527,4.4,4.4,0,0,1,1.533-1,3.386,3.386,0,0,1,1.293-.3,11.059,11.059,0,0,1,1.315.045,4.476,4.476,0,0,1,1.227.371,4.982,4.982,0,0,1,1.294.869,4.709,4.709,0,0,1,1.019,1.429A3,3,0,0,0,190.007,324.594Z" transform="translate(-7.943)" fill="#c3c3c3"/>
    <path id="Path_24577" data-name="Path 24577" d="M174.945,384.135c.807,0,1.614,0,2.421,0a.317.317,0,0,0,.364-.241c.244-.731.508-1.455.765-2.182.159-.449.3-.907.491-1.341a.654.654,0,0,1,.4-.326.56.56,0,0,1,.564.32c.264.413.5.846.753,1.263.393.638.8,1.267,1.193,1.906.27.44.519.892.784,1.335.208.347.419.693.643,1.029a.368.368,0,0,0,.243.124c.039,0,.1-.1.135-.159.089-.152.167-.31.255-.463a7.964,7.964,0,0,1,.475-.808.955.955,0,0,1,.763-.456c1.738,0,3.477,0,5.215,0a.689.689,0,0,1,.577.226.278.278,0,0,1,.034.372.615.615,0,0,1-.557.306c-.249-.006-.5,0-.748,0-1.312,0-2.624.012-3.936,0a.832.832,0,0,0-.838.512c-.213.418-.477.81-.716,1.214-.1.174-.2.353-.3.526-.225.366-.489.4-.766.076a5.79,5.79,0,0,1-.478-.716q-.588-.949-1.167-1.9c-.285-.469-.564-.942-.85-1.41-.235-.385-.475-.768-.716-1.15a2.222,2.222,0,0,0-.278-.4c-.139-.139-.21-.1-.268.088-.126.4-.266.805-.4,1.209-.117.367-.233.735-.34,1.105a1.532,1.532,0,0,1-.612.864.382.382,0,0,1-.22.038c-.229-.01-.457-.046-.685-.046q-2.283-.007-4.566,0a.663.663,0,0,1-.5-.193c-.113-.11-.2-.247-.118-.385a.536.536,0,0,1,.439-.324c.236-.008.472,0,.708,0Z" transform="translate(0 -53.944)" fill="#c3c3c3"/>
    <path id="Path_24578" data-name="Path 24578" d="M232.6,452.444a1.37,1.37,0,0,1,.321.187c.711.733,1.411,1.477,2.119,2.214q1.087,1.132,2.182,2.257a.362.362,0,0,0,.6-.009c.118-.122.231-.25.349-.373.619-.641,1.242-1.278,1.859-1.922s1.255-1.317,1.88-1.979c.166-.176.317-.366.483-.542a1.018,1.018,0,0,1,.234-.176.365.365,0,0,1,.5.036c.149.176.233.374.07.566-.219.259-.437.519-.663.771q-.425.475-.864.938-.654.693-1.316,1.378-1.14,1.178-2.287,2.349a2.157,2.157,0,0,1-.266.233.574.574,0,0,1-.659-.041c-.419-.4-.832-.8-1.236-1.211q-.92-.938-1.824-1.892c-.591-.621-1.175-1.248-1.761-1.875a.593.593,0,0,1-.154-.527C232.211,452.567,232.311,452.48,232.6,452.444Z" transform="translate(-55.48 -120.261)" fill="#c3c3c3"/>
  </g>
</svg>
