<svg xmlns="http://www.w3.org/2000/svg" width="16.673" height="10.496" viewBox="0 0 16.673 10.496">
  <path id="Path_24629" data-name="Path 24629" d="M75.738,84.9a1.038,1.038,0,0,1,.923-1.132,1.022,1.022,0,0,1,.915,1.117.336.336,0,0,0,.146.32q1.583,1.164,3.158,2.344c.1.078.183.108.3.021a.636.636,0,0,1,.544-.117c.1.023.138-.021.187-.1q1.889-3.159,3.783-6.314a.266.266,0,0,0,.013-.267,1.278,1.278,0,0,1,.228-1.306.8.8,0,0,1,1.084-.119,1.227,1.227,0,0,1,.426,1.214c-.093.482-.427.875-.841.846-.29-.02-.4.156-.532.382q-1.794,3.005-3.6,6a.317.317,0,0,0-.033.322,1.275,1.275,0,0,1-.178,1.228.819.819,0,0,1-1.009.259,1.107,1.107,0,0,1-.57-1.035.333.333,0,0,0-.147-.32q-1.6-1.175-3.189-2.365a.185.185,0,0,0-.252-.009.736.736,0,0,1-.891-.01.161.161,0,0,0-.222.007q-1.614,1.2-3.234,2.4a.308.308,0,0,0-.114.3,1.023,1.023,0,0,1-.935,1.117,1.043,1.043,0,0,1-.905-1.155,1.013,1.013,0,0,1,.961-1.085.625.625,0,0,1,.386.133c.108.092.185.057.283-.016Q74.009,86.376,75.6,85.2C75.705,85.125,75.778,85.046,75.738,84.9Z" transform="translate(-70.795 -79.186)" fill="#fff"/>
</svg>
