<svg xmlns="http://www.w3.org/2000/svg" width="87.211" height="89.933" viewBox="0 0 87.211 89.933">
  <g id="Group_38028" data-name="Group 38028" transform="translate(-21.421 -342.992)">
    <g id="Group_38025" data-name="Group 38025">
      <path id="Path_10854" data-name="Path 10854" d="M65.313,432.925V415.273H52.47s-1.987,6.712-2.477,9.413c-.621,3.417-.941,6.273-1.107,8.239Z" fill="#4f4f4f"/>
      <path id="Path_10855" data-name="Path 10855" d="M81.726,432.925c-.166-1.966-.487-4.822-1.107-8.239-.49-2.7-2.477-9.413-2.477-9.413H65.3v17.652Z" fill="#333"/>
    </g>
    <path id="Path_10856" data-name="Path 10856" d="M108.026,374.462a17.126,17.126,0,0,0-1.134-4.974,30.058,30.058,0,0,0-3.033-4.379c-.391-.568-2.505-3.741-3.1-4.582-.694-.984-1.413-1.943-2.172-2.872-1.257-1.539-3.174-6.093-4.476-6.558a7.033,7.033,0,0,0-2.924-.4c-2.387.176-4.7-.627-6.367,1.52-1.523,1.961-1.123,5.516.607,7.241a4,4,0,0,0,2.52,1c.57.023.939-.02,1.207-.512.107-.2-.009-.443.1-.644a7,7,0,0,0,2.907-1.123c1.4,1.367,1.817,3.663,2.251,5.506a55.943,55.943,0,0,0,1.618,6.264,13.383,13.383,0,0,0,1.922,3.547,10.077,10.077,0,0,0-3.642-.316c-2.179.211-4.017,1.333-6.022,2.117a16.619,16.619,0,0,0-5.684-1.971c-2.607-.152-4.711.84-7.2,1.129a3.146,3.146,0,0,1-1.032-.069c-4.031-1.7-3.237-7.185-3.237-7.185l-5.917.031-5.724-.031s.141,4.369-2.536,6.655a3.548,3.548,0,0,1-2.309.6c-2.49-.289-4.594-1.281-7.2-1.129a16.619,16.619,0,0,0-5.684,1.971c-2.005-.784-3.843-1.906-6.022-2.117a10.077,10.077,0,0,0-3.642.316,13.412,13.412,0,0,0,1.922-3.547,55.944,55.944,0,0,0,1.618-6.264c.434-1.843.852-4.139,2.251-5.506A7,7,0,0,0,40.8,359.3c.108.2-.008.446.1.644.268.492.637.535,1.207.512a4,4,0,0,0,2.52-1c1.73-1.725,2.13-5.28.607-7.241-1.667-2.147-3.98-1.344-6.367-1.52a7.033,7.033,0,0,0-2.924.4c-1.3.465-3.219,5.019-4.476,6.558-.759.929-1.478,1.888-2.172,2.872-.593.841-2.708,4.014-3.1,4.582a30.058,30.058,0,0,0-3.033,4.379,17.126,17.126,0,0,0-1.134,4.974c-.264,2.422-.95,4.352-.4,5.212,1.042,1.613,2.869,2.454,4.462,3.454.23.144,5.3,3.848,7.657,4.793,5.464,2.193,9.706-1.318,10.584,2.193,1.3,5.2,3.8,7.9,6.729,11.995,1.365,1.911,1.444,11.311,1.417,13.164H78.15c-.019-1.184-.1-7.737.3-11.8a4.378,4.378,0,0,1,.537-1.363c2.926-4.1,5.428-6.791,6.729-11.995.878-3.511,5.12,0,10.584-2.193,2.357-.945,7.427-4.649,7.657-4.793,1.593-1,3.42-1.841,4.462-3.454C108.976,378.814,108.29,376.884,108.026,374.462Z" fill="#f4b073"/>
    <path id="Path_10857" data-name="Path 10857" d="M83.776,387.335c-.6,2.249-1.975,6.8-8.077,7.763-6.99,1.1-9.3-1.313-9.3-1.313s-.046,2.294,3.662,3.149c4.318,1,9.2-.173,11.343-2.521C83.008,392.656,84.434,389.145,83.776,387.335Z" fill="#e59a5c"/>
    <path id="Path_10858" data-name="Path 10858" d="M46.213,387.335c.6,2.249,1.975,6.8,8.076,7.763,6.991,1.1,9.3-1.313,9.3-1.313s.046,2.294-3.662,3.149c-4.318,1-9.2-.173-11.343-2.521C46.981,392.656,45.555,389.145,46.213,387.335Z" fill="#e59a5c"/>
    <g id="Group_38027" data-name="Group 38027">
      <g id="Group_38026" data-name="Group 38026">
        <path id="Path_10859" data-name="Path 10859" d="M75.491,357.743a1.03,1.03,0,0,0-1.646-.479c.133-.827,1.389-9.063-2.548-11.288a13.016,13.016,0,0,0-5.981-1.2l0-.055a12.986,12.986,0,0,0-5.99,1.255c-3.937,2.225-2.681,10.461-2.548,11.288a1.03,1.03,0,0,0-1.646.479,4.317,4.317,0,0,0,.771,3.894c.357.294,1.178.369,1.434.511.387,1.895.6,3.9,1.732,5.479,1.887,2.642,5.5,2.816,6.361,2.816a7.2,7.2,0,0,0,6.127-2.816c1.241-1.5,1.345-3.584,1.732-5.479.256-.142,1.077-.217,1.435-.511A4.319,4.319,0,0,0,75.491,357.743Z" fill="#f9c38a"/>
        <path id="Path_10860" data-name="Path 10860" d="M56.76,358.568l.248,2.013a1.775,1.775,0,0,1-.827-1.31C56.107,358.708,56.305,358.347,56.76,358.568Z" fill="#e59a5c"/>
        <path id="Path_10861" data-name="Path 10861" d="M73.915,358.568l-.248,2.013a1.775,1.775,0,0,0,.827-1.31C74.568,358.708,74.37,358.347,73.915,358.568Z" fill="#e59a5c"/>
      </g>
      <path id="Path_10862" data-name="Path 10862" d="M74.89,348.372c-.428-3.722-3.372-4.994-8.943-5.348-.213-.014-.423-.022-.634-.031h-.008c-.21.009-.421.017-.634.031-5.571.354-8.515,1.626-8.943,5.348a40.389,40.389,0,0,0,.3,8.644l.747.248s.437-5.982,1.806-6.9,2.325.1,6.433.1c.1,0,.2,0,.295,0s.195,0,.3,0c4.108,0,5.063-1.013,6.433-.1s1.805,6.9,1.805,6.9l.748-.248A40.377,40.377,0,0,0,74.89,348.372Z" fill="#582a1a"/>
    </g>
    <path id="Path_10863" data-name="Path 10863" d="M65.873,412.309c0,.49-.251.887-.561.887s-.562-.4-.562-.887.252-.886.562-.886S65.873,411.82,65.873,412.309Z" fill="#e2995d"/>
  </g>
</svg>
