<svg xmlns="http://www.w3.org/2000/svg" xmlns:xlink="http://www.w3.org/1999/xlink" width="13.489" height="13.094" viewBox="0 0 13.489 13.094">
  <defs>
    <linearGradient id="linear-gradient" x1="0.5" y1="-0.853" x2="0.5" y2="1" gradientUnits="objectBoundingBox">
      <stop offset="0" stop-color="#f10000"/>
      <stop offset="1" stop-color="#ffac2d"/>
    </linearGradient>
  </defs>
  <g id="Group_40134" data-name="Group 40134" transform="translate(0)">
    <path id="Path_25072" data-name="Path 25072" d="M240.086,321.845c1.711,0,3.423,0,5.134,0a1.444,1.444,0,0,1,1.6,1.656q-.2,4.908-.4,9.815a1.5,1.5,0,0,1-1.675,1.619q-4.647,0-9.294,0a1.521,1.521,0,0,1-1.711-1.677q-.189-4.8-.4-9.593c-.056-1.26.467-1.822,1.744-1.823Zm-.013.4h0c-1.726,0-3.452-.007-5.179,0a1.022,1.022,0,0,0-1.141,1.193q.2,4.93.41,9.86c.039.879.41,1.215,1.28,1.215h9.295c.851,0,1.224-.337,1.261-1.185q.214-4.885.408-9.771c.038-.941-.33-1.312-1.289-1.315C243.437,322.247,241.755,322.25,240.073,322.25Z" transform="translate(-233.337 -321.844)" fill="url(#linear-gradient)"/>
    <path id="Path_25073" data-name="Path 25073" d="M277.521,334.843a5.3,5.3,0,0,1,2.739,1.119.292.292,0,0,1,.115.417,4.619,4.619,0,0,1-2.48,2.451,1.626,1.626,0,0,1-1.2,0,4.621,4.621,0,0,1-2.483-2.45.3.3,0,0,1,.114-.42A5.442,5.442,0,0,1,277.521,334.843Zm-.438,1.8c0-.292,0-.484,0-.676,0-.151.034-.274.2-.286s.217.12.22.264c0,.192.013.384,0,.575-.028.435-.05.851.522.973.157.034.263.193.341.334.112.2.215.184.373.049a5.02,5.02,0,0,0,1.106-1.369c.1-.174.074-.275-.1-.4a4.01,4.01,0,0,0-4.908-.007c-.2.14-.188.25-.083.431a5.391,5.391,0,0,0,.976,1.25c.217.2.381.3.551-.046a.509.509,0,0,1,.294-.255C277.128,337.363,277.13,336.972,277.083,336.645Zm.219,1.92c.263-.112.651-.038.771-.374.081-.228-.48-.536-.869-.5a1.035,1.035,0,0,0-.254.063c-.212.08-.44.2-.439.437s.28.2.442.278A2.1,2.1,0,0,0,277.3,338.565Z" transform="translate(-270.547 -333.691)" fill="url(#linear-gradient)"/>
    <path id="Path_25074" data-name="Path 25074" d="M307.51,396.17q0,1.081,0,2.162c0,.162.014.373-.2.381-.252.009-.225-.22-.225-.394q0-2.139,0-4.279c0-.161-.019-.372.2-.379.254-.008.224.219.224.392C307.511,394.759,307.51,395.464,307.51,396.17Z" transform="translate(-300.553 -387.298)" fill="url(#linear-gradient)"/>
    <path id="Path_25075" data-name="Path 25075" d="M263.5,444.317c-.158-.025-.393.032-.383-.229s.25-.184.407-.189.4-.056.391.209S263.672,444.293,263.5,444.317Z" transform="translate(-260.481 -433.077)" fill="url(#linear-gradient)"/>
    <path id="Path_25076" data-name="Path 25076" d="M261.056,431.876c.155.022.4-.055.393.208s-.247.192-.407.2-.4.05-.4-.206S260.888,431.894,261.056,431.876Z" transform="translate(-258.225 -422.128)" fill="url(#linear-gradient)"/>
    <path id="Path_25077" data-name="Path 25077" d="M347.24,444.32c-.178-.021-.412.035-.405-.223s.241-.2.4-.2.4-.058.394.206C347.625,444.353,347.392,444.3,347.24,444.32Z" transform="translate(-336.779 -433.08)" fill="url(#linear-gradient)"/>
    <path id="Path_25078" data-name="Path 25078" d="M349.564,432.245c-.166-.016-.4.036-.38-.23s.264-.174.423-.178.406-.054.382.216C349.968,432.305,349.724,432.214,349.564,432.245Z" transform="translate(-338.92 -422.084)" fill="url(#linear-gradient)"/>
    <path id="Path_25079" data-name="Path 25079" d="M258.532,420.23c-.157-.012-.371.025-.37-.2,0-.271.243-.2.4-.2s.41-.069.39.21C258.938,420.294,258.693,420.2,258.532,420.23Z" transform="translate(-255.963 -411.138)" fill="url(#linear-gradient)"/>
    <path id="Path_25080" data-name="Path 25080" d="M352.043,420.188c-.148-.019-.39.052-.378-.214s.256-.192.416-.189.407-.063.393.209S352.221,420.168,352.043,420.188Z" transform="translate(-341.182 -411.101)" fill="url(#linear-gradient)"/>
    <path id="Path_25081" data-name="Path 25081" d="M253.59,396.1c-.16-.028-.409.053-.387-.219.02-.248.257-.182.42-.181s.4-.051.386.213S253.744,396.066,253.59,396.1Z" transform="translate(-251.442 -389.15)" fill="url(#linear-gradient)"/>
    <path id="Path_25082" data-name="Path 25082" d="M357.085,396.115c-.195-.024-.436.059-.429-.209s.247-.182.406-.189.4-.05.393.2S357.2,396.08,357.085,396.115Z" transform="translate(-345.731 -389.166)" fill="url(#linear-gradient)"/>
    <path id="Path_25083" data-name="Path 25083" d="M256.076,408.171c-.158-.033-.406.047-.4-.215s.251-.186.409-.189.4-.062.4.2S256.236,408.147,256.076,408.171Z" transform="translate(-253.697 -400.149)" fill="url(#linear-gradient)"/>
    <path id="Path_25084" data-name="Path 25084" d="M354.6,408.171c-.171-.039-.415.056-.427-.2s.232-.205.389-.2.4-.08.411.182S354.738,408.131,354.6,408.171Z" transform="translate(-343.467 -400.145)" fill="url(#linear-gradient)"/>
  </g>
</svg>
