<svg xmlns="http://www.w3.org/2000/svg" width="19.362" height="17.019" viewBox="0 0 19.362 17.019">
  <g id="Group_38350" data-name="Group 38350" transform="translate(142.341 3)">
    <path id="Path_24568" data-name="Path 24568" d="M-111.091.23a3.072,3.072,0,0,1-.672,1.114,22.539,22.539,0,0,1-1.829,1.912,4.378,4.378,0,0,1-.9.648,2.451,2.451,0,0,1-2.039.16.356.356,0,0,0-.436.106q-4.456,4.71-8.92,9.412a1.811,1.811,0,0,1-.427.39.326.326,0,0,1-.256.036,1.931,1.931,0,0,1-1.355-1.3.418.418,0,0,1,.133-.468c.224-.218.45-.433.676-.647l6.588-6.253,2.34-2.224.078-.074c.134-.132.143-.179.068-.351a2.582,2.582,0,0,1-.232-1.224A2.718,2.718,0,0,1-117.6-.1a17.6,17.6,0,0,1,2.254-2.245l.182-.151a2.187,2.187,0,0,1,.889-.5h.151a1.89,1.89,0,0,1,.38.145c.228.122.237.159.055.349q-.954.994-1.909,1.985c-.2.212-.407.425-.6.644a.278.278,0,0,0-.009.414.3.3,0,0,0,.437.066,1.793,1.793,0,0,0,.18-.137l2.121-1.808c.2-.172.4-.346.605-.517.13-.11.167-.107.291.013l.122.121c.256.248.256.273.026.541q-1.128,1.321-2.255,2.644a.806.806,0,0,0-.132.2.3.3,0,0,0,.076.353.289.289,0,0,0,.363.062.981.981,0,0,0,.227-.18q.812-.778,1.624-1.556c.3-.289.6-.591.914-.865.14-.12.212-.1.308.054a2.83,2.83,0,0,1,.215.466Z" transform="translate(-11.889)" fill="#c3c3c3"/>
    <path id="Path_24569" data-name="Path 24569" d="M-135.6,4.726a2.781,2.781,0,0,1-.235,1.114c-.084.195-.074.238.082.386l2.157,2.042.047.045c.116.115.118.149,0,.263q-.48.463-.963.924c-.144.137-.23.134-.373-.016q-.987-1.029-1.972-2.06c-.181-.189-.209-.194-.447-.093a2.6,2.6,0,0,1-2.64-.315,5.527,5.527,0,0,1-2.322-3.663,2.418,2.418,0,0,1-.006-1.13A1.908,1.908,0,0,1-140.221.816,5.753,5.753,0,0,1-137.4,1.888a5.059,5.059,0,0,1,1.5,1.719A2.491,2.491,0,0,1-135.6,4.726Z" transform="translate(0 -3.14)" fill="#c3c3c3"/>
    <path id="Path_24570" data-name="Path 24570" d="M-80.1,64.319a.638.638,0,0,1-.345-.157,6.678,6.678,0,0,1-.723-.72c-1.242-1.343-2.506-2.663-3.761-3.994-.178-.189-.177-.2,0-.392.311-.328.629-.648.931-.985.183-.205.266-.206.469-.013q1.052,1,2.1,2,1.256,1.192,2.514,2.382a.564.564,0,0,1,.143.762,2.231,2.231,0,0,1-.873.982A.822.822,0,0,1-80.1,64.319Z" transform="translate(-47.305 -50.304)" fill="#c3c3c3"/>
  </g>
</svg>
