<svg xmlns="http://www.w3.org/2000/svg" width="32" height="32" viewBox="0 0 32 32">
  <g id="Group_22122" data-name="Group 22122" transform="translate(-0.963)">
    <g id="Group_19275" data-name="Group 19275" transform="translate(0.963)">
      <path id="Path_19013" data-name="Path 19013" d="M272.677,262.621a16,16,0,1,0,15.971-16.229A15.964,15.964,0,0,0,272.677,262.621ZM288.533,248a14.4,14.4,0,1,1-14.385,14.6A14.531,14.531,0,0,1,288.533,248Z" transform="translate(-272.676 -246.392)" fill="#ffac2d"/>
      <path id="Path_19022" data-name="Path 19022" d="M301.7,303.963c-2.156,0-4.313-.007-6.469,0-.551,0-1.228.085-1.2.816.022.645.641.859,1.223.859q6.738,0,13.477-.014c.556,0,1.189-.147,1.191-.863,0-.769-.68-.791-1.21-.795C306.369,303.952,304.032,303.963,301.7,303.963Z" transform="translate(-285.967 -283.239)" fill="#ffac2d"/>
      <path id="Path_19023" data-name="Path 19023" d="M298.578,272.483a1.924,1.924,0,0,0-1.944,2.118,2.034,2.034,0,1,0,4.064-.172C300.654,273.124,299.854,272.527,298.578,272.483Z" transform="translate(-277.315 -263.129)" fill="#ffac2d"/>
      <path id="Path_19024" data-name="Path 19024" d="M328.046,276.673c1.311-.189,2.115-.8,2.148-2.05a1.822,1.822,0,0,0-1.9-2.073,1.911,1.911,0,0,0-2.194,2.09A2.113,2.113,0,0,0,328.046,276.673Z" transform="translate(-317.405 -263.171)" fill="#ffac2d"/>
    </g>
  </g>
</svg>
