<svg xmlns="http://www.w3.org/2000/svg" width="14.886" height="22.141" viewBox="0 0 14.886 22.141">
  <g id="Group_37025" data-name="Group 37025" transform="translate(-62.989 -457.642) rotate(30)">
    <path id="Path_24100" data-name="Path 24100" d="M288.146,371.376l6.138-.629a.9.9,0,0,0,.7-.464l3.386-6.2a.9.9,0,0,0-.887-1.329l-5.906.627a.9.9,0,0,0-.684.442l-3.618,6.2A.9.9,0,0,0,288.146,371.376Z" transform="translate(-0.043 -0.074)" fill="#c3c3c3"/>
    <path id="Path_24101" data-name="Path 24101" d="M294.146,379.009l6.138-.629a.9.9,0,0,0,.7-.464l3.386-6.2c.349-.638-.618-1.683-1.342-1.606l-3.1,5.769c-.285.03-6.117.861-6.262,1.108l-.388.665A.9.9,0,0,0,294.146,379.009Z" transform="translate(-3.284 -3.954)" fill="#c3c3c3"/>
    <path id="Path_24102" data-name="Path 24102" d="M299.146,387.009l6.138-.629a.9.9,0,0,0,.7-.464l3.386-6.2c.349-.638-.618-1.683-1.342-1.606l-3.1,5.769c-.285.03-6.117.861-6.262,1.108l-.388.665A.9.9,0,0,0,299.146,387.009Z" transform="translate(-5.965 -8.221)" fill="#c3c3c3"/>
  </g>
</svg>
