<svg xmlns="http://www.w3.org/2000/svg" width="32" height="32" viewBox="0 0 32 32">
  <g id="Group_22124" data-name="Group 22124" transform="translate(-2.901)">
    <g id="Group_19277" data-name="Group 19277" transform="translate(2.901)">
      <path id="Path_19015" data-name="Path 19015" d="M82.256,281.373A16,16,0,1,0,66.292,265.28,16.032,16.032,0,0,0,82.256,281.373Zm.208-30.386a14.405,14.405,0,1,1-14.608,14.358A14.319,14.319,0,0,1,82.465,250.987Z" transform="translate(-66.292 -249.373)" fill="#ffac2d"/>
      <path id="Path_19028" data-name="Path 19028" d="M95.617,304.068c2.854-.112,5.324-1.918,6.993-4.882.326-.579.941-1.324.1-1.792-.867-.485-1.11.44-1.5.987-2.979,4.167-6.661,5.3-10.279,3.215a8.579,8.579,0,0,1-3.172-3.483c-.289-.52-.635-1.151-1.352-.746-.7.395-.272,1-.045,1.542C87.682,302.043,91.191,304.192,95.617,304.068Z" transform="translate(-78.579 -278.478)" fill="#ffac2d"/>
      <path id="Path_19029" data-name="Path 19029" d="M116.311,275.379A1.856,1.856,0,0,0,118,277.415a1.812,1.812,0,0,0,2.192-1.769,1.719,1.719,0,0,0-1.665-1.986A1.867,1.867,0,0,0,116.311,275.379Z" transform="translate(-107.514 -264.1)" fill="#ffac2d"/>
      <path id="Path_19030" data-name="Path 19030" d="M88.921,275.59a1.758,1.758,0,0,0,1.791,1.843,1.69,1.69,0,0,0,1.951-1.707,1.747,1.747,0,0,0-1.9-2.066A1.784,1.784,0,0,0,88.921,275.59Z" transform="translate(-69.406 -264.113)" fill="#ffac2d"/>
    </g>
  </g>
</svg>
