<svg id="Group_38448" data-name="Group 38448" xmlns="http://www.w3.org/2000/svg" xmlns:xlink="http://www.w3.org/1999/xlink" width="80.222" height="77.827" viewBox="0 0 80.222 77.827">
  <defs>
    <linearGradient id="linear-gradient" x1="1.249" y1="-0.649" x2="0.5" y2="1" gradientUnits="objectBoundingBox">
      <stop offset="0" stop-color="#f10000"/>
      <stop offset="1" stop-color="#ffcd00"/>
    </linearGradient>
  </defs>
  <g id="Group_37939" data-name="Group 37939" transform="translate(0 5.194)">
    <path id="Path_24262" data-name="Path 24262" d="M637.126,411.8a36.316,36.316,0,1,1,12.237-70.519,2.361,2.361,0,1,1-1.591,4.447,31.558,31.558,0,1,0,19.392,19.935,2.361,2.361,0,0,1,4.489-1.467,36.342,36.342,0,0,1-34.527,47.6Z" transform="translate(-600.81 -339.164)" fill="url(#linear-gradient)"/>
  </g>
  <g id="Group_37941" data-name="Group 37941" transform="translate(15.293 0)">
    <g id="Group_37940" data-name="Group 37940" transform="translate(0)">
      <path id="Path_24263" data-name="Path 24263" d="M855.655,321.163a147.016,147.016,0,0,0-27.644-30.393,40.744,40.744,0,0,1,17.039,3.172,40.088,40.088,0,0,1,8.747,5.1,82.678,82.678,0,0,1,14.125-20.069c10.283-10.733,23.373-18.434,24.88-16.742,1.328,1.49-7.1,9.406-17.5,24.254A209.3,209.3,0,0,0,855.655,321.163Z" transform="translate(-828.011 -262)" fill="url(#linear-gradient)"/>
    </g>
  </g>
</svg>
