<svg id="Group_39534" data-name="Group 39534" xmlns="http://www.w3.org/2000/svg" width="24.757" height="24.033" viewBox="0 0 24.757 24.033">
  <path id="Path_25117" data-name="Path 25117" d="M245.707,321.846c-3.141,0-6.282-.005-9.423,0a2.651,2.651,0,0,0-2.944,3.04q.369,9.008.74,18.015a2.756,2.756,0,0,0,3.074,2.971q8.529,0,17.059,0c2.057,0,3.06-1.012,3.141-3.077q.348-8.8.732-17.607c.1-2.313-.857-3.345-3.2-3.346Q250.3,321.843,245.707,321.846Zm.024.743v0c3.168,0,6.337-.014,9.5.006a1.876,1.876,0,0,1,2.094,2.189q-.36,9.049-.753,18.1c-.071,1.613-.753,2.23-2.348,2.23q-8.53,0-17.06,0c-1.562,0-2.247-.619-2.315-2.174q-.392-8.966-.749-17.933c-.07-1.728.606-2.409,2.365-2.413C239.557,322.583,242.644,322.588,245.731,322.588Z" transform="translate(-233.337 -321.844)" fill="#fa7a00"/>
  <path id="Path_25118" data-name="Path 25118" d="M279.483,334.843a9.736,9.736,0,0,0-5.026,2.053.536.536,0,0,0-.211.766,8.477,8.477,0,0,0,4.551,4.5,2.984,2.984,0,0,0,2.208,0,8.481,8.481,0,0,0,4.558-4.5.543.543,0,0,0-.21-.771A9.99,9.99,0,0,0,279.483,334.843Zm.8,3.307c0-.536-.009-.889,0-1.24.009-.276-.063-.5-.367-.525-.323-.023-.4.22-.4.485-.007.352-.024.705,0,1.056.052.8.091,1.561-.959,1.787-.288.062-.483.354-.626.612-.2.371-.394.338-.684.089a9.209,9.209,0,0,1-2.031-2.513c-.18-.319-.136-.505.177-.732a7.359,7.359,0,0,1,9.007-.012c.367.257.346.459.153.792a9.9,9.9,0,0,1-1.791,2.295c-.4.372-.7.56-1.011-.084a.933.933,0,0,0-.54-.467C280.2,339.468,280.2,338.751,280.287,338.15Zm-.4,3.523c-.483-.206-1.2-.069-1.414-.686-.149-.419.881-.983,1.6-.909a1.893,1.893,0,0,1,.466.116c.39.147.807.366.806.8s-.515.375-.812.51A3.831,3.831,0,0,1,279.885,341.673Z" transform="translate(-267.525 -332.729)" fill="#fa7a00"/>
  <path id="Path_25119" data-name="Path 25119" d="M307.088,398.267q0,1.983,0,3.967c0,.3-.026.685.361.7.462.017.413-.4.413-.722q0-3.927,0-7.853c0-.3.035-.683-.362-.7-.466-.015-.411.4-.411.72C307.086,395.676,307.088,396.971,307.088,398.267Z" transform="translate(-295.099 -381.983)" fill="#fa7a00"/>
  <path id="Path_25120" data-name="Path 25120" d="M263.882,444.674c.289-.046.721.059.7-.421s-.459-.338-.747-.347-.737-.1-.717.384C263.138,444.75,263.573,444.63,263.882,444.674Z" transform="translate(-244.671 -424.044)" fill="#fa7a00"/>
  <path id="Path_25121" data-name="Path 25121" d="M261.366,431.876c-.284.04-.729-.1-.721.382s.454.352.747.366.737.092.73-.377S261.675,431.908,261.366,431.876Z" transform="translate(-241.804 -413.985)" fill="#fa7a00"/>
  <path id="Path_25122" data-name="Path 25122" d="M347.555,444.676c.326-.039.756.064.744-.409s-.443-.366-.742-.361-.738-.106-.722.379C346.849,444.737,347.276,444.64,347.555,444.676Z" transform="translate(-341.997 -424.047)" fill="#fa7a00"/>
  <path id="Path_25123" data-name="Path 25123" d="M349.968,432.593c.3-.029.739.066.7-.422-.041-.471-.484-.319-.777-.326s-.745-.1-.7.4C349.226,432.7,349.674,432.536,349.968,432.593Z" transform="translate(-344.746 -413.944)" fill="#fa7a00"/>
  <path id="Path_25124" data-name="Path 25124" d="M258.943,420.574c.288-.022.681.047.679-.374,0-.5-.446-.369-.742-.365s-.753-.127-.716.385C258.2,420.691,258.647,420.523,258.943,420.574Z" transform="translate(-238.901 -403.887)" fill="#fa7a00"/>
  <path id="Path_25125" data-name="Path 25125" d="M352.457,420.532c.271-.035.716.095.694-.393-.022-.468-.469-.352-.764-.347s-.748-.116-.721.384C351.692,420.649,352.132,420.494,352.457,420.532Z" transform="translate(-347.634 -403.853)" fill="#fa7a00"/>
  <path id="Path_25126" data-name="Path 25126" d="M253.971,396.441c.294-.051.751.1.711-.4-.036-.455-.472-.333-.771-.332s-.742-.094-.708.391C253.236,396.566,253.689,396.378,253.971,396.441Z" transform="translate(-233.157 -383.685)" fill="#fa7a00"/>
  <path id="Path_25127" data-name="Path 25127" d="M357.336,396.454c.357-.043.8.109.787-.383s-.454-.334-.745-.348-.729-.092-.721.372C356.664,396.581,357.118,396.39,357.336,396.454Z" transform="translate(-353.417 -383.699)" fill="#fa7a00"/>
  <path id="Path_25128" data-name="Path 25128" d="M256.422,408.515c.29-.061.746.086.734-.394s-.461-.341-.751-.346-.738-.114-.729.367S256.128,408.47,256.422,408.515Z" transform="translate(-236.031 -393.79)" fill="#fa7a00"/>
  <path id="Path_25129" data-name="Path 25129" d="M354.858,408.518c.313-.072.762.1.784-.368.023-.493-.426-.376-.715-.375s-.73-.146-.755.333C354.147,408.607,354.6,408.444,354.858,408.518Z" transform="translate(-350.533 -393.786)" fill="#fa7a00"/>
</svg>
