<svg xmlns="http://www.w3.org/2000/svg" width="78.516" height="89.809" viewBox="0 0 78.516 89.809">
  <g id="Group_38035" data-name="Group 38035" transform="translate(-126.767 -16.802)">
    <g id="Group_38033" data-name="Group 38033">
      <circle id="Ellipse_2441" data-name="Ellipse 2441" cx="4.184" cy="4.184" r="4.184" transform="translate(126.767 38.454)" fill="#4f4f4f"/>
      <circle id="Ellipse_2442" data-name="Ellipse 2442" cx="4.184" cy="4.184" r="4.184" transform="translate(196.915 38.454)" fill="#4f4f4f"/>
      <g id="Group_38032" data-name="Group 38032">
        <path id="Path_10864" data-name="Path 10864" d="M175.983,49.7l.575-.023c4.533-.2,7.006,2.767,7.974,5.91,1.038,3.373,4.45,4.526,6.145,9.663,1.289-3.041,4.5-8.444,6.707-12.9a4.126,4.126,0,0,1-.938-1.642c-.141-.844-.188-.562-.657-.375-1.063.426-1.022-2.144-.609-4.878S197.6,42.424,200.034,44s3.02,1.4,2.182,5.066c-.335,1.463-3.514,13.368-4.785,16.464-1.846,4.5-2.919,7.123-5.769,9.147-.967.686-2.687-.054-4.5-1.97A53.476,53.476,0,0,1,179.653,61.4s-.394,1.747-.8,3.53c-.553-1.306-1.39-3.213-2.005-4.679A19.663,19.663,0,0,1,175.983,49.7Z" fill="#f4b073"/>
        <path id="Path_10865" data-name="Path 10865" d="M155.424,49.679c-.058,0-.11,0-.168,0-4.534-.2-6.543,2.79-7.716,5.511-1.4,3.241-4.573,4.785-6.4,10.062-1.29-3.041-4.5-8.444-6.707-12.9a4.126,4.126,0,0,0,.938-1.642c.14-.844.187-.562.656-.375,1.064.426,1.022-2.144.61-4.878s-2.42-3.031-4.855-1.454-3.019,1.4-2.181,5.066c.335,1.463,3.514,13.368,4.785,16.464,1.845,4.5,2.919,7.123,5.769,9.147.967.686,2.617-.122,4.5-1.97,3.448-3.377,6.45-9.018,7.505-11.305,0,0,.294,1.45.7,3.233.554-1.306,1.263-2.986,1.878-4.452C156.422,56.173,155.807,51.608,155.424,49.679Z" fill="#f4b073"/>
        <g id="Group_38029" data-name="Group 38029">
          <path id="Path_10866" data-name="Path 10866" d="M165.9,72.942h.012V54.636c-.021,0-.038,0-.059,0-4.227.122-5.256-4.029-5.5-5.833a10.06,10.06,0,0,1-4.929.874c.383,1.929,1,6.494-.684,10.5-.615,1.466-1.324,3.146-1.878,4.452.305,1.329.673,2.843,1.034,4.085.424,1.46,1,2.842,1.541,4.221H165.9Z" fill="#f0851d"/>
          <path id="Path_10867" data-name="Path 10867" d="M169.519,46.393l-.01.046a9.07,9.07,0,0,1,.1-4.187l-3.56.7-.135-.027-3.425-.675a8.511,8.511,0,0,1-.062,4.676,4.811,4.811,0,0,1-2.076,1.877c.248,1.8,1.277,5.955,5.5,5.833.021,0,.038,0,.059,0,4.38.085,5.291-4.448,5.476-6.075A4.106,4.106,0,0,1,169.519,46.393Z" fill="#f4b073"/>
          <path id="Path_10868" data-name="Path 10868" d="M174.91,79.228a30.8,30.8,0,0,1,1.5-6.286H155.437a21.227,21.227,0,0,1,1.649,5.911c.311,3.447-2.147,6.1-3.461,10.694l10.921.147v.041l1.369-.018.177,0,1.547.021v-.041l10.65-.147C176.977,84.95,174.6,82.675,174.91,79.228Z" fill="#f4b073"/>
          <path id="Path_10869" data-name="Path 10869" d="M165.916,54.636V72.942h10.493c.533-1.651,1.06-3.149,1.316-4.221.22-.924.709-2.5,1.181-3.957-.561-1.324-1.3-3.065-1.932-4.58-1.678-4-1.069-8.557-.686-10.493a9.1,9.1,0,0,1-4.9-1.13C171.207,50.188,170.3,54.72,165.916,54.636Z" fill="#e8721b"/>
        </g>
        <g id="Group_38031" data-name="Group 38031">
          <path id="Path_10870" data-name="Path 10870" d="M156.7,32.343a21.5,21.5,0,0,0,5.193,1.8,16.1,16.1,0,0,0,7.738.372c2.131-.471,4.974-1.29,6.155-3.31,1.021-1.747.378-6.2.06-7.135-1.327-3.9-2.653-5.018-5.826-5.133a5.792,5.792,0,0,0-5.017-2.134c-4.383.115-7.63,2.932-9.459,8.305C155.359,25.663,154.529,30.3,156.7,32.343Z" fill="#582a1a"/>
          <path id="Path_10871" data-name="Path 10871" d="M175.959,31.369a1.048,1.048,0,0,0-1.208-.634c-.022.01-.967-3.07-1.616-5.318a19.767,19.767,0,0,0-6.909-2.152v-.048c-.366-.02-1.071-.01-1.455,0a28.154,28.154,0,0,0-4.7.394,7.291,7.291,0,0,1-1.174.2c-.465,2.542-1.321,7.012-1.623,6.946a.123.123,0,0,1-.039-.006c-.04-.01-.068-.02-.1-.031a.9.9,0,0,0-1.041.567,3.765,3.765,0,0,0,.789,3.8,6.51,6.51,0,0,0,.963.657,10.326,10.326,0,0,0,2.074,4.863,10.846,10.846,0,0,0,5.778,3.574c.052.009.129.016.2.022v.008h.009s.034,0,.084-.01c.477-.062,3.12-.536,5.976-3.6A10.085,10.085,0,0,0,174,35.941a6.359,6.359,0,0,0,1.175-.77A3.764,3.764,0,0,0,175.959,31.369Z" fill="#f9c38a"/>
          <path id="Path_10872" data-name="Path 10872" d="M174.915,25.917c.115-1.615-2.884-5.248-4.73-4.844a2.733,2.733,0,0,0-.992.587,12.6,12.6,0,0,0-7.428-.7c-5.191.981-4.739,9.39-4.739,9.39s7.738-2.257,10.2-4.853c-.673,2.192-4.326,3.365-4.326,3.365a6.135,6.135,0,0,0,4.307-1.365,12.636,12.636,0,0,0,1.768-1.848,24.725,24.725,0,0,0,5.874,4.844C175.979,28.677,174.8,27.532,174.915,25.917Z" fill="#582a1a"/>
          <g id="Group_38030" data-name="Group 38030">
            <path id="Path_10873" data-name="Path 10873" d="M157.14,32.087l.253,2.056a1.813,1.813,0,0,1-.845-1.337C156.472,32.23,156.675,31.862,157.14,32.087Z" fill="#e59a5c"/>
            <path id="Path_10874" data-name="Path 10874" d="M174.558,32.087l-.254,2.056a1.813,1.813,0,0,0,.845-1.337C175.225,32.23,175.022,31.862,174.558,32.087Z" fill="#e59a5c"/>
          </g>
        </g>
        <ellipse id="Ellipse_2443" data-name="Ellipse 2443" cx="0.562" cy="0.887" rx="0.562" ry="0.887" transform="translate(165.379 84.805)" fill="#e2995d"/>
      </g>
      <path id="Path_10875" data-name="Path 10875" d="M141.208,49.791a4.183,4.183,0,1,1-4.184-4.184A4.184,4.184,0,0,1,141.208,49.791Z" fill="#4f4f4f"/>
      <path id="Path_10876" data-name="Path 10876" d="M190.842,49.791a4.184,4.184,0,1,0,4.184-4.184A4.184,4.184,0,0,0,190.842,49.791Z" fill="#4f4f4f"/>
    </g>
    <g id="Group_38034" data-name="Group 38034">
      <path id="Path_10877" data-name="Path 10877" d="M154.435,97.7c-.224,2.467-.7,6.128-1.073,8.908h12.513V89.547H153.568a34.812,34.812,0,0,0-1.184,3.754C153.315,93.655,154.709,94.689,154.435,97.7Z" fill="#4f4f4f"/>
      <path id="Path_10878" data-name="Path 10878" d="M178.352,106.611c-.377-2.78-.849-6.441-1.073-8.908-.285-3.139,1.237-4.129,2.162-4.442a34.008,34.008,0,0,0-1.168-3.714h-12.4v17.064Z" fill="#333"/>
      <path id="Path_10879" data-name="Path 10879" d="M153.362,106.611c.377-2.78.849-6.441,1.073-8.908.274-3.014-1.12-4.048-2.051-4.4a113.843,113.843,0,0,0-2.41,13.31Z" fill="#f0851d"/>
      <path id="Path_10880" data-name="Path 10880" d="M178.352,106.611h3.462a112.448,112.448,0,0,0-2.373-13.35c-.925.313-2.447,1.3-2.162,4.442C177.5,100.17,177.975,103.831,178.352,106.611Z" fill="#e8721b"/>
    </g>
  </g>
</svg>
